<svg xmlns="http://www.w3.org/2000/svg" width="61.16" height="20.44" viewBox="0 0 61.16 20.44">
  <metadata><?xpacket begin="﻿" id="W5M0MpCehiHzreSzNTczkc9d"?>
<x:xmpmeta xmlns:x="adobe:ns:meta/" x:xmptk="Adobe XMP Core 5.6-c138 79.159824, 2016/09/14-01:09:01        ">
   <rdf:RDF xmlns:rdf="http://www.w3.org/1999/02/22-rdf-syntax-ns#">
      <rdf:Description rdf:about=""/>
   </rdf:RDF>
</x:xmpmeta>
                                                                                                    
                                                                                                    
                                                                                                    
                                                                                                    
                                                                                                    
                                                                                                    
                                                                                                    
                                                                                                    
                                                                                                    
                                                                                                    
                                                                                                    
                                                                                                    
                                                                                                    
                                                                                                    
                                                                                                    
                                                                                                    
                                                                                                    
                                                                                                    
                                                                                                    
                                                                                                    
                           
<?xpacket end="w"?></metadata>
<defs>
    <style>
      .cls-1 {
        fill: #fff;
        fill-rule: evenodd;
      }
    </style>
  </defs>
  <path id="bandcamp" class="cls-1" d="M1125.34,5449.48c0,0.46-.01.88,0,1.3a0.289,0.289,0,0,1-.34.37c-0.55-.01-1.1-0.01-1.64,0a0.278,0.278,0,0,1-.34-0.33c0.01-.13,0-0.27,0-0.4v-18.17a1.289,1.289,0,0,0-.06-0.61,0.535,0.535,0,0,0-.3.43l-7.65,16.29c-0.47,1.01-.96,2.01-1.42,3.03a0.548,0.548,0,0,1-.59.36q-11.895-.015-23.8,0c-0.39,0-.42-0.08-0.27-0.42q3.075-6.48,6.12-12.98c1.03-2.2,2.07-4.4,3.09-6.61a0.61,0.61,0,0,1,.65-0.42q12.09,0.03,24.17.02c0.66,0,1.33.02,2-.02,0.43-.02.51,0.14,0.5,0.52q-0.015,3.06,0,6.12c0,0.14-.09.35,0.08,0.41s0.23-.15.32-0.26a5.311,5.311,0,0,1,5.44-1.63,5.748,5.748,0,0,1,4.25,4.55,10.641,10.641,0,0,1-.61,7.03,5.825,5.825,0,0,1-7.66,3.04,4.047,4.047,0,0,1-1.53-1.25A0.614,0.614,0,0,0,1125.34,5449.48Zm8-5.89a8.436,8.436,0,0,0-.46-2.8,3.357,3.357,0,0,0-2.98-2.29,3.3,3.3,0,0,0-3.64,1.72,8.449,8.449,0,0,0-.4,6.87,3.512,3.512,0,0,0,3.29,2.35,3.421,3.421,0,0,0,3.47-2.03A8.3,8.3,0,0,0,1133.34,5443.59Zm4.16,0.82a10.125,10.125,0,0,1,1.24-5.15c1.99-3.36,6.81-3.59,8.95-2.1a5.778,5.778,0,0,1,2.31,4.13c0.03,0.21-.06.27-0.25,0.27-0.62-.01-1.24-0.02-1.85,0-0.31,0-.3-0.22-0.35-0.41a3.123,3.123,0,0,0-1.9-2.41,3.655,3.655,0,0,0-4.78,1.76,8.319,8.319,0,0,0-.09,6.92,3.262,3.262,0,0,0,3.4,2.03,3.367,3.367,0,0,0,3.07-2.17,1.066,1.066,0,0,0,.07-0.19c0.4-1.03.4-1.03,1.55-1.03,1.28,0,1.27,0,.9,1.21a5.594,5.594,0,0,1-2.86,3.66c-2.91,1.4-7.33.6-8.82-3.31a9.362,9.362,0,0,1-.41-1.3A18.4,18.4,0,0,1,1137.5,5444.41Z" transform="translate(-1088.84 -5431.31)"/>
</svg>
