<svg xmlns="http://www.w3.org/2000/svg" width="19.656" height="37" viewBox="0 0 19.656 37">
  <metadata><?xpacket begin="﻿" id="W5M0MpCehiHzreSzNTczkc9d"?>
<x:xmpmeta xmlns:x="adobe:ns:meta/" x:xmptk="Adobe XMP Core 5.6-c138 79.159824, 2016/09/14-01:09:01        ">
   <rdf:RDF xmlns:rdf="http://www.w3.org/1999/02/22-rdf-syntax-ns#">
      <rdf:Description rdf:about=""/>
   </rdf:RDF>
</x:xmpmeta>
                                                                                                    
                                                                                                    
                                                                                                    
                                                                                                    
                                                                                                    
                                                                                                    
                                                                                                    
                                                                                                    
                                                                                                    
                                                                                                    
                                                                                                    
                                                                                                    
                                                                                                    
                                                                                                    
                                                                                                    
                                                                                                    
                                                                                                    
                                                                                                    
                                                                                                    
                                                                                                    
                           
<?xpacket end="w"?></metadata>
<defs>
    <style>
      .cls-1 {
        fill: #fff;
        fill-rule: evenodd;
      }
    </style>
  </defs>
  <path id="fb" class="cls-1" d="M864.9,5428.43a32.224,32.224,0,0,0-4.1-1.05c-2.755-.37-4.312.76-4.667,3.47a8.768,8.768,0,0,0,.019,3.76h6.171a17.53,17.53,0,0,1,.16,4.36h-6.51V5460h-7.03v-20.71c-1.182-.57-2.355,0-3.494-0.53a15.038,15.038,0,0,1,.021-3.93c1.113-.43,2.2-0.01,3.254-0.34a4.884,4.884,0,0,0,.194-2.31c0.109-5.85,3.107-8.89,9.079-9.19a18.145,18.145,0,0,1,6.854,1A23.745,23.745,0,0,1,864.9,5428.43Z" transform="translate(-845.344 -5423)"/>
</svg>
