<svg viewBox="0 0 565.76 233.4" xmlns="http://www.w3.org/2000/svg"><g fill="#fff"><path d="m96.94 76.78c-1.65-5.55-1.41-11.31-2-17 .49-.1.57.32.8.52s.34.36.51.53c2.72 2.76 5.44 2.88 8.42.36.63-.53 1.2-1.12 2.07-1.93a135.63 135.63 0 0 0 -.26 23.07 104.33 104.33 0 0 0 4.41 22.38c-1.45 1.64-2.74 1.59-3.88-.18-3.28-5.11-6.45-10.28-9.86-15.3a120.49 120.49 0 0 0 -11.49-15 37.48 37.48 0 0 0 -21.66-11.75 28.88 28.88 0 0 0 -17 2c-7.54 3.42-11.63 9.38-12.2 17.61a28 28 0 0 0 21.26 29c2.71.66 5.5.89 8.24 1.34 8.93 1.47 17.8 3.19 26.31 6.39 15 5.62 24.72 16.14 29.22 31.43a64.78 64.78 0 0 1 -.08 37.61c-2.65 8.83-7.9 15.87-14.85 21.74a63.41 63.41 0 0 1 -27.84 13.4 68.58 68.58 0 0 1 -19.11 1.43c-14.68-.94-28.1-5.33-39.43-15.05a51.27 51.27 0 0 1 -17.16-27.38 53.1 53.1 0 0 1  .29-25c .46-2 1-3.88 1.65-5.78a20.06 20.06 0 0 1 6.08-8.84 8.48 8.48 0 0 1 3.29-1.87 2.34 2.34 0 0 1 3.13 1.59 8.66 8.66 0 0 1  .38 3.48 32.42 32.42 0 0 1 -1.18 6.79 55.28 55.28 0 0 0 -2 15.23 36.17 36.17 0 0 0 12.56 27.3 50.29 50.29 0 0 0 23.44 11.5 62.7 62.7 0 0 0 13.69 1.38c8.78-.09 17.19-1.8 24.95-6.12a41.88 41.88 0 0 0 11.36-9.22 31.28 31.28 0 0 0 7-14.71 49.9 49.9 0 0 0 -2.26-27.57 28.24 28.24 0 0 0 -5.11-8.51c-5.85-6.87-13.29-11.1-21.9-13.48-5.47-1.51-11-2.57-16.57-3.82a92.43 92.43 0 0 1 -15.72-4.66c-12-5-19-14-21-26.74-1.57-9.71.27-18.89 6.35-26.8a31.49 31.49 0 0 1 20.7-12.4 37 37 0 0 1 10.39.05c1.84.24 3.67.55 5.49.92a33.27 33.27 0 0 1 13.57 6.36 115 115 0 0 1 14.8 13.79c.62.67 1.21 1.38 1.81 2.07z"/><path d="m336.89 218.54c-.14.59-.25 1.12-.4 1.63a5.44 5.44 0 0 1 -10.22.49 5.23 5.23 0 0 1 1.45-6.13c2.12-1.66 4.2-3.35 6.16-5.21.06-.05.18 0 .35-.06.9 1.6.42 3.4.55 5.05.7.32 1.08-.1 1.4-.41 2.32-2.28 4.44-4.71 5.34-7.94a12.13 12.13 0 0 0 -.43-7.06c-1.24-3.93-3.81-6.89-6.67-9.68a4.51 4.51 0 0 0 -.69-.44c-1.55 1.46-2.83 3.3-5.29 3.67-1.36-2.43-.94-4.93-.23-7.56-1.28-1.19-2.64-2.37-3.89-3.66a17 17 0 0 1 -4.82-9.37 12.25 12.25 0 0 1 1.5-7.79 24 24 0 0 1 2.82-4.11c.53-.63 1-1.28 1.75-2.13-1.75-.33-3.32-.68-4.48-1.86-3.37 1.49-6.45 1.51-9.16-1.25-3.45 1.19-6.7 1.37-9.2-2.14-3.21.54-6.41.74-8.34-2.85a17 17 0 0 1 -2.77-.08 6.42 6.42 0 0 1 -2.2-.77 3.31 3.31 0 0 1 -1.83-3.58l-1.63-.36a5.63 5.63 0 0 1 -1.76-.7c-1.63-1-2-2-1.46-4.23-1.69-.48-3.37-1.06-4.14-2.83-1.42-.15-2.73-.24-4-.43a45.48 45.48 0 0 1 -31.18-18.49 43.9 43.9 0 0 1 -8.18-17.87c-.63-3.22-1.8-6.3-2.38-9.53a55.76 55.76 0 0 1 -.83-7.73 1.48 1.48 0 0 1  .12-.85c.41-.26.64 0 .88.27.49.48 1 1 1.43 1.48a53.42 53.42 0 0 0 8.09 7.22c2.6 2 5.67 2.76 8.76 3.52a53.36 53.36 0 0 0 8.57 1.11c6 .49 12.09 1 18.12 1.58a55.68 55.68 0 0 1 13.12 3 49.25 49.25 0 0 0 7.48 10.15c2.83 3.08 6.47 5.1 10 7.41a1 1 0 0 1 -1.24 0c-4.81-2.21-9.95-3.15-15.12-4s-10.6-1.11-15.89-1.76c-7.49-.92-14.9-2.23-21.9-5.2a28.44 28.44 0 0 1 -8.19-4.81 3 3 0 0 0 -.46-.29c-.47.26-.28.63-.21.93a8.76 8.76 0 0 0  .49 1.38 60.92 60.92 0 0 0 12.72 19.05 38.08 38.08 0 0 0 20.15 10.42 5.35 5.35 0 0 0  .58.07h.44c3.29-1.54 6.41-1.6 9.35 1.2 9.36-.86 18.82-2 28.6-2.25a4.56 4.56 0 0 0  .48 5.58c-.24.52-.63.35-.94.35-6.75-.07-13.5-.32-20.24-.8-2.39-.17-4.78-.39-7.17-.59-.35 0-.7-.06-.91.51 2.09.83 4.48 1.48 4.18 4.6 2.18.37 4.29.87 5.23 3.26 2.78-.12 5.44.09 7 3 3-.78 5.75-.61 8 1.88 2.92-1.24 5.72-1.22 8.39.9a8.48 8.48 0 0 1 4.41-1l1.27-1.7c-1.07-.62-1.75-.61-5.41.2a10.13 10.13 0 0 0 -8-.85 9.89 9.89 0 0 0 -7.61-1.8 8.49 8.49 0 0 0 -3.95-2.42 2.52 2.52 0 0 1 1.6-.26h20.12a14.58 14.58 0 0 1 3.05.35 16.91 16.91 0 0 0 8.14-.13 7.56 7.56 0 0 1 2-.22h21.14a1.43 1.43 0 0 1 1.2.27 7.67 7.67 0 0 0 -3.86 2.38 10 10 0 0 0 -7.66 1.82 10.12 10.12 0 0 0 -8 .86c-1.71-.27-3.43-1.05-5.3-.28a8.29 8.29 0 0 0 1.54 1.71 9.19 9.19 0 0 1 4 1 7.61 7.61 0 0 1 8.41-.89c2.25-2.52 5-2.68 7.94-1.92 1.83-2.5 3.06-3 7-2.95.93-2.22 2.9-2.93 5.25-3.21-.25-3 1.89-3.86 4.18-4.57-.16-.65-.56-.6-.93-.56-4.33.48-8.68.74-13 .94-4.74.22-9.48.45-14.23.43-.19 0-.39 0-.66-.06.15-1.07 1.25-1.62 1.31-2.72s-.51-2-.94-3.14c9.61.26 19 1.37 28.35 2.24 2.87-2.79 6-2.73 9.34-1.22a36.88 36.88 0 0 0 18.36-8.37 57.81 57.81 0 0 0 13.18-17.29 44.15 44.15 0 0 0 2.35-5.16c-.33-.43-.66-.26-1-.16a6.64 6.64 0 0 0 -2.1 1c-3.43 2.58-7.38 4-11.42 5.21a93.17 93.17 0 0 1 -16.01 3.02c-6.75.78-13.53 1.36-20.22 2.61a46.72 46.72 0 0 0 -10.65 3.2c-.22.1-.45.18-.68.25 0 0-.07-.06-.26-.22a41.94 41.94 0 0 0 17.47-17.63 31.57 31.57 0 0 1 5.72-1.58 124.07 124.07 0 0 1 13.8-1.84c4.77-.45 9.57-.57 14.33-1.19 9.38-1.23 17.24-5.23 23.12-12.79.15-.19.31-.38.48-.56a2.38 2.38 0 0 1  .41-.24 18.44 18.44 0 0 1  .38 2.71 31.15 31.15 0 0 1 -.85 7.56 68.67 68.67 0 0 1 -5.89 18.23c-4.27 8.57-10.24 15.6-18.62 20.41a46.65 46.65 0 0 1 -18.88 6.08c-.58.06-1.16.16-1.88.26-.79 1.63-2.4 2.22-4 2.71.49 2.74-.46 4.2-3.13 4.89-.56.15-1.14.25-1.79.39a3.36 3.36 0 0 1 -.75 2.72 5.56 5.56 0 0 1 -3.07 1.6 11.69 11.69 0 0 1 -3 .1c-1.89 3.56-5.06 3.46-8.36 2.85-1.89 3-5.25 3.67-9.18 2.17-2.66 2.7-5.73 2.77-9.14 1.26a7.32 7.32 0 0 1 -4.72 1.74 8.16 8.16 0 0 1 -3.49 2.55 3.43 3.43 0 0 0 -1 .86l-3.74 3.68c-1.05-1.58-.78-3.25-.86-4.91-6.61 5.31-5.88 13.63-.18 19.26a5.82 5.82 0 0 0  .62-2.24 4.39 4.39 0 0 1 2.09-2.87 15.33 15.33 0 0 0 4.66-4.21c.88 1.41.76 4.5-.06 6.86s-3.07 3.49-4.45 5.25c-.06.57.22.8.67 1 1.39-.72 2.16-2.2 3.55-3.12a9.21 9.21 0 0 1  .43 6.7 9.83 9.83 0 0 0 2.57 2.49 24.94 24.94 0 0 1 7.78 10.64c1.23 3.24.42 6.35-.77 9.42a22.28 22.28 0 0 1 -6.73 8.74z"/><path d="m286.11 7.27c1.23.86 2.51 1.66 3.69 2.6 1.49 1.19 2.9 2.48 4.32 3.75a11.94 11.94 0 0 0 2.88 2.28 4.85 4.85 0 0 1 1.48 1.4c1.22 1.47 2.7 2.69 4 4.1a27 27 0 0 1 5.14 7.45c1 2.42 2.15 4.82 3 7.32a32.25 32.25 0 0 1 1.89 9.3 37.25 37.25 0 0 1 -1.34 10.27c-1.13 4.79-3.22 9.21-4.79 13.83a20.86 20.86 0 0 0 -.89 2.94c-.51 2.79-1.12 5.57-1.4 8.4a17 17 0 0 0 7 16 26.68 26.68 0 0 0 6.33 3.36c4.28 1.74 6.88-1.59 7.24-4.61a8.93 8.93 0 0 0 -.47-3.9 33.85 33.85 0 0 0 -1.65-3.92l-1.44-2.84c2.73-12.47 4.56-25.13 6.23-37.82q0 7 0 13.93a18 18 0 0 0  .24 3.36c.39 2.06 1 4 3 5.28-2.31 2.26-2.58 5-1.94 7.89.73 3.34 1.53 6.67 2.3 10 0 .18.11.36.16.53.47 0 .49-.32.55-.59q1.18-5.07 2.34-10.14a9.44 9.44 0 0 0 -.3-5.2 6 6 0 0 0 -1.72-2.4c2.69-2.17 3.18-5.12 3.21-8.23 0-4.26 0-8.52 0-12.78v-1.41h.14q.74 5.66 1.48 11.32 1.62 12.51 4.21 24.86a3.89 3.89 0 0 1 -.39 2.94 37 37 0 0 0 -1.93 4 10.34 10.34 0 0 0 -.82 5.87c.6 3.37 3.18 5.19 6.43 4.14 5.84-1.89 10.63-5.15 13.11-11.08a18 18 0 0 0 1.06-8.65 68.94 68.94 0 0 0 -1.38-8.25 47.59 47.59 0 0 0 -2.75-7.88 50.41 50.41 0 0 1 -2.7-8.19c-.31-1.43-.79-2.81-1.08-4.26a30.24 30.24 0 0 1 1.49-16.28c1-2.73 2.16-5.35 3.36-8a24.72 24.72 0 0 1 4.8-6.62c1.25-1.31 2.61-2.5 3.79-3.88a5.9 5.9 0 0 1 2.35-1.94 3.58 3.58 0 0 0 1.11-.94 56 56 0 0 1 8.25-6.81 2.17 2.17 0 0 1 1.3-.57c-.89 1.09-1.71 2.08-2.52 3.09a69.75 69.75 0 0 0 -6.79 9.71 68.54 68.54 0 0 0 -7 17 21 21 0 0 0 -.43 7.86 53.45 53.45 0 0 0 3.19 12.93 59.93 59.93 0 0 0 3.86 7.07c.88 1.53 1.72 3.07 2.56 4.62a20.29 20.29 0 0 1 2 6 43.37 43.37 0 0 1  .37 15.18 31.91 31.91 0 0 1 -7.4 15.87 43.14 43.14 0 0 1 -20.37 13.27 49.72 49.72 0 0 1 -11.43 1.7 42.14 42.14 0 0 1 -9.64-.5 43.41 43.41 0 0 1 -18.12-7.54 39.61 39.61 0 0 1 -11.64-12.83 30 30 0 0 1 -3.41-11 42.73 42.73 0 0 1  .77-15.63c.73-3.26 2.5-6 4.1-8.88a68.09 68.09 0 0 0 4.06-7.46 55.48 55.48 0 0 0 3-11.92 26 26 0 0 0 -1.16-12.13 75.65 75.65 0 0 0 -6.83-14.91 62.82 62.82 0 0 0 -6.17-8.56l-2.11-2.6z"/><path d="m187.32 223.57h-75.41l37.7-65.31 14.15 24.47c1.2-.36 2-1.15 3.07-1.52a22.92 22.92 0 0 1 2.18 3.72l-2.94 1.81 3.58 6.19c1.12-.32 1.84-1 2.91-1.41a30.19 30.19 0 0 1 2.15 3.62c-.72.8-1.8 1-2.69 1.89zm-37.6-45.2c-1.47 1.83-20 34.2-20.22 35.24h40.57c-2.32-4-4.44-7.79-6.72-11.55-1.33.45-2.26 1.38-3.57 1.76a28.79 28.79 0 0 1 -2-3.69c1-.89 2.33-1.19 3.24-2.22l-3.54-6.08c-1.26.43-2.13 1.3-3.35 1.65a28.56 28.56 0 0 1 -2.1-3.61c1-1 2.29-1.16 3.07-2.2z"/><path d="m549.92 223.59h-75.09c5-8.85 10.09-17.48 15.07-26.19-.89-1.06-2.3-1.31-3.29-2.26a20.78 20.78 0 0 1 2.14-3.72l3.5 1.9 3.57-6.15c-1-.93-2.2-1.26-3.14-2.1a27.28 27.28 0 0 1 2.11-3.75l3.35 1.84 14.18-24.53c.84.77 36.93 63.11 37.6 64.96zm-51.2-21.26c-1.76 2.37-6.15 10.26-6.28 11.26 2.15.28 39.08.17 40.12-.11-.41-1.33-19.3-34-20.26-34.94l-5.46 9.46c.86.88 2 1.1 2.78 2a32.52 32.52 0 0 1 -2.13 3.62c-1.11-.4-1.87-1.16-3-1.45l-3.5 6.05c.8.85 1.92 1 2.61 1.88-.74 1.18-1.29 2.44-2.14 3.54-1.02-.27-1.73-1.02-2.74-1.31z"/><path d="m363.83 199.52-3 1.67a29.37 29.37 0 0 1 -2.22-3.66c.89-.85 2-1.16 3-2l-3.37-5.84c-1.29.38-2.16 1.23-3.33 1.63a21.57 21.57 0 0 1 -2.15-3.74l3.17-1.91-14.83-25.67h72.9c-.25 1-34.87 61.37-36.4 63.38-4.6-7.91-9.1-15.84-13.77-23.86zm.61-18.92c1.09-.24 1.76-1 2.73-1.21a22.64 22.64 0 0 1 2.07 3.67c-.71.7-1.71.89-2.41 1.7l3.33 5.76c1.16-.25 1.88-1.11 2.94-1.31a32.49 32.49 0 0 1 2.07 3.63c-.84.78-1.87 1-2.61 1.83 1.67 2.9 3.3 5.81 5.05 8.73 1.34-1.62 19-32.38 19.17-33.43h-38.46z"/><path d="m304.6 189.69-3.4 5.86c.79.91 1.94 1.12 2.73 1.93a37.33 37.33 0 0 1 -2 3.63c-1.14-.19-1.9-1.09-3.13-1.42l-13.8 23.88c-12.27-21.28-24.4-42.31-36.62-63.55h73.16c-.73 1.61-1.64 3-2.43 4.4s-1.61 2.8-2.42 4.2l-2.49 4.32-2.42 4.2-2.49 4.32-2.41 4.21c.87.87 2 1.16 2.91 2a20 20 0 0 1 -2.1 3.75zm-12.12 1 3.4-5.91c-.8-.81-1.83-1-2.58-1.81a35.38 35.38 0 0 1 2.13-3.63c1 .32 1.73 1.06 2.66 1.28 1.17-1.38 5.83-9.64 6-10.65-2.24-.27-37.13-.16-38.34.17 6.39 11.09 12.75 22.15 19.29 33.45l5.11-8.86c-.81-.91-2-1.08-2.77-2a24.65 24.65 0 0 1 2.23-3.58z"/><path d="m429.64 173.83v24.86s0 16.51 0 24.87h-9.64l-.09-.09s-.09-.07-.09-.11c-.18-21.19 0-42.38-.08-63.57 0-.43 0-.87 0-1.27a51.93 51.93 0 0 1 9.79-.13c.35 1.4 0 2.88.23 4.29.48.34.89 0 1.27-.11a75.31 75.31 0 0 1 14.94-3.61 36.26 36.26 0 0 1 16 1c8.55 2.76 13.49 8.68 15 17.49a45.79 45.79 0 0 1 -.72 16.77 117.15 117.15 0 0 1 -9.08 26.13q-2.66 5.72-5.77 11.22c-.31.55-.65 1.09-1.07 1.81l-8.33-5a3.59 3.59 0 0 1  .69-1.58 136.52 136.52 0 0 0 12.49-29 50.92 50.92 0 0 0 2.28-15.32 21.48 21.48 0 0 0 -.81-5.5 10.32 10.32 0 0 0 -6-6.8 21.37 21.37 0 0 0 -10.06-1.55 63.86 63.86 0 0 0 -20 4.86c-.35 0-.59.13-.95.34z"/><path d="m191.64 158.31h9.53c.41 1.45 0 2.94.27 4.36.48.31.88 0 1.26-.13a74.31 74.31 0 0 1 14.94-3.6c5.74-.73 11.44-.64 16.95 1.38 7.68 2.82 12.22 8.35 13.8 16.34a42 42 0 0 1 -.14 15.18c-1.66 9.88-5.18 19.14-9.35 28.18q-2.8 6.07-6.11 11.87c-.26.46-.55.91-.9 1.51l-8.37-5.09a6.21 6.21 0 0 1  .83-1.74 135.94 135.94 0 0 0 12.52-29.35 60.42 60.42 0 0 0 2.13-11.82 25.43 25.43 0 0 0 -.31-6.44c-1-5.61-4.17-8.78-9.77-9.95a29.62 29.62 0 0 0 -9.79-.22 68.87 68.87 0 0 0 -16.53 4.42 2.29 2.29 0 0 0 -1.27.82v49.36a53.14 53.14 0 0 1 -9.72.07c-.36-1.34-.34-63.82.03-65.15z"/><path d="m280.77 143.7a7.54 7.54 0 0 0 4.73 3.3 7.35 7.35 0 0 0 1.44 2.71c-1.19.28-135.15.36-137.07.09v-5.8a3.5 3.5 0 0 1 2.1-.26h128.8z"/><path d="m512.38 144v5.75c-1.18.3-135.25.35-136.9 0a9 9 0 0 0 1.4-2.73 13.05 13.05 0 0 0 2.69-1.17 8.28 8.28 0 0 0 2-2c2.24-.3 129.57-.2 130.81.15z"/><path d="m404.83 52.45c-1.86-.2-3.54.56-5.26 1s-3.4.91-5.09 1.41a51.92 51.92 0 0 0 -5.1 1.83 45.47 45.47 0 0 1 -4.71 2.14 4.4 4.4 0 0 1 1.89-2.9c1.91-1.52 3.88-3 5.94-4.31a103 103 0 0 1 17-8.57 3 3 0 0 1  .83-.26 7.07 7.07 0 0 1 1.88-.11 2.12 2.12 0 0 1  .93 1.45 8.39 8.39 0 0 1  .21 1.45c.33 9-1 17.75-4.9 26a43.93 43.93 0 0 1 -17.28 18.7 62.89 62.89 0 0 1 -17.08 7.24 3 3 0 0 1 -1.36.16c-.11-.82.4-1.48.57-2.19a8.42 8.42 0 0 1 1.84-1.24c3.72-2.27 7.41-4.58 10.93-7.15a62.12 62.12 0 0 0 7.47-6.38 39 39 0 0 0 10.59-20.4 29 29 0 0 0  .95-6.07 3.75 3.75 0 0 0 -.25-1.8z"/><path d="m257.81 52.45c1.86-.2 3.54.56 5.26 1s3.4.91 5.09 1.41a51.92 51.92 0 0 1 5.1 1.83 45.47 45.47 0 0 0 4.74 2.16 4.4 4.4 0 0 0 -1.89-2.9c-1.91-1.52-3.88-3-5.94-4.31a103 103 0 0 0 -17-8.57 3 3 0 0 0 -.83-.26 7.07 7.07 0 0 0 -1.88-.11 2.12 2.12 0 0 0 -.93 1.45 8.39 8.39 0 0 0 -.21 1.45c-.33 9 1 17.75 4.9 26a43.93 43.93 0 0 0 17.28 18.7 62.89 62.89 0 0 0 17.08 7.24 3 3 0 0 0 1.36.16c.11-.82-.4-1.48-.57-2.19a8.42 8.42 0 0 0 -1.84-1.24c-3.72-2.27-7.41-4.58-10.93-7.15a62.12 62.12 0 0 1 -7.47-6.38 39 39 0 0 1 -10.59-20.4 29 29 0 0 1 -.95-6.07 3.75 3.75 0 0 1  .22-1.82z"/><path d="m294.92 25.09c2.33 3.43 3.21 7.15 4.44 10.66-1.59 2.36-3.09 4.59-4.6 6.81a43.12 43.12 0 0 0 -7.2 19 31.2 31.2 0 0 0  .62 11.51 8.69 8.69 0 0 1  .2 3.45 46.16 46.16 0 0 0 -.73 9 1.88 1.88 0 0 1 -.14.49 2.89 2.89 0 0 1 -.93-1.29 44.28 44.28 0 0 1 -5.63-23.66 54.2 54.2 0 0 1 10.05-30.68c1.24-1.75 2.44-3.52 3.92-5.29z"/><path d="m363 36.47c1.29-3.7 2.14-7.53 4.26-10.8.51-.05.62.27.78.49 5.9 8.05 10.53 16.69 12.37 26.64a46 46 0 0 1 -4.24 30.35 4.77 4.77 0 0 1 -1 1.53c-.37-.22-.27-.58-.28-.89a51.94 51.94 0 0 0 -1.22-9.73 3.2 3.2 0 0 1 0-1.45 33.52 33.52 0 0 0 -2-20.82 67.32 67.32 0 0 0 -7.32-13.35z"/><path d="m422.83 63.19c.06 1.44.13 2.89.19 4.35a45.61 45.61 0 0 1 -1 13.55 12.89 12.89 0 0 1 -9.65 9.83 59.1 59.1 0 0 1 -10.26 1.68c-3.65.35-7.31.61-11 .89a2 2 0 0 1 -1.33-.11c0-.84.67-1.11 1.22-1.45a74.3 74.3 0 0 0 8.92-6.42 86.78 86.78 0 0 0 10.95-11c3.1-3.73 6.5-7.18 9.84-10.68.8-.83.84-.83 2.12-.64z"/><path d="m239.83 63.19c-.06 1.44-.13 2.89-.19 4.35a45.61 45.61 0 0 0 1 13.55 12.89 12.89 0 0 0 9.65 9.83 59.1 59.1 0 0 0 10.26 1.68c3.65.35 7.31.61 11 .89a2 2 0 0 0 1.33-.11c0-.84-.67-1.11-1.22-1.45a74.3 74.3 0 0 1 -8.92-6.42 86.78 86.78 0 0 1 -10.95-11c-3.1-3.73-6.5-7.18-9.84-10.68-.79-.83-.83-.83-2.12-.64z"/><path d="m52.39 152.39a5.49 5.49 0 0 1 4.37-5.59 6.47 6.47 0 1 1 2 12.77 10.38 10.38 0 0 1 -5.4-19.91c.39-.16.87-.19 1.14-.6-3.19-1.36-9.8 3-11.75 7.77a12.2 12.2 0 0 0  .67 11.29 13 13 0 0 0 9.31 6.28c-.45.28-.84.1-1.24 0-8.57-1.4-12.26-10.4-9.89-17.08a14.53 14.53 0 0 1 6.35-7.8c.4-.24 1-.3 1.09-.87-.19-.48-.69-.53-1-.77a4.32 4.32 0 0 1 -1-6.2 5.54 5.54 0 0 1 6.13-2.07 12 12 0 0 1 5.69 3.72c.36.36.59.89 1.3 1.1.22-1.05-.25-2-.21-2.91a14.43 14.43 0 0 1  .27-3.06 8.43 8.43 0 0 1 1-2.7.5.5 0 0 1  .56.21 1.33 1.33 0 0 1 -.19.83 12.23 12.23 0 0 0 3.73 14.29 16.57 16.57 0 0 1 5.88 9.4 18.38 18.38 0 0 1 -11.86 21.19 19.58 19.58 0 0 1 -21.57-6.18 17.92 17.92 0 0 0 -9.34-6.29 10.68 10.68 0 0 0 -7.33.33 8.17 8.17 0 0 0 -5 9 7.12 7.12 0 0 0 8.69 5.59 4.23 4.23 0 0 0 3.41-3.6 4 4 0 0 0 -2.37-4.31 4.12 4.12 0 0 1 -.38-.26 4.47 4.47 0 0 1 2.86 6.9 6.74 6.74 0 0 1 -7.32 2.45 8.46 8.46 0 0 1 -6.09-10.61c.13-.52.29-1 .42-1.47-.11-.51-.55-.17-.74-.43a1.58 1.58 0 0 1 0-1.37c1.65-.15 2.89-1.27 4.26-2.21 3-2.06 6.25-2 9.58-1.14a15.47 15.47 0 0 1 4.85 2.38c.39.27.73.65 1.24.66.32-.44 0-.79-.08-1.14a29.21 29.21 0 0 1 -1.68-12.57c.26-3.34.22-6.74 1.31-10 1.39-4.15 3.28-8 6.74-10.79a13.34 13.34 0 0 0 3.28-4.62c.17-.34.22-.77.63-.93.43.1.38.34.24.66a11.7 11.7 0 0 0 -1.12 2.48 35 35 0 0 1 4.55-1.85 7.14 7.14 0 0 1 2 .67 3.89 3.89 0 0 1 -1.22.48 21.34 21.34 0 0 0 -15.16 20.49 86.28 86.28 0 0 0  .25 9.53c1 8.12 5.06 14 12.91 16.83a17.22 17.22 0 0 0 22.84-13.36 15.87 15.87 0 0 0 -7.3-16.4c-3.45-2.18-7.08-1.8-10.37.41a9.07 9.07 0 0 0 -4.15 9.54 9 9 0 0 0 7 7.51 7.68 7.68 0 0 0 4.07 0 5.44 5.44 0 0 0 4.13-5.26 5.43 5.43 0 0 0 -10.25-2.32 6.43 6.43 0 0 0 -.74 1.91zm9-14a .57.57 0 0 0 -.09-.55 22.59 22.59 0 0 0 -6.06-5.84 8.2 8.2 0 0 0 -2.41-1 4.59 4.59 0 0 0 -5.45 2.56 3.33 3.33 0 0 0  .72 3.44 2.91 2.91 0 0 0 3.11 1.13 15.51 15.51 0 0 1 9.22.22c.32.14.63.33.95.07z"/><path d="m221.11 124.15a34.46 34.46 0 0 1 17.51-6.66c-3 2.4-6.47 4.18-8.83 7.3a1.87 1.87 0 0 0  .26.45c4.6 4.06 9.45 7.76 15.22 10.06a34.48 34.48 0 0 0 10.7 2.33c5 .32 10 .62 14.9 1.21a1.1 1.1 0 0 1  .84.38 3.18 3.18 0 0 1 -2.13 1.29 38.66 38.66 0 0 1 -4.48.75 57.05 57.05 0 0 1 -12.23 1.28 41.9 41.9 0 0 1 -14-2.69 33.59 33.59 0 0 1 -13-9c-1.18-1.31-2.32-2.65-3.46-4a4 4 0 0 1 -1.3-2.7z"/><path d="m391.2 139.09c2.48-.29 4.81-.53 7.13-.85 2.77-.37 5.57-.28 8.35-.5a36.9 36.9 0 0 0 16.43-5.37 67.28 67.28 0 0 0 6.81-4.85 9.41 9.41 0 0 0 2.53-2.81c-2.23-3.28-5.86-4.84-9.07-7.07 3.64-1 15.58 3.76 18 7a1.69 1.69 0 0 1 -.44.91c-5.9 8.78-13.9 14.51-24.42 16.28a48.85 48.85 0 0 1 -24.16-2.09 2 2 0 0 1 -1.16-.65z"/><path d="m331.23 0c .33.18.21.51.22.78.62 8.63 1.09 17.28 1.91 25.89.67 7.08.76 14.15.73 21.25v13.94a9.91 9.91 0 0 1 -.66 3.87 3.78 3.78 0 0 1 -.24.54c-.49.8-1 1.69-2.05 1.64s-1.56-.92-2-1.76a8.44 8.44 0 0 1 -.83-3.69c0-9.1-.05-18.2 0-27.3 0-2.88.43-5.75.66-8.63.36-4.48.72-9 1.07-13.45.32-4.24.62-8.49.93-12.73.09-.14.08-.29.26-.35z"/><path d="m439.39 181c-3.29.3-6.16-.35-8.51-2.77a1.26 1.26 0 0 1  .11-1.38c.51.41 1 .81 1.49 1.19a7.72 7.72 0 0 0 10.89-1.24 6.85 6.85 0 0 0 1.45-5.65c0-.19-.05-.39-.07-.58 0 0 0-.09.08-.24a4.17 4.17 0 0 1 2-.31 9.77 9.77 0 0 0 5.72 3.14 10.55 10.55 0 0 0 6.33-1.18c-.94 1.33-3.76 2-6.45 1.75-1.74-.19-2.38-.53-6-3.17-.42.22-.21.6-.2.91a8.67 8.67 0 0 1 -4.07 8.25c-.2.13-.45.22-.52.48a1 1 0 0 0 0 .23c.56.27 1.2.05 1.8.08a7.19 7.19 0 0 1 5.82 3.19 4.7 4.7 0 0 1  .84 3.05 3 3 0 0 1 -2.47 3 1.68 1.68 0 0 1 -1.47-1c1.77 1.08 3.11.41 3.28-1.69a4.59 4.59 0 0 0 -1.54-3.82 7 7 0 0 0 -8.31-.74 6.49 6.49 0 0 0 -2.54 7.73 9.67 9.67 0 0 0 4.16 5.15 15.71 15.71 0 0 0 10.84 2.17 4.31 4.31 0 0 0 1.12-.32 16.22 16.22 0 0 1 7.47-1.16 4 4 0 0 0 1.78-.09c-.13-.62-.64-.78-1-1.05a17.5 17.5 0 0 1 -4.25-4.22c-3.83-5.63-2.25-12.08 2.22-16 .28-.25.54-.58 1-.57s.31.36.31.65a13.59 13.59 0 0 0 -2.87 3.08 10.87 10.87 0 0 0 1.33 13.76 25.37 25.37 0 0 0 5.13 4c .27.55-.11.9-.15 1.31a2.24 2.24 0 0 1 -.51 0 18.2 18.2 0 0 0 -7.86.33 16.9 16.9 0 0 0 -9.63 6.79 19.58 19.58 0 0 1 -4 4.62 9.4 9.4 0 0 1 -1.2 2.79c2-.1 3.82-.61 5.67-.24a15.6 15.6 0 0 1 4.88 2.18c.39-.6 0-1-.12-1.46a11.56 11.56 0 0 1 -.56-4 5 5 0 0 1 2.42-4.14 3.49 3.49 0 0 1 5.38 2.64c0 .28 0 .59.25.85.73.19 1.13-.69 1.84-.67.21.6-.24.8-.58 1a10.75 10.75 0 0 0 -2.35 2.2 2.61 2.61 0 0 0 -.71 1.42c.93-.23 1.37-1.18 2.34-1.27 0 .56-.47.68-.78.9a7.66 7.66 0 0 0 -3.41 5.42 6.69 6.69 0 0 0 0 2c .1.54.15 1.06-.43 1.45-.36-.32-.36-.78-.49-1.17a10 10 0 0 0 -9.51-7 9.82 9.82 0 0 0 -9.23 7.11 10.51 10.51 0 0 0  .86 8.65 6.53 6.53 0 0 0 5.14 3.69 9.92 9.92 0 0 0 3 .33 7 7 0 0 0 5.21-8.54 6.93 6.93 0 0 0 -8.08-5.14 6.21 6.21 0 0 0 -4.76 5.48 5.7 5.7 0 0 0 4.13 5.59 7.19 7.19 0 0 0 3.57-.21 5.68 5.68 0 0 1 -8.31-4.59c-.42-4.42 3.11-7.6 7.53-7.35a8.08 8.08 0 0 1 6.82 5.85 8.17 8.17 0 0 1 -2.87 8.52 6.5 6.5 0 0 1 -3.74 1.09c-5.26.24-8.7-2.16-9.73-7.51a11.13 11.13 0 0 1 3.79-11.24c.21-.18.51-.33.41-.83a8.71 8.71 0 0 1 -3.12-.83 12.66 12.66 0 0 1 -2.51-2.44c-.46 2.61-.43 5.05-1.73 7.16.61-2.8 1.63-5.53 1.25-8.69-.88.67-.89 1.7-1.64 2.29a1.55 1.55 0 0 1  .07-1.59 7.78 7.78 0 0 0 0-8.6.6.6 0 0 1 0-.75 6.07 6.07 0 0 1 1.55 3.36 11.78 11.78 0 0 1  .1 2.49 6.84 6.84 0 0 0 2.18 5.55 4.37 4.37 0 0 0 4.34 1.11 2.73 2.73 0 0 0 2-2c-.62-.29-1.23 0-1.83 0a4 4 0 0 1 -4-2.12 3.79 3.79 0 0 1  .35-4.4 3.71 3.71 0 0 1 3.67-1.4c-2.13.37-3.52 1.24-3.82 3.21a3.38 3.38 0 0 0 1.9 3.48 3.42 3.42 0 0 0 3.79-.48c-.45-1.54-1.11-1.88-3.29-1.69 1.43-.83 1.73-.76 4.15 1 .67 0 1-.58 1.33-1 .59-.72 1.11-1.49 1.65-2.24a20.89 20.89 0 0 1 4.76-5c .23-.17.52-.3.52-.66-.18-.42-.56-.3-.89-.3a21.18 21.18 0 0 1 -4.23-.31 12.76 12.76 0 0 1 -7.5-4.55 8.19 8.19 0 0 1 -1.4-8.15 6.31 6.31 0 0 1 2.22-3 1.78 1.78 0 0 0 1-.93zm14.75 34.85a3.64 3.64 0 0 0  .52-1.44 13.23 13.23 0 0 1 2.93-5.48 2.55 2.55 0 0 0  .16-3.56 2.86 2.86 0 0 0 -3.65-.87 4.07 4.07 0 0 0 -2.23 3.54 14.57 14.57 0 0 0 1.93 7.68c.05.07.2.07.35.13z"/><path d="m230.09 209.64h-.78a6.1 6.1 0 0 1 -5.43 2.92c.19.87.89 1.08 1.27 1.56s.81.86 1.15 1.33a17.18 17.18 0 0 1 1 1.63c.3.53.5 1.07 0 1.59-.44-.11-.43-.5-.55-.79a9.63 9.63 0 0 0 -9.62-6.11 9.74 9.74 0 0 0 -9 7.91 13.45 13.45 0 0 1 -8.32 9.93 14.27 14.27 0 0 1 -17.08-4.6c.28-.43.66-.36 1-.11a13 13 0 0 1  .95.92c6.62 6.2 15.79 4.92 20.58-1.59a11.59 11.59 0 0 0 2.26-6.71 7.45 7.45 0 0 0 -3.83-6.81l-1.11-.69s0-.09 0-.26c1.27 0 1.93 1.13 3.1 1.63-.49-1.94-2.22-2.73-3.2-4 .25-.44.46-.28.67-.17a.75.75 0 0 0  .7.12c.29-.24.23-.61.26-.94a3.52 3.52 0 0 1 5.59-2.39 4.71 4.71 0 0 1 2.1 3.39 10.51 10.51 0 0 1 -.42 4.5c-.15.5-.28 1-.45 1.57.57-.18 10.21-2 10.63-2a14.67 14.67 0 0 1 -.94-2.63 17.8 17.8 0 0 1 -3.76-4.27 17 17 0 0 0 -12.89-7.71c-.46 0-1 0-1.35-.38.07-.45.42-.35.68-.36a13 13 0 0 1 5.6.94c4.1 1.79 11.59.31 14.87-3.57a8.39 8.39 0 0 0 2.26-5.73 6.3 6.3 0 0 0 -4.34-5.86 7 7 0 0 0 -7.37 1.9 4.75 4.75 0 0 0 -1.07 2.68c-.12 1.75.61 2.72 2.52 3.12a1.78 1.78 0 0 1 -2.23-.51 3.64 3.64 0 0 1 -.92-3.26 6.85 6.85 0 0 1 6.44-5.26 6.05 6.05 0 0 0 2.16-.13c-.91-1-2.13-1.54-2.86-2.58a10.4 10.4 0 0 1 -1.65-3.41 13.86 13.86 0 0 1 -.15-3.87 3.09 3.09 0 0 0 -1.52 1 8.93 8.93 0 0 1 -8.92 1.76c.07-.44.37-.35.66-.29a9.06 9.06 0 0 0 8.09-2c1-.82 2.07-.66 3-1 .3.42.12.7.09 1-.42 3.39.85 6.23 3.59 7.73a7.73 7.73 0 0 0 8.7-.66 13.64 13.64 0 0 0 3.35-3.66l.87-1.3c.43-.12.56.18.84.53-2.55 4.67-5.91 8.05-11.77 7.4-.19.45 0 .6.22.71 3.45 1.9 4.68 7.85 1.1 11.85a13.25 13.25 0 0 1 -9.53 4.53 15.44 15.44 0 0 0 -3.21.2c1.21 1.14 2.37 1.86 3.27 2.85a40.09 40.09 0 0 1 2.58 3.19 9.93 9.93 0 0 0 2.78 3.1c1.06-1.1 2.12-2.17 3.82-1.37-1.36 0-2.57.26-3.07 1.7a3.23 3.23 0 0 0 3.76.7 3.68 3.68 0 0 0 2.08-3.39c-.18-1.76-1.45-2.89-3.73-3.32a3.73 3.73 0 0 1 4.33 3.3 4 4 0 0 1 -3.42 4.53 5.74 5.74 0 0 1 -1.61 0 2.06 2.06 0 0 0 -1.28 0 3.08 3.08 0 0 0 3.59 2.21 5.45 5.45 0 0 0 4.21-3.29 8.56 8.56 0 0 0  .64-4.16 8.65 8.65 0 0 1 3.13-7 8.45 8.45 0 0 1 2.23-1.4c.22-.1.45-.2.66.1-.16.47-.65.53-1 .72-4.27 2.28-5.81 7.54-3.57 11.29.24.4.44.77.07 1.21-.46 0-.49-.37-.65-.64s-.2-.56-.54-.73a1.56 1.56 0 0 0 -.21 1.74zm-21.46 6.22a13.75 13.75 0 0 0 2.16-8 4.26 4.26 0 0 0 -2.27-3.38 2.91 2.91 0 0 0 -3.65.91 2.81 2.81 0 0 0 0 3.38 12.63 12.63 0 0 1 3.28 6.26c.08.32.11.68.48.83z"/><path d="m192.56 136.56c.1-.41.49-.44.78-.59 3.1-1.61 4.56-4.57 3.74-7.62a6.88 6.88 0 0 0 -7.18-5.28c-4.87.21-8.32 5.15-7 10.09a8.79 8.79 0 0 0 7.42 6.61 8.51 8.51 0 0 0 8.62-4.34 9 9 0 0 0  .32-7.94c-2.06-5-6.05-7.56-11.31-8.08a11.72 11.72 0 0 0 -10.77 4.5 12.17 12.17 0 0 0 1.48 16.61c.65.58 1.29 1.18 2 1.85a1.52 1.52 0 0 1 -1.35.18 15.56 15.56 0 0 1 -5.37-11.87 12.74 12.74 0 0 1 12.06-12.45 14.63 14.63 0 0 1 11.6 4.29 11.79 11.79 0 0 1 3.75 8.49.92.92 0 0 0  .3.76 12.79 12.79 0 0 1 8 .59 34.07 34.07 0 0 0 -4.45-.5 5 5 0 0 0 -2.71.44 1.93 1.93 0 0 0 -1.17 2 1.77 1.77 0 0 0 1.87 1.34 4.06 4.06 0 0 0 1.45-.13 28.3 28.3 0 0 1 7.36-1.51 2.06 2.06 0 0 0  .53-.19c-.05-.13-.06-.25-.12-.3s-.42-.25-.75-.43c.2-.51-.19-.89-.45-1.34a4.65 4.65 0 0 1 -.46-3.82 3.44 3.44 0 0 1 5.21-2.19.86.86 0 0 0  .68.24c.33-.36.05-.71 0-1.07a6.49 6.49 0 0 1 1.35-5.91 5 5 0 0 1 7.89.06c.18.23.36.46.23.77-.39.34-.64.08-.88-.17a4.07 4.07 0 0 0 -5.47-.48 4.77 4.77 0 0 0 -1.69 5.61 6.6 6.6 0 0 0 4 4.05 2.64 2.64 0 0 1 1.83 1.65 7 7 0 0 1 -3.48-.92c-1.12-.51-1.87-1.54-2.91-2.17-.52.74-.19 1.84-1.16 2.3-.12-.32.09-.51.21-.69.91-1.39-.6-3.12-1.88-3.25a3.1 3.1 0 0 0 -3.18 1.87 5.35 5.35 0 0 0 1.88 6.14 6.45 6.45 0 0 0 1.67.92 8.62 8.62 0 0 1 5.79 7c0 .23 0 .49.38.69.79-.86.94-2.06 1.5-3s1.13-2.17 1.76-3.22a15.33 15.33 0 0 1 2-2.79c.35.05.49.17.63.55-1 1.31-1.5 3.11-3 4.35.07 1.54-.87 2.81-1.27 4.25a4.54 4.54 0 0 1 -2.14.09c-.36-.35-.27-.77-.35-1.15a7.85 7.85 0 0 0 -6.47-6.56 5.31 5.31 0 0 0 -6.2 6.52c.08.37.4.69.23 1.11-1-.71-1.11-1.46-.52-5-1.12.42-1.81 1.65-2.18 3.88a3.15 3.15 0 0 1  .27-2.26 6.85 6.85 0 0 1 1.35-2.08c.57-.58 1.17-1.14 1.75-1.7-.4-.45-.71-.24-1-.14-.46.15-.93.3-1.39.46-1.79.64-3.57 1.24-5.07-.36-.66.21-.74.69-1 1.06a9.89 9.89 0 0 1 -10.6 4.62 10.29 10.29 0 0 1 -8.05-8.35 9 9 0 0 1 6.65-10.44 7.76 7.76 0 0 1 9.79 8.55 6.52 6.52 0 0 1 -4.11 5.31c-.4.18-.82.29-1.24.44z"/><path d="m319.08 135.6c.95-4.57 6.14-8.72 12-8.75a12.66 12.66 0 0 1 12.57 9 13.14 13.14 0 0 1 -3.66 3.89c-4.67 3.33-12.51 3.83-17.64-.06a9.91 9.91 0 0 1 -3.27-4.08zm7.13-3.67a5.29 5.29 0 1 0 10 3.26 3.71 3.71 0 0 0 -.88-3.41c-.22-.23-.51-.51-.86-.13 1 2.34.8 4.21-.61 5.37a4.19 4.19 0 0 1 -4.93.18c-1.66-1.13-1.87-2.42-.89-5.65a2.35 2.35 0 0 0 -1.84.38zm8.18 8.52c2.56-.16 6.33-2.61 7.13-4.7a10.93 10.93 0 0 0 -3.68-3c-.74 5.84-.3 4.37-3.46 7.7zm-13.73-4.36a11.69 11.69 0 0 0 6.39 4.1 9.85 9.85 0 0 1 -2.39-3.08 12.49 12.49 0 0 1 -.55-4 8 8 0 0 0 -3.45 2.98zm18.07-4.77c-3.77-4.17-13.47-3.91-16.79 1.21a18.23 18.23 0 0 1 8.19-3c2.87-.24 5.63.63 8.6 1.8z"/><path d="m130 129.87c4.17-.08 6.69 4.21 6 7.65a7.59 7.59 0 0 1 -6.18 5.93 10.17 10.17 0 0 1 -9.43-2.81c-.24-.24-.49-.47-.75-.69-.05 0-.18 0-.27 0 .61 4.55 7.56 8.58 13.53 7.69 8.21-1.22 11.43-9 10.43-14.87a9.84 9.84 0 0 1  .36 5 13.11 13.11 0 0 1 -12.25 10.75 14 14 0 0 1 -14.05-10.07c-.15-.51 0-1.21-.67-1.52-.6.34-.12 1.08-.62 1.45a1.81 1.81 0 0 1 -.72-1.05 37.51 37.51 0 0 1 2.17-8.87c-1.39.62-1.83 1.76-2.56 2.59s-1.36 1.76-2 2.61a.77.77 0 0 1 -.5-.59c.5-1.09 1.68-1.77 2.33-3.06-1.64.12-3.07.79-4.64.46a3 3 0 0 1 -.92-1c .15-.25.35-.15.53-.14a11.05 11.05 0 0 0 10.21-4.14 18.35 18.35 0 0 1 8.93-5.85 2.15 2.15 0 0 1  .42-.12c6.48-.75 12.72 1.28 16.24 7.92a22.53 22.53 0 0 1 2.39 9.15 75.4 75.4 0 0 1 0 8.93 44.73 44.73 0 0 0  .94 12 2.24 2.24 0 0 1 -.93 1.28 15.55 15.55 0 0 1 -1.1-5.12 58.1 58.1 0 0 1 -.18-7.33 70.26 70.26 0 0 0 -.12-10.41 24.62 24.62 0 0 0 -1.78-6.93c-3.24-7.66-11.35-10.09-18.21-7.19a13.72 13.72 0 0 0 -7.48 7.3 9.66 9.66 0 0 0 6.79 13.26 7.82 7.82 0 0 0 6.07-.9 5.94 5.94 0 0 0 -.78-10.76c-.38-.17-.88-.12-1.2-.55z"/><path d="m514.38 159.18c-.52-.23-.58-.76-.86-1.17 1.33-5.1 1.32-10.28 1-15.46a39.79 39.79 0 0 1  .94-11.18 16.79 16.79 0 0 1 3.39-6.93 13.43 13.43 0 0 1 7.39-4.75 18.09 18.09 0 0 1 2.14-.51 14.06 14.06 0 0 1 6 .47 17.13 17.13 0 0 1 5.82 3 15.7 15.7 0 0 1 5.18 8.31 9.55 9.55 0 0 1 -.11 5.22 4.8 4.8 0 0 0 -.31 1.42 8.86 8.86 0 0 1 -2.45 5.82 13.41 13.41 0 0 1 -19.23 2 12.21 12.21 0 0 1 -4.26-12.05c-.16 4.1.84 7.83 3.77 10.84a12.23 12.23 0 0 0 8.43 3.61c5.14.28 11.3-3.75 12-7.91-.62.07-.87.59-1.24.93a10 10 0 0 1 -10.48 2.28 7 7 0 0 1 -4.48-9.42 6.35 6.35 0 0 1 5.53-3.93c-.24.5-.66.47-1 .6a6 6 0 0 0 -4 5.6 6 6 0 0 0 3.91 5.7 9.54 9.54 0 0 0 11.92-12.91 13.77 13.77 0 0 0 -10.9-8.18 13.3 13.3 0 0 0 -14.89 8.55 24.89 24.89 0 0 0 -1.75 8.28c-.17 4.26.09 8.51 0 12.77a30.82 30.82 0 0 1 -.92 7.41 3.18 3.18 0 0 1 -.54 1.59z"/><path d="m449.93 133.52c.25.47.71.48 1.15.5a24.81 24.81 0 0 1 6.58 1.41 4.47 4.47 0 0 0 2.17.19 1.69 1.69 0 0 0 1.49-1.24 1.67 1.67 0 0 0 -.74-1.79 4.15 4.15 0 0 0 -3.06-.72c-1.3.1-2.6.13-3.9.29a11.73 11.73 0 0 1 7.3-.36.78.78 0 0 0  .43-.82 11.86 11.86 0 0 1 4.83-9.47 14.4 14.4 0 0 1 13-2.88 12.52 12.52 0 0 1 9.38 14.56 15 15 0 0 1 -4.28 8.34c-.31.31-.61.64-.93 1a1.37 1.37 0 0 1 -1.19 0 7.56 7.56 0 0 1 1.81-1.88 12.1 12.1 0 0 0 1.35-16.91c-3.47-4-8-5.2-13-3.83-4.82 1.31-8.18 4.31-9.35 9.35a8.61 8.61 0 0 0 13.7 8.74 8.5 8.5 0 0 0  .6-13.1 7.43 7.43 0 0 0 -8.09-1.08 7.12 7.12 0 0 0 -3.78 6.92 6.72 6.72 0 0 0 2.69 4.55c.29.24.7.34 1 .89a6.17 6.17 0 0 1 -3.8-3.52 7.65 7.65 0 0 1 6.38-10.55 9 9 0 0 1 9.15 12.21 9.61 9.61 0 0 1 -8.25 6.81 9.5 9.5 0 0 1 -10-5c-.17-.29-.26-.64-.63-.84-.1 0-.29 0-.38 0-1.26 1.15-2.65 1-4.13.54a11.83 11.83 0 0 0 -3.09-.87c0 .74.59.92.95 1.26a7.18 7.18 0 0 1 2.51 5.42 2.68 2.68 0 0 1 -.1.42 7.19 7.19 0 0 0 -2.4-5.09c.31 2.05 1 3.88-.29 5.66-.33-.55-.07-.85 0-1.16a5.29 5.29 0 0 0 -6.08-6.7 7.76 7.76 0 0 0 -6.43 6.23 4.46 4.46 0 0 1 -.37 1.39s-.09 0-.14 0a8 8 0 0 1 4.88-7.45 18.77 18.77 0 0 0 3-1.56z"/><path d="m310.76 214.42c2.6-.22 4.38.83 5.18 2.94a5.08 5.08 0 0 1 -7.69 5.92 6.81 6.81 0 0 1 -3-6.19 8.23 8.23 0 0 1 13.25-6.59c.38.26.65.72 1.2.76-.87-3.27-6-5.88-10.26-5.32a9.93 9.93 0 0 0 -6.91 4c-1.54 2-1.94 3.76-1.92 7.78-1-2.65 0-6.58 2.39-9.1a10.74 10.74 0 0 1 7.27-3.39 12.12 12.12 0 0 1 7.54 2.2c.47-.43.38-.91.48-1.32a3.44 3.44 0 0 1 4.87-2.5 4.51 4.51 0 0 1 2.78 3.85 10.06 10.06 0 0 1 -.61 4.9c-.13.34-.4.69-.2 1.09.6.18.88-.42 1.37-.48.22.35-.15.4-.3.51a9.3 9.3 0 0 0 -3.79 5.74 15.71 15.71 0 0 1 -3 6.45 14.49 14.49 0 0 1 -18.63 2.88 15.38 15.38 0 0 1 -6.28-18.34c.35-1 .81-1.89 1.14-2.86.43-1.28 1.55-2 2.37-2.91a12.59 12.59 0 0 1 2.85-2.41 1.61 1.61 0 0 1  .87.31c.06.17 0 .28-.15.36a20.55 20.55 0 0 0 -3.27 2.93 14.54 14.54 0 0 0  .14 19.66c3.59 3.87 8.11 5.41 13.33 4.05a12.69 12.69 0 0 0 9.72-9.94 7.72 7.72 0 0 0 -6.46-9.74 7.19 7.19 0 0 0 -7.31 3.07 7 7 0 0 0 -.61 7.76 4.62 4.62 0 0 0 3.48 2.66 4.16 4.16 0 0 0 4.65-2.74 4.27 4.27 0 0 0 -1.74-5.13 6.85 6.85 0 0 0 -2.75-.86zm12.08 1.44c.82-.5.59-1.8 1.71-2a1.44 1.44 0 0 1 -.09-1.43 18.25 18.25 0 0 0  .54-2.43 5.78 5.78 0 0 0 -.7-4.09 3.35 3.35 0 0 0 -3.77-1.56 2.8 2.8 0 0 0 -1.2 4.62 13.72 13.72 0 0 1 3.06 6.38.64.64 0 0 0  .45.51z"/><path d="m61.67 88.17c-.84 2.64-3.18 3.56-5.37 2.42-3.7-1.93-4.2-7.42-.94-10.25a8.18 8.18 0 0 1 3.21-1.7l1.26-.33.11-1.23a10.51 10.51 0 0 1 -1.64-3.88 6.43 6.43 0 0 1 2.1-6.37 4.15 4.15 0 0 1 5.39-.18c2 1.64 1.68 4.15-.62 5.38-.14-.39.25-.41.4-.57a2.5 2.5 0 0 0  .66-2.82 2.79 2.79 0 0 0 -2.43-1.86 3.82 3.82 0 0 0 -3.66 1.73 6.27 6.27 0 0 0 -1 4.05 9.52 9.52 0 0 0 2.15 5.21 3.36 3.36 0 0 0 1.55 1.07c3.52 1.34 5 4.15 5.57 7.65a11.88 11.88 0 0 1 0 3.07 2.72 2.72 0 0 0 0 1.5c.47.19.62-.13.8-.33a25.47 25.47 0 0 1 7.55-5.51c1.57-.8 3.15-1.56 4.74-2.34a32.73 32.73 0 0 0 6.36-4c .42 0 .53.22.7.48-.61.93-1.72 1.34-2.61 2.26 1.67.64 3.46-.47 5 .65a.68.68 0 0 1 -.68.26 15.33 15.33 0 0 0 -8.45 1.26 46.77 46.77 0 0 0 -8.48 4.64 15.39 15.39 0 0 0 -7 13.75 12.91 12.91 0 0 1  .22 2.27.6.6 0 0 1 -.88 0 14.47 14.47 0 0 1  .87-9.28 15.35 15.35 0 0 0 1.32-7.15 9.41 9.41 0 0 0 -3.36-7.02 6.47 6.47 0 0 0 -8.59.21 5.8 5.8 0 0 0 -.66 7.61c1.74 2.26 4.36 2.09 6.41-.65z"/><path d="m92.44 188.86c-1.44 3.06-3.83 5-6.28 7 2.32.33 4.63-.2 6.82.58.06.47-.3.55-.65.71a17 17 0 0 0 -12.81 2c-1.05.62-2.16 1.14-3.24 1.71a20.88 20.88 0 0 0 -6.75 5.31 3 3 0 0 1 -1.7 0c-.27-.43-.06-.81 0-1.19a13.31 13.31 0 0 0 -.84-6.62 7.82 7.82 0 0 0 -3.4-3.91 6.52 6.52 0 0 0 -7.84 1.11 5.82 5.82 0 0 0 -.78 6.93 3.8 3.8 0 0 0 3.64 2 3.25 3.25 0 0 0 3-2.46 3.07 3.07 0 0 1  .21-.41c-.29 3.17-3.31 4.57-6 2.8a6.27 6.27 0 0 1 -2.12-7.46 6.68 6.68 0 0 1 4.91-4.22 3.65 3.65 0 0 0 1.15-.32c.23-.3.2-.7.34-1.14a8.84 8.84 0 0 1 -1.87-6 5.89 5.89 0 0 1 2.76-4.77 4 4 0 0 1 5.41.8 3 3 0 0 1 -1.25 4.77c-.07-.07 0-.14 0-.23 1.31-1.21 1.59-2.41.84-3.6a3.21 3.21 0 0 0 -4-1.15 4.42 4.42 0 0 0 -2.68 3.28 8.67 8.67 0 0 0 2.3 7.85 3.11 3.11 0 0 0 1.24.76c3.44 1.4 5.07 4.12 5.54 7.67a18.9 18.9 0 0 1 0 3.81 1.06 1.06 0 0 0  .1.7c.27.16.46 0 .63-.18 2.49-2.88 5.7-4.72 9.05-6.38 1.93-1 3.86-1.9 5.75-2.92a19.49 19.49 0 0 0 6.61-5.49 5.29 5.29 0 0 1 1.91-1.34z"/><path d="m26.92 185.36c-3.31-3.26-1.41-11.08 4.75-12.13a12 12 0 0 1 2.92-.14 6.18 6.18 0 0 1 5.8 4.6c.12.36.13.78.52 1.07.63-.06.91-.64 1.33-1a6.41 6.41 0 0 1 8.85.64 5 5 0 0 1  .92 5.22 4.83 4.83 0 0 1 -4.21 3.19 2.87 2.87 0 0 1 -1.87-.36 8.15 8.15 0 0 0 2.63-.28 4.47 4.47 0 0 0  .31-8.39 5.78 5.78 0 0 0 -8 6.62c.73 3.1 3 4.55 5.9 5.22a18.65 18.65 0 0 0 3.5.34 28.58 28.58 0 0 1 6.69.76 1.5 1.5 0 0 1 1.14.66c-3.08-.93-6.12-.56-9.13-.67a14 14 0 0 1 -3.75-.62 7.32 7.32 0 0 1 -5.4-5.81c-.08-.41 0-.89-.38-1.23-.56 0-.86.42-1.24.69a5.88 5.88 0 0 1 -8.13-1.25 5.4 5.4 0 0 1  .15-6.42 4.72 4.72 0 0 1 5.75-1 4 4 0 0 1  .47.35c-.31.29-.49 0-.67 0a4.22 4.22 0 0 0 -5.18 1.08 4.56 4.56 0 0 0 -.24 5.47 5 5 0 0 0 5.05 2.32 5 5 0 0 0 4.37-3.82 4.81 4.81 0 0 0 -1.66-5.14c-2.78-2.52-7.82-2-10.46.93a6.86 6.86 0 0 0 -.94 8.52c.11.14.34.3.21.58z"/><path d="m161.28 138.23a91.15 91.15 0 0 1 -9.37 4c-1 .38-1.05.37-2-.22-.29-.86.34-1.11.92-1.38a39.31 39.31 0 0 0 6-3.31c1.49-1 2.94-2.1 4.48-3.21 1.22.89 2.42 1.78 3.65 2.66s2.64 1.68 4 2.48 2.82 1.08 3.84 2.06a.92.92 0 0 1 -.74 1.15c-3.63-.95-7.11-2.73-10.78-4.23z"/><path d="m339.76 217.59a5.41 5.41 0 0 1  .44-.48 3.74 3.74 0 0 1  .45-.29c.36.16.26.44.28.65a13.27 13.27 0 0 0 11.07 12.17 14 14 0 0 0 15.73-10.93c1.31-6.19-.81-11.24-5.61-15.24l-1.13-.92s0-.09-.06-.14a1.65 1.65 0 0 1  .76-.45 15 15 0 0 1 2.43 1.88c.69.6 1.11 1.5 2 1.86.19.07.31.37.41.59 1.39 3 2.67 6.06 2.61 9.52a15.11 15.11 0 0 1 -12.83 14.76c-6.25.85-12.63-2-15.27-8.8-.52-1.35-.86-2.77-1.28-4.18z"/><path d="m511.92 140.88c.35.54.34.9.13 1.19a.76.76 0 0 1 -.74.24 21.12 21.12 0 0 1 -3.07-1c-2.44-1.12-5-1.92-7.42-3.23-2.62 1.3-5.31 2.43-8 3.51l-1.64.62a1.66 1.66 0 0 1 -1.62-.14c-.27-.34-.27-.66 0-1.23a46 46 0 0 0 11.21-6.95 46.57 46.57 0 0 0 11.15 6.99z"/><path d="m190.12 172.42a3.3 3.3 0 0 1  .11 1.78 8.77 8.77 0 0 0 -2.74 4.52 7.11 7.11 0 0 0 2.12 7.08c.4.38.88.67.46 1.46a7.49 7.49 0 0 1 -3.49-4.47 9.3 9.3 0 0 1  .37-5.89c-2.15 1.28-3.23 5.4-2.49 8.71.6 2.69 1.78 4.21 5.54 7.16-3.22-.83-6.06-4.63-6.36-8.66s1.43-7.35 4.51-10.11a1.89 1.89 0 0 0 -1.72.31c-1.26.64-2.51 1.31-3.78 2a6.37 6.37 0 0 1 -3.4.7 3.26 3.26 0 0 1 -2.77-4.88 4.51 4.51 0 0 1 3-2.36 17.1 17.1 0 0 1 5.22-.6 32.48 32.48 0 0 1 4.8.58c.19 0 .39.06.44.44a4.72 4.72 0 0 1 -1.94 0 24.59 24.59 0 0 0 -6.58.14 5.87 5.87 0 0 0 -3.11 1.19c-1.16 1-1.57 2.18-1.08 3.21a2.9 2.9 0 0 0 3.17 1.27 9.79 9.79 0 0 0 2.88-1.06 31.61 31.61 0 0 1 6.11-2.45 1.29 1.29 0 0 1  .73-.07z"/><path d="m417.17 189.13c-.42 3.08.21 6.13-1.26 9 .79.14 1.1-.3 1.48-.52s.64-.57 1.11-.52c.15.35 0 .52-.23.65a30.92 30.92 0 0 0 -5.26 5.09 24 24 0 0 1 -6.75 5.79c-.07 0-.11.15-.17.23.1.54.57.43.93.51a9.25 9.25 0 0 1 4.23 1.9 5.54 5.54 0 0 1 2.07 3.45c.34 2.59 2.05 3.86 4.26 4.72.27.11.55.17.83.26 0 0 0 .07.07.11-.83.33-1.47.15-2.68-.63-.81-.52-1.28-1.5-2.32-1.67-.54.24-.6.78-.86 1.18a5.23 5.23 0 0 1 -8.13.68c-.94-1-.92-2.3.21-4.12-.06.85-.65 1.27-.61 1.88.11 2.31 3.39 3.77 5.25 3.25a4.82 4.82 0 0 0 3.43-5.43 5.84 5.84 0 0 0 -2.64-3.9 9.38 9.38 0 0 0 -4.67-1.57c-1.32-.08-2.64.07-4 .1a10.86 10.86 0 0 1 -10-5.52 1.66 1.66 0 0 1 -.44-1.41c.56.07.61.57.81.89a11 11 0 0 0 15.67 3.58 23 23 0 0 0 7.2-7.43c2.75-4.57 2.36-9.14-.51-13.55-.67-1-1.49-1.94-2.21-2.93a4.92 4.92 0 0 1 -1.06-3.57 2.89 2.89 0 0 1 4.55-2.19c-.23.24-.44 0-.64 0a2.67 2.67 0 0 0 -3.39 3 5.09 5.09 0 0 0 1.09 2.53 22.29 22.29 0 0 1 3.92 6.15.72.72 0 0 0  .72.01z"/><path d="m184.08 151.17a2.39 2.39 0 0 1  .5-.14 3.54 3.54 0 0 1  .54.06c1.32 3.39-.06 12.13-5.44 16.94-5.21 4.67-15.07 6.38-21.63 2.63a9.23 9.23 0 0 1 -1.16-2.08 3.28 3.28 0 0 1 1.5.64 17.57 17.57 0 0 0 19.76-1.93 16.24 16.24 0 0 0 6.07-12.81c.02-1.06-.08-2.13-.14-3.31z"/><path d="m328.17 203a3.55 3.55 0 0 1 -.67-2 23.23 23.23 0 0 1  .41-5.53 1.84 1.84 0 0 1  .73-1.23 14 14 0 0 1 1.52-1.13 20.62 20.62 0 0 0 4.16-2.91 12.25 12.25 0 0 1  .34 5.89 4.37 4.37 0 0 1 -.63 1.63 19.33 19.33 0 0 1 -5.42 5.27 1.31 1.31 0 0 1 -.44.01z"/><path d="m128.46 163.29-.18-.76c-1.59-.1-3.22.21-4.84-.41-.21-.21-.18-.55-.2-.83a.47.47 0 0 1  .57-.18 13.21 13.21 0 0 0 5.52.14 4.4 4.4 0 0 0 2.22-1c3.09-2.83 6.73-3.09 10.57-2.21a11.69 11.69 0 0 1 4.88 2.47c0 .22-.11.36-.39.5-.59-.29-1.23-.61-1.89-.91a12.43 12.43 0 0 0 -8.13-1 8 8 0 0 0 -5.78 11.31 6.79 6.79 0 0 0 7.14 4c .33 0 .64-.29 1-.09.08.5-.25.8-.54 1.14-3.5.78-6.2-.54-8.3-3.3s-1.76-5.92-.87-9a .72.72 0 0 0 -.81.18z"/><path d="m477.2 151.37a1.12 1.12 0 0 1 1.39-.14c-.92 7.16 1.33 13.12 7.45 17.19s12.38 3.89 18.7.63a.37.37 0 0 1 0 .48c-.29.51-.58 1-1 1.64-7 2.74-13.76 2.13-19.79-2.37-5.7-4.32-7.33-10.58-6.75-17.43z"/><path d="m334.18 199.76a7 7 0 0 1  .32 5.5 12.84 12.84 0 0 1 -6.25 7.49 4.89 4.89 0 0 1 -1-3 7.72 7.72 0 0 1 2.75-6.31c1-.91 2-1.88 3-2.81.28-.31.53-.77 1.18-.87z"/><path d="m84.6 164.21a10.33 10.33 0 0 0  .46-2.52 10 10 0 0 1 4.53-7.07 17.94 17.94 0 0 1 4.91-2.27 39.91 39.91 0 0 0 7.38-2.83c.06 0 .17 0 .26.06.14.42-.23.48-.45.61a27.23 27.23 0 0 1 -5.17 2 36.35 36.35 0 0 0 -4.81 1.81 10.69 10.69 0 0 0 -6.19 7.54 9.84 9.84 0 0 0 4.59 10.46 9.17 9.17 0 0 0 10.66-1 8.64 8.64 0 0 0 2.6-4.18 5.18 5.18 0 0 0 -.93-4.78c.46-.64.15-1.23-.26-1.79a7.29 7.29 0 0 0 -6-3.08c-.44 0-.87 0-1.37.07 1.21-.58 2.13-.54 3.83 0a28 28 0 0 1 3.5 1.87c.48 1 1 2 1.46 3s .1 2.26.85 3.27c-.09.48-.76.88-.42 1.54.78.18.92-.84 1.6-.83.33.3.25.7.22 1.17a7.54 7.54 0 0 0 -.79 9.3 2.16 2.16 0 0 1 -.33 1.41c-1.67-1.33-2-2.49-2.29-7.35-.33-.24-.54 0-.76.2s-.38.31-.56.48c-4.9 4.67-13.78 2.41-15.84-4.64-.28-.77-.45-1.58-.68-2.45z"/><path d="m103.71 124.4c-.61 0-.9-.52-1.32-.8-.3-1.87.65-3.34 1.39-4.76a2.91 2.91 0 0 0 -1.41-.76 8 8 0 0 1 -3.15-12.2c.53-.72.55-.7 1.64-.69-.09.53-.52.81-.8 1.17a7 7 0 0 0 4.43 11.28 1.66 1.66 0 0 0  .44 0c3-.36 5.69-1.3 7.26-4.21a11.34 11.34 0 0 0 1.26-6.23 5.16 5.16 0 0 1 -.11-2 .55.55 0 0 1  .72.09c1 4.62 0 8.68-3.73 11.76.09.88.73 1.1 1.14 1.47a4.41 4.41 0 0 1  .65 5.52c.24-1.87.08-3.47-1.21-4.73a3.67 3.67 0 0 0 -2.65-1.07c-2.88.09-4.51 2.28-4.55 6.16z"/><path d="m328.64 173.38c-1.58-3.19-1.16-5.72 1.2-8 .8-.78 1.64-1.53 2.43-2.32s1.54-1.61 2.4-2.5a7.76 7.76 0 0 1  .55 4.46 8.35 8.35 0 0 1 -3.38 5.93c-1 .79-2.06 1.56-3.2 2.43z"/><path d="m523.4 175.12c-.18-.29-.31-.49-.43-.71a2.31 2.31 0 0 1 -.13-.4c.11 0 .2-.14.27-.12 3.64 1 6.68 0 8.31-2.76a7.86 7.86 0 0 0 -1-9.74 9.65 9.65 0 0 0 -8.53-2.54 16.92 16.92 0 0 0 -6.19 2.39.5.5 0 0 1 -.45-.42c0-.09 0-.21.1-.25a13.85 13.85 0 0 1 11.47-2.69 9.1 9.1 0 0 1 5.58 3.55 8.92 8.92 0 0 1 1.14 8.92 8.07 8.07 0 0 1 -6.73 5.23 7 7 0 0 1 -3.41-.46z"/><path d="m181.2 210.48c-.82-.62-.6-1.21-.35-1.82a14.34 14.34 0 0 0 1-6.9 9.38 9.38 0 0 0 -3-6.34 8.43 8.43 0 0 0 -3.77-1.77c-.94-2.2-2.46-4.16-2.81-6.65a6.36 6.36 0 0 1 2-5.84 4.15 4.15 0 0 1 5.61-.2 3.19 3.19 0 0 1 1.13 3.16 2.7 2.7 0 0 1 -2.06 2.23c0-.34.21-.4.36-.5a2.45 2.45 0 0 0 1-2.84 2.86 2.86 0 0 0 -2.5-2 3.79 3.79 0 0 0 -3.56 1.62 5.59 5.59 0 0 0 -1.11 3.57 9.1 9.1 0 0 0 2.28 5.89 3.13 3.13 0 0 0 1.28 1c4.18 1.62 5.64 5 5.85 9.14a29.52 29.52 0 0 1 -.16 3.11c.69 0 1-.5 1.32-.85a24.53 24.53 0 0 1 5.37-4.05c.33-.19.63-.47 1.06-.41.2.27.17.55 0 1a17.57 17.57 0 0 0 -8.94 9.45z"/><path d="m315 174a .71.71 0 0 1  .41-.66 9.41 9.41 0 0 1 3.72 3.1 11.84 11.84 0 0 1 -.77 15.91 21.93 21.93 0 0 1 -3 2.61c-.34.25-.77.42-.91.86.23.46.62.31.92.28a16.68 16.68 0 0 1 8.33 1.14c.84.38 1.84.2 2.64.64a2.42 2.42 0 0 1 -.18 1.52c-.48 0-.78-.3-1.14-.49a16.75 16.75 0 0 0 -16.15-.28c-1.91 1-3.8 2-5.88 3.08a2.65 2.65 0 0 1 1.49-2l5.25-2.61a27.71 27.71 0 0 0 7.61-5.15c5.32-5.4 4.62-13.13-1.62-17.46z"/><path d="m390.67 124c-2-3.53-3.52-7-3.31-10.86.28-.27.5-.33.73-.25a.5.5 0 0 1  .29.49 20.11 20.11 0 0 0  .7 5.21 20.68 20.68 0 0 0 2.86 6.23 8.71 8.71 0 0 0 1.7 1.81 5.18 5.18 0 0 1 1.38 1.45c-.05.48-.45.47-.66.64a2.22 2.22 0 0 1 -1.14-.75 21.69 21.69 0 0 0 -12.41-5.41 24.18 24.18 0 0 1 -4.88-.93 8.36 8.36 0 0 1 -3.93-2.43 5.87 5.87 0 0 1 -1.5-3.93.77.77 0 0 1 1-.41c.76 3.76 2.67 5.43 6.86 6 1.79.26 3.57.54 5.35.85a19.94 19.94 0 0 1 5.39 1.85 2.53 2.53 0 0 0 1.57.44z"/><path d="m268.26 129a1.25 1.25 0 0 1 -1-.67 18.16 18.16 0 0 0 5.24-6.66 24.09 24.09 0 0 0 1.83-8.19c.3-.34.57-.25 1-.06.08 3.78-1.38 7.15-3.18 10.31.22.33.4.35.58.24 3.49-2 7.36-2.56 11.25-3.06a11.74 11.74 0 0 0 3.92-1.15 5.64 5.64 0 0 0 3.19-4.61 2.45 2.45 0 0 1  .47-.1 2.13 2.13 0 0 1  .43.08 1.88 1.88 0 0 1 0 1.56 6.82 6.82 0 0 1 -3.7 4.33 15.74 15.74 0 0 1 -5.79 1.5 22.27 22.27 0 0 0 -13.68 6c-.2.23-.4.37-.56.48z"/><path d="m93.21 71.4c-.7-.3-.64-.82-.6-1.3.39-5-3.61-11-10.49-11.69a9.61 9.61 0 0 0 -2.77.14 1.66 1.66 0 0 1 -1.87-.61c.65-.58 1.59-.24 2.31-.71-.18-.58-.69-.57-1.07-.64a31.34 31.34 0 0 0 -4.49-.7 5.74 5.74 0 0 1 -2.76-.89c2.32-.09 4.29.69 6.31.87.16-.65-.25-.77-.46-1a7.18 7.18 0 0 1 -1.79-6.93 5.08 5.08 0 0 1 8.26-2.76c.3 1.33 1.51 2.58.72 4.12-.46.9-.87 2-2.38 2.25.44-.35.66-.52.87-.7a3.21 3.21 0 0 0  .93-4 3.78 3.78 0 0 0 -3.79-2 4.76 4.76 0 0 0 -3.9 4.53 7.68 7.68 0 0 0 3.59 6.83 10.08 10.08 0 0 0 3.77 1.54 12.24 12.24 0 0 1 8.25 5.83 12.52 12.52 0 0 1 1.67 6 2.66 2.66 0 0 1 -.31 1.82z"/><path d="m72.13 102.35a9.92 9.92 0 0 1 5.67-10.23c4.12-2 8.06-1.28 11.73 1.08.49-.36.34-.8.42-1.16a3.53 3.53 0 0 1 5.55-2.34 4.76 4.76 0 0 1 2.22 3.77 10 10 0 0 1 -.51 4.19 2.67 2.67 0 0 0 -.31 1.77c1.41-.71 2.53-1.91 4.2-2-.11.55-.54.52-.82.62a9.39 9.39 0 0 0 -5.76 5.68c-.25.64-.27.63-1 .87-.33-.37-.14-.82-.17-1.24a15.64 15.64 0 0 0 -1.48-5.89 10.34 10.34 0 0 0 -19.49 2.56c-.07.76-.14 1.48-.25 2.32zm22.32-.69c.19-.07.32-.08.36-.13a15.48 15.48 0 0 0 2-7.1 4.37 4.37 0 0 0 -1.89-3.91 2.89 2.89 0 0 0 -4.12.74 3.11 3.11 0 0 0 -.33 2.81 17.11 17.11 0 0 1 2.53 3.52c.7 1.29.92 2.73 1.45 4.06z"/><path d="m551 222.75a1.49 1.49 0 0 1 -.12-1.79 6.37 6.37 0 0 1 5.53-4.23 7.64 7.64 0 0 1 8.44 6.13 7.75 7.75 0 0 1 -4.72 9.19 9.33 9.33 0 0 1 -6.74-.22c-2.08-.79-4.54-4.56-4.72-6.89.33-.3.62-.24.82.14s.2.55.31.82a11.38 11.38 0 0 0 1.14 2.21c2 2.95 5 3.69 8.26 3.1a6.52 6.52 0 0 0 4.94-6.36 6.94 6.94 0 0 0 -8.09-7.12 6.06 6.06 0 0 0 -4.52 3.59c-.21.39-.32.81-.53 1.43z"/><path d="m68.14 127.4a1.32 1.32 0 0 1 1 .07 1.24 1.24 0 0 1 0 .41c-.16.66-.41 1.31-.5 2a8.71 8.71 0 0 0 16.65 4.68c.21-.49.38-1 .56-1.48a1.57 1.57 0 0 1 1.19.52c.49 1.64.49 1.64 3.28 2.28-1.34.56-1.43.55-3.55-.59-.5.12-.59.61-.81 1a9.78 9.78 0 0 1 -10.92 4.67 10.17 10.17 0 0 1 -7.75-9.37 8.69 8.69 0 0 1  .85-4.19z"/><path d="m115.56 209.38a12.66 12.66 0 0 1 -2.53 2.45 9.45 9.45 0 0 1 -3.13.77c.15.69.66 1 1 1.3a10.91 10.91 0 0 1 2.49 3.41c.25.55.47 1.09-.24 1.68-1.52-4-4.13-6.69-8.54-7.35.47-.52.94-.2 1.37-.24s.85.27 1.34 0c0-.66-.71-1.18-.43-1.91.15-.43.53-.66.87-.95 1.56.2 2.95.59 4.39-.91s1-2.75.58-4.34a3.08 3.08 0 0 1 1 3.56 4.19 4.19 0 0 1 -4.45 2.85 3.23 3.23 0 0 0 -1.73 0 2.26 2.26 0 0 0 1.45 1.76 4.58 4.58 0 0 0 5.4-1.42 7.51 7.51 0 0 0 1.61-4.62c0-.68 0-1.37 0-2.05a8.84 8.84 0 0 1 9-8.05 3.57 3.57 0 0 1 1.56.37c-.07.57-.49.4-.78.34-3.63-.76-8 1.81-9.11 6.3a7.43 7.43 0 0 0 1.85 7.31.93.93 0 0 1 -.58 1c-.81-.7-.92-1.88-1.71-2.8-.56 1.08-.15 2-.11 2.84a11.37 11.37 0 0 1  .28 3c-.65-1.49-.34-2.82-.85-4.3z"/><path d="m113.21 224.93c.39-.24.57-.21.75-.12s.15.17.13.24a8.93 8.93 0 0 1 -4.83 6.66 7.92 7.92 0 0 1 -10-2 8.27 8.27 0 0 1  .16-10.2 7.56 7.56 0 0 1 10.39-1.25 6.43 6.43 0 0 1 1.78 2.3c.19.4.39.8.08 1.23-.46.13-.45-.29-.56-.5-1.6-2.92-4.11-4.14-7.19-3.47a7.06 7.06 0 0 0 -5.35 6.11c-.33 3.51 1.88 6.94 5.1 7.36 3.72.49 6.45-.4 8.48-3.83a12.2 12.2 0 0 0 1.06-2.53z"/><path d="m359.54 201.64c-1.73-.9-3.24-1.67-4.74-2.48a24 24 0 0 0 -4.58-2c-1.6-.47-3.31-.27-4.89-.87.9-.53 1.9 0 2.88-.34-.14-.65-.69-.84-1.09-1.15a18.87 18.87 0 0 1 -4.13-4.14c-4.33-6.18-1.66-13.77 3.72-17.16a4.68 4.68 0 0 1  .59-.28.61.61 0 0 1  .39.52c-.09.43-.52.52-.82.73-6.15 4.26-6.87 12-1.64 17.39a24 24 0 0 0 6.17 4.43c2.12 1.11 4.27 2.17 6.43 3.21a3 3 0 0 1 1.71 2.14z"/><path d="m247.77 199.63c1 1.23 1.88 2.49 2.92 3.64a24.3 24.3 0 0 0 4.05 3.59 10.92 10.92 0 0 0 16.26-3.63c.14-.24.18-.56.52-.69.44.27.15.62 0 .87a10.91 10.91 0 0 1 -8.73 6.13 24.68 24.68 0 0 1 -4.1-.07 9.71 9.71 0 0 0 -6.38 1.74 5.46 5.46 0 0 0 -2.48 5 4.72 4.72 0 0 0 3.57 4.18 4.39 4.39 0 0 0 5.12-3.41c.5 1.93-.17 2.39-1.41 3.13-2.84 1.67-5.92.91-7.19-1.67a1.71 1.71 0 0 0 -1.32-1c-1.44 1.79-3.22 3-5.72 2.67a3.25 3.25 0 0 1 -2.3-1.26c.38-.48.58-.16.8 0a4 4 0 0 0 3.9.47c2.11-.81 3.68-2.12 4.05-4.56s2.09-3.9 4.26-4.82a15.58 15.58 0 0 1 2.25-.62c.29-.07.59-.09.72-.47-.07-.09-.13-.24-.24-.3-3-1.54-5.21-4.08-7.43-6.56-.39-.44-.79-.86-1.19-1.3a.73.73 0 0 1  .07-1.06z"/><path d="m348.81 58.44.23.39a.33.33 0 0 1 -.2.4 14 14 0 0 0 -3.63 2.45 10.94 10.94 0 0 0 -.37 15.57 25.18 25.18 0 0 0 7.16 5.21c1 .53 2.09 1 3.09 1.55a.74.74 0 0 1 0 1c-4.08-2.18-8.4-3.3-13-2.08-.31-.41-.31-.64.05-.8a3.87 3.87 0 0 1 1.58-.26h4.33c.22-.56-.21-.67-.45-.84a22.28 22.28 0 0 1 -3.53-3.08 12 12 0 0 1 4.74-19.51z"/><path d="m313.48 58.95.25-.57a11.6 11.6 0 0 1 5.49 3.93 11.93 11.93 0 0 1 -.67 15.6 21.24 21.24 0 0 1 -3 2.74c-.37.28-.89.43-1 1 .19.47.58.3.89.28a31.08 31.08 0 0 1 4 0 1.53 1.53 0 0 1 1.36.58c-.95.62-1.82.08-2.67 0a13.28 13.28 0 0 0 -2.78 0 25.47 25.47 0 0 0 -2.59.47 22.81 22.81 0 0 0 -2.63.89c-.86.34-1.68.76-2.49 1.12-.39-.25-.28-.52-.14-.88 1-.52 2.12-1.05 3.21-1.61a26 26 0 0 0 6.92-4.88 11.06 11.06 0 0 0 -2.92-18 2.91 2.91 0 0 1 -1.23-.67z"/><path d="m281.73 76.44c-3 .1-5.91.25-8.68-.73a7 7 0 0 1 -4.93-5.83 1.54 1.54 0 0 0 -.54-1.18c-1.39 1.1-2.89 2.18-4.89 1.83 0-.55.42-.41.66-.45a6.48 6.48 0 0 0 2.35-.78 5 5 0 0 0 1.16-7.82c-1.79-2-4.07-2.36-6.57-1.95-.32.05-.63.31-1 .09 0 0-.05-.07-.08-.11 1.28-.93 4.3-.9 6.22 0 2.11 1 3 3 3.64 5.29 1.64-1.67 3.29-2.84 5.52-2.71.27 0 .27 0 .79.8a13.63 13.63 0 0 0 -1.61.18 5.7 5.7 0 0 0 -4.67 4.68 5.87 5.87 0 0 0 2.51 6.15 10.12 10.12 0 0 0 5.51 1.76c1.17.08 2.34.11 3.51.19a1 1 0 0 1 1.1.59z"/><path d="m380.38 76.34c.37-.51.87-.38 1.33-.44 1.94-.24 3.91 0 5.84-.49a10 10 0 0 0 3.25-1.29 6.22 6.22 0 0 0 2.68-6.77 5.93 5.93 0 0 0 -5.63-4.35c-.24 0-.49 0-.69-.15.16-.66.63-.77 1.22-.75a6.32 6.32 0 0 1 3.89 1.51c.38.3.64.75 1.22.94.68-.82.72-2 1.33-2.83a6.5 6.5 0 0 1 2.35-2.15 6.84 6.84 0 0 1 3-.71 5.61 5.61 0 0 1 3 .38v.31c-.7-.05-1.41-.12-2.11-.16a6.18 6.18 0 0 0 -5.06 1.85 5.08 5.08 0 0 0 2.1 8.58c.46.15.94.25 1.4.38 0 .51-.38.42-.63.39a5.78 5.78 0 0 1 -2.87-1.21c-.3-.23-.5-.63-1-.56s-.33.56-.38.88a7.35 7.35 0 0 1 -5.94 6.3c-2.74.71-5.52.43-8.3.34z"/><path d="m450.6 132.24a4.38 4.38 0 0 0  .55-4.8 3 3 0 0 0 -3.55-1.6 2.24 2.24 0 0 0 -1.39 3.17c.14.3.34.57.55.94-1.23-.47-1.1-1.63-1.49-2.77a9.61 9.61 0 0 1 -6.51 3.37 2.3 2.3 0 0 1 1.7-1.66 6.57 6.57 0 0 0 4.29-4.47 4.65 4.65 0 0 0 -3.74-6 3.74 3.74 0 0 0 -3.13.89 5.78 5.78 0 0 0 -.78.94c-.73-.2-.76-.52-.46-.91a4.83 4.83 0 0 1 8.62.45 6.21 6.21 0 0 1  .55 6.06c.54.35.76 0 1-.17a3.35 3.35 0 0 1 4.52 1.06 4.67 4.67 0 0 1  .06 5.12.77.77 0 0 1 -.84.42z"/><path d="m546.1 214.12c0-2 .81-4 .43-6.36-1.07 1.06-1.17 2.52-2.2 3.34a1.54 1.54 0 0 1 -.71-1.09 7.36 7.36 0 0 0 1.88-9c-1.89-4.24-5.36-5.7-9.82-4.88-.13-.58.25-.53.5-.59a8.75 8.75 0 0 1 10.54 8.39v2.35a6.06 6.06 0 0 0 7.65 5.59 18.14 18.14 0 0 1 6.25-.52 10.54 10.54 0 0 1 5.1 2.66c-3-1.88-6.24-3-9.81-1.81s-5.56 4-6.6 7.46c-.73-.33-.66-.81-.48-1.37a10.64 10.64 0 0 1 2.77-4.26c.38-.37.88-.63 1.09-1.29-1-.38-2.17-.32-3.14-.89s-1.53-1.58-2.63-2.38c-.27 1.63-.07 3.22-.82 4.65z"/><path d="m313.62 124.79a2.07 2.07 0 0 1 -1.35.17 12.44 12.44 0 0 0 -6.63-4.83 13.26 13.26 0 0 0 -8.5-.19 11.59 11.59 0 0 0 -8 8.83c-.08.33-.15.67-.2 1s-.09.67-.13 1c-.54.17-.72-.09-.68-.5a16.59 16.59 0 0 1  .29-2 12.8 12.8 0 0 1 12.06-10 14.71 14.71 0 0 1 11.87 4.73 6 6 0 0 1 1.27 1.79z"/><path d="m373.94 130.93a28.26 28.26 0 0 0 -1.19-4.47 12.73 12.73 0 0 0 -2.46-3.61 11.39 11.39 0 0 0 -3.73-2.54 11.89 11.89 0 0 0 -4.41-1 15.64 15.64 0 0 0 -4.48.59 14.06 14.06 0 0 0 -4 1.78 12.09 12.09 0 0 0 -3.18 3.11 1.49 1.49 0 0 1 -1.32.06.48.48 0 0 1  .08-.55 14.36 14.36 0 0 1 10.29-6.05 12.88 12.88 0 0 1 10.4 2.93 13.25 13.25 0 0 1 4.4 7.75 2.12 2.12 0 0 1 -.4 2z"/><path d="m351.78 214.44a7.54 7.54 0 0 0 -1.69.41 4.45 4.45 0 0 0 -3 4 4.5 4.5 0 0 0 2.66 4.07 4.25 4.25 0 0 0 4.73-1 6.63 6.63 0 0 0 1.63-6.66 7.54 7.54 0 0 0 -8.93-5.49c-.61.13-1.2.31-1.92.49.17-.71.68-.79 1.11-1a8.28 8.28 0 0 1 10.94 7c .22 2.92-.48 5.45-3.12 7.12a5 5 0 0 1 -5.89-.27 5.09 5.09 0 0 1 -1.6-5.82 4.5 4.5 0 0 1 5.08-2.85z"/><path d="m177.11 151.25a.89.89 0 0 1 1.08 0 6.38 6.38 0 0 1 -4.16 8.05 9 9 0 0 1 -5.62.07 10.35 10.35 0 0 1 -7-6.73 2.12 2.12 0 0 1 -.21-1.4.91.91 0 0 1 1.07 0 14.09 14.09 0 0 0 1.73 3.43 8.54 8.54 0 0 0 8.74 3.54 5.3 5.3 0 0 0 4.46-6.17c-.05-.28-.07-.52-.09-.79z"/><path d="m484.37 151.25a1 1 0 0 1 1-.09c.28.32.08.66 0 1a5.23 5.23 0 0 0 4.24 6 8.36 8.36 0 0 0 8.57-2.89 13 13 0 0 0 2.14-3.86.83.83 0 0 1 1-.22.65.65 0 0 1  .16.71 10.41 10.41 0 0 1 -10.48 7.79 7.12 7.12 0 0 1 -5.5-2.69 6.18 6.18 0 0 1 -1.13-5.75z"/><path d="m225.62 221.84c-.43-.1-.47-.44-.58-.68-2.08-4.46-7.92-4.5-10.65-1.21a7 7 0 0 0 3.68 11.5 2.72 2.72 0 0 0 1.16 0c1.64-.41 3.43-.32 4.74-1.5a.77.77 0 0 1  .69.34.33.33 0 0 1 -.13.39 9.57 9.57 0 0 1 -6.6 1.38c-4.14-.62-6.42-3.53-6.31-7.76a8.07 8.07 0 0 1 6.85-7.64 7.19 7.19 0 0 1 7 3.57c.29.55.61 1.06.15 1.61z"/><path d="m69.12 225.58a.87.87 0 0 1  .94-.28 29.63 29.63 0 0 0 2.42 2.05 13.33 13.33 0 0 0 20.7-7.77c.15-.6.09-1.43 1.2-1.41-1.16 5.83-4.06 10.06-9.85 11.83a14.19 14.19 0 0 1 -15.41-4.42z"/><path d="m29.19 218.16a1.13 1.13 0 0 1 1.11.52c-.08.52-.48.85-.71 1.26a8.19 8.19 0 0 0 -.83 6.78 5.54 5.54 0 0 0 4.06 3.87c1.52.4 2.46-.19 3-1.76-.37-1.18-.37-1.18-1.41-1.81 1.13.19 1.74.73 1.89 1.64a2.3 2.3 0 0 1 -1.34 2.39 4.21 4.21 0 0 1 -4.08-.21 7.08 7.08 0 0 1 -3.53-5.46 14.11 14.11 0 0 1 0-2.78 2 2 0 0 0 -.08-1.32c-.47-.45-1.1-.26-1.65-.25-2.93 0-6-3.76-4.12-7.48 0-.05.16-.05.26-.08.4.44 0 .82-.11 1.21a4.81 4.81 0 0 0 2.72 5.46c1.77.74 3.5.46 4.4-1.34a6.32 6.32 0 0 1  .42-.64z"/><path d="m298.5 130.73c7-.66 14.11-1 21.3-1.26-.2.95-.91 1.44-1.4 2.19-6.62-.21-13.26-.22-19.9-.93z"/><path d="m344.15 131.68a13.5 13.5 0 0 1 -1.58-2.19c7.28.25 14.37.6 21.45 1.23-6.59.74-13.21.71-19.87.96z"/><path d="m369.84 152.92a1 1 0 0 1 1-.19c.07.08.18.15.18.22.22 3.65 3.46 6.23 8.21 5.1a9 9 0 0 0 6.48-5.64c.17-.4.32-.81.44-1.14a1 1 0 0 1 1-.15 1.23 1.23 0 0 1  .09.43 10.5 10.5 0 0 1 -5.35 7 2.94 2.94 0 0 1 -1.57.29c-2 0-3.91 0-5.87 0a3.34 3.34 0 0 1 -2.5-1 6.4 6.4 0 0 1 -2.11-4.92z"/><path d="m291.72 152.74c.42-.07.66-.08.87.07a5.77 5.77 0 0 1 -3.12 5.87 3.44 3.44 0 0 1 -1.15.14c-2.05 0-4.1 0-6.15 0a2.89 2.89 0 0 1 -1.42-.27c-2-1.1-5-3.86-5.36-7.28.29-.4.65-.29 1.11-.1.15.4.3.86.48 1.3a9.23 9.23 0 0 0 8.85 5.8 5.64 5.64 0 0 0 5.76-4.81c.05-.21.08-.46.13-.72z"/><path d="m415.39 159a11.17 11.17 0 0 0 3.29 2.34v5 4.25a2.63 2.63 0 0 1 -.37 1.53 8.39 8.39 0 0 1 -8.8 3.26 4 4 0 0 1 -2-1.14l.31-.69a7.22 7.22 0 0 0 9.89-3c1.66-3.23.77-7-2.3-9.82v-1.73z"/><path d="m307.56 126.69a177.26 177.26 0 0 1 18.86-1.29 30.54 30.54 0 0 0 -4 2.19 128.72 128.72 0 0 1 -14.86-.9z"/><path d="m289.74 56.29c-.08-.52.24-.93.28-1.46a18.53 18.53 0 0 0 6.69-7 21.36 21.36 0 0 0 2.06-9.36c2.66 6.89-3.33 15.9-9.03 17.82z"/><path d="m28.06 192.05c-.29-.44-.52-.08-.66.1-.41.53-.77 1.1-1.13 1.62a.5.5 0 0 1 -.52-.4c.72-.86 1.44-1.77 2.21-2.62a14.31 14.31 0 0 1 3-2.1c-1.66-.84-3.16-.57-4.62-.54a4.69 4.69 0 0 0 -3.73 2.12c-.42-.37-.21-.62 0-.85a4.2 4.2 0 0 1 3.23-1.78 13.36 13.36 0 0 1 1.76-.06 1.21 1.21 0 0 0 1.16-.53 8.94 8.94 0 0 0 5.34 1.22 10.41 10.41 0 0 1 9.33 14.77c-.1.21-.16.47-.55.51-.25-.56.18-1 .34-1.43a10.3 10.3 0 0 0 -3.3-11.47 10.25 10.25 0 0 0 -6.34-1.92 5.65 5.65 0 0 0 -4.74 2.49c-.22.31-.33.73-.79.81z"/><path d="m336 125.44a174.16 174.16 0 0 1 18.87 1.23 127.43 127.43 0 0 1 -14.56.95 22.16 22.16 0 0 0 -4.31-2.18z"/><path d="m366.57 133.34a2 2 0 0 1 -.42 0 2 2 0 0 1 -.39-.18 2.29 2.29 0 0 1 0-1.29 2.19 2.19 0 0 0  .75-1.58 3.42 3.42 0 0 1 -1.2-1.83c-1.63-5.23-8-7.17-11.9-3.64a1.15 1.15 0 0 1 -1.31.35c1.18-2.74 6-4 9.52-2.47 4.13 1.78 6.55 7.01 4.95 10.64z"/><path d="m481.33 209.93a24.56 24.56 0 0 0 -2.66-4.23 26.37 26.37 0 0 0 -3.38-3.1.79.79 0 0 1  .21-.88c1.75.83 3 2.4 4.42 3.62.55-.32.29-.8.27-1.19a15.9 15.9 0 0 1  .34-4.94 8.54 8.54 0 0 1 4.84-5.9 4 4 0 0 1  .55-.2 1.63 1.63 0 0 1  .36 0 1.5 1.5 0 0 1 -.84 1.24c-4.05 2.29-4.92 6-4.63 10.28a13.79 13.79 0 0 0  .84 3.7c.25.67.23.67-.32 1.6z"/><path d="m371.89 55.95a17.25 17.25 0 0 1 -6.61-6.7c-1.73-3.1-2.73-6.34-1.78-10 .72.31.58 1 .61 1.59a16.6 16.6 0 0 0 3.55 9.58 16.19 16.19 0 0 0 3.13 3.06 2.94 2.94 0 0 1 1.1 2.47z"/><path d="m310.63 125.11a1.09 1.09 0 0 1 -1.3-.2c-3.79-3.73-10.9-1.78-12.27 4.37a1.64 1.64 0 0 1 -.08.19c-.36.43-1.33.52-1 1.4.12.5.55.62.83.93a2.41 2.41 0 0 1  .19 1.2c-.27.36-.6.28-.92.25a8.94 8.94 0 0 1 4.54-10.4c2.96-1.48 7.67-1.08 10.01 2.26z"/><path d="m477.37 174.07a11.24 11.24 0 0 1 2.33 1 8.77 8.77 0 0 0 2.76.93 2.87 2.87 0 0 0 3-1.43 2.69 2.69 0 0 0 -.93-3 6.09 6.09 0 0 0 -3.63-1.39 28.43 28.43 0 0 0 -4.39-.26c-.32 0-.69.13-.92-.25 0-.42.39-.37.65-.41a16.62 16.62 0 0 1 7.25.54 4.28 4.28 0 0 1 2.86 2.55 3.23 3.23 0 0 1 -2.76 4.58 5.38 5.38 0 0 1 -2.74-.35c-1-.44-1.93-.94-2.89-1.42a.89.89 0 0 1 -.59-1.09z"/><path d="m313.51 94.81c2.46-.27 4.39.87 6.33 2.59-.39-1.75-2.07-3.44-4.18-4.59a14.27 14.27 0 0 0 -5.76-1.33c0-.56.39-.48.65-.49a11.76 11.76 0 0 1 6 1.51c.42.23.77.62 1.34.63.34-.49.27-1.1.44-1.65a3.26 3.26 0 0 1 2.88-2.35c.42 0 .79 0 .85.66-.28.29-.69.12-1 .18a2.89 2.89 0 0 0 -2.34 2 2.49 2.49 0 0 0  .61 2.82 10.07 10.07 0 0 1 2.41 3.87c0 .44-.33.54-.64.85-1.11-1.15-2-2.46-3.41-3.19s-2.87-.76-4.18-1.51z"/><path d="m340.31 89.87a.62.62 0 0 1  .25-.64c2.43-.24 3.32.59 4.1 3.88 1-.06 1.61-.82 2.44-1.13a14.47 14.47 0 0 1 2.81-.81 7 7 0 0 1 2.82-.05c-.23.66-.75.44-1.11.47a10.93 10.93 0 0 0 -8.1 4.13 2.1 2.1 0 0 0 -.72 1.28c.59.15.87-.33 1.22-.6a7.93 7.93 0 0 1 5.08-1.78c-.32.75-1 .69-1.47.8a9.46 9.46 0 0 0 -3.38 1.34 8.17 8.17 0 0 0 -1.88 1.83c-.34.44-.68 1-1.47.67a2.26 2.26 0 0 1  .39-1.49 9.8 9.8 0 0 1 2.05-3 2.44 2.44 0 0 0  .56-2.95 2.87 2.87 0 0 0 -2.45-1.82c-.38-.08-.78.09-1.14-.13z"/><path d="m202.52 174.45c2.37 1.12 4.74 5 5 8.36.36 4.51-1.52 8-4.94 11a1.1 1.1 0 0 1  .2-1.49c.41-.42.84-.83 1.21-1.28a11 11 0 0 0 -.73-15c-.38-.47-1.15-.75-.74-1.59z"/><path d="m488.82 190.34c-.2-.67.18-1.12.33-1.6a6.69 6.69 0 0 0 -.29-5.4 4 4 0 0 0 -3.61-2.34 2.92 2.92 0 0 0 -2.91 2c-.37 1.14 0 2 1.25 3l .22.19a2.8 2.8 0 0 1 -1.79-4.34 4 4 0 0 1 5.64-1.23 5.74 5.74 0 0 1 2.66 3.87 8.16 8.16 0 0 1 -.81 5.4 1.16 1.16 0 0 1 -.27.34c-.06.06-.17.05-.42.11z"/><path d="m405.72 186.88.42.61c.84 0 1.67 0 2.49.12a4.07 4.07 0 0 1 3.28 1.94c1.09 1.82.24 3.6-1.93 4 .15-.11.24-.21.36-.28 1.83-1.16 1.94-2.94.23-4.25a3.38 3.38 0 0 0 -1-.57 11.72 11.72 0 0 0 -6.26 0c1.15.94 2.28 1.41 3.14 2.22s1.35 1.92 2.28 2.66v2.34c-.58-1.46-.83-2.95-2.12-3.85-.35.33-.17.6-.08.87a6.13 6.13 0 0 1 -.5-.7 5.92 5.92 0 0 0 -5.72-3.28c-.24 0-.48 0-.72 0 0 0-.08 0-.2-.11.44-.59 1.06-.33 1.56-.31a7.25 7.25 0 0 0 4.8-1.34z"/><path d="m11.76 210c-1.13 1.28-2.68 1.18-4.3 1.66a6.39 6.39 0 0 0 3.92.77c-2.25.71-3.52.32-7.6-2.2a8.35 8.35 0 0 1 -.94-1.79 5.71 5.71 0 0 0 -1.09-1.8c0-1.13-.09-2.31 0-3.47a8.57 8.57 0 0 1 3.86-6.44 1 1 0 0 1  .41-.1s.07.06.14.12c-.09.55-.63.69-1 1a8.46 8.46 0 0 0 -2.71 8.86 5.73 5.73 0 0 0 8.1 3.57 1 1 0 0 1 1.21-.18z"/><path d="m531.75 188.18c1-3.73 3.09-6.41 7-7.2a5.44 5.44 0 0 1 4.09 9.83c-1.81 1.27-3.73 1.06-5-.63a3.28 3.28 0 0 0 2.4 1 3.91 3.91 0 0 0 2.44-.87 5.28 5.28 0 0 0 1.6-5.57 4.91 4.91 0 0 0 -6.21-3 8.43 8.43 0 0 0 -5.23 4.2c-.37.74-.71 1.5-1.09 2.24z"/><path d="m263.37 188.7c-2.78-.13-5.21.46-6.67 3.21-.79-.37-1.13.25-1.45.76a8.42 8.42 0 0 0 -1.34 5c-.29-1.51.15-2.86.1-4.32.85-.72 1.36-1.81 2.21-2.62s1.94-1.26 2.81-2c-.09-.17-.12-.3-.18-.32a10.52 10.52 0 0 0 -5.49 0 3.41 3.41 0 0 0 -1.62 1 2.33 2.33 0 0 0 -.1 3.5l.46.53a2.32 2.32 0 0 1 -1.69-2.92 3.9 3.9 0 0 1 3.55-2.83c.82-.08 1.66 0 2.49-.06.31-.05.23-.45.53-.56a7.38 7.38 0 0 0 3.08 1.17c1.09.07 2.19.08 3.29.11z"/><path d="m480 224.91c-3.18 4.76-10.19 7.22-16.26 4.94-.18-.26 0-.45.14-.64a1 1 0 0 1  .72.06c5.37 1.44 9.92-.05 13.85-3.83a4.66 4.66 0 0 1  .64-.6.62.62 0 0 1  .91.07z"/><path d="m319.32 139.81 1.94 1.6c-1.27.52-9.72.22-13.48-.55 3.82-.6 7.68-.79 11.54-1.05z"/><path d="m488.32 162.89a21.21 21.21 0 0 0 4.35 1.28 12.44 12.44 0 0 0 14-9.73 12.18 12.18 0 0 0  .3-2.62c0-.32-.06-.73.48-.71 1.06 2.33-.88 7.5-3.81 10.11a12.77 12.77 0 0 1 -15.32 1.67z"/><path d="m354.52 140.87a92.6 92.6 0 0 1 -13.34.84c.5-.93 1.4-1.18 1.9-1.86a112.72 112.72 0 0 1 11.44 1.02z"/><path d="m400.27 113.08a5.31 5.31 0 0 0 -.89.44 1.72 1.72 0 0 0  .2 2.93 2.68 2.68 0 0 0 2 .21 5.91 5.91 0 0 0 4.36-5.13c.08-.82 0-1.66 0-2.4a.81.81 0 0 1  .89-.51c.06.06.17.12.19.2.95 3.64-1.47 7.83-4.94 8.62a3.57 3.57 0 0 1 -3.05-.6 2.2 2.2 0 0 1 -.76-2.48c.28-.87.8-1.2 2-1.28z"/><path d="m155.65 151c .11 4.68 1.68 8.55 5.58 11.15a12.71 12.71 0 0 0 12.18 1.16 6 6 0 0 1 -3.08 1.17 13.07 13.07 0 0 1 -15.45-12.23c-.03-.41-.23-.99.77-1.25z"/><path d="m402.4 194.8c-.42 0-.48-.43-.7-.67a3.35 3.35 0 0 0 -4.37-.57 3.18 3.18 0 0 0 -.84 4.3c1.75 3.06 6.62 3.2 8.88.26a5.6 5.6 0 0 0 1.2-3.82c0-.53 0-1.07-.06-1.61a5.84 5.84 0 0 1 -1.82 6.84 6.06 6.06 0 0 1 -8-.41 4 4 0 0 1 -1.25-3.45 3.62 3.62 0 0 1 3-3.15 3.38 3.38 0 0 1 3.92 2.27z"/><path d="m431.28 137.2a10.23 10.23 0 0 1 -2 5.09c-.22.32-.56.36-.91 0 .12-.82.94-1.42 1-2.67a11.41 11.41 0 0 1 -10.05 2.88 2.19 2.19 0 0 1 1.3-.16 10.06 10.06 0 0 0 6.87-2.82 17.6 17.6 0 0 1 3.79-2.32z"/><path d="m40.83 70.41a8.89 8.89 0 0 0 1.6 2.71 9.53 9.53 0 0 0 6.57 2.57 55.35 55.35 0 0 1 7.15.6 4.9 4.9 0 0 1 2.43 1c-2.88-1-5.86-.72-8.81-.75a16.34 16.34 0 0 1 -4.49-.62 7.29 7.29 0 0 1 -4.81-4c-.27-.54-.47-1.05.36-1.51z"/><path d="m231.23 137.09a28.28 28.28 0 0 1 3.78 2.34 10.91 10.91 0 0 0 7.75 2.89 3 3 0 0 1  .57.07s.06.06.21.2c-1 0-2 .06-2.86 0a4.7 4.7 0 0 0 -1.72 0 2.14 2.14 0 0 1 -1.66-.4 17 17 0 0 1 -4-2.53c-.08 1.14.72 1.72.9 2.55-.27.44-.66.45-.92.06a12.2 12.2 0 0 1 -2.05-5.18z"/><path d="m260.76 194.23a3.32 3.32 0 0 1 4.7-1.23 3.77 3.77 0 0 1 1.26 5.14 5.5 5.5 0 0 1 -4.89 2.74 5.92 5.92 0 0 1 -5.68-7.95 7.77 7.77 0 0 0  .17 3.4 5.58 5.58 0 0 0 8.82 2.68 3.47 3.47 0 0 0 1.44-3.61 3.25 3.25 0 0 0 -4.79-2 9.87 9.87 0 0 0 -1.03.83z"/><path d="m37.77 75c3.5.36 6.64 5 6.58 9.53-.06 4.35-3.26 9.08-6.56 9.48.8-.94 1.9-1.31 2.66-2.11a12.8 12.8 0 0 0 2.07-2.65 10.86 10.86 0 0 0 1.13-3.16 9.24 9.24 0 0 0 0-3.36 10.85 10.85 0 0 0 -1.13-3.17 10.22 10.22 0 0 0 -2-2.67 26.89 26.89 0 0 0 -2.75-1.89z"/><path d="m263.32 113.18c1.58 1.36 1.54 2.89.13 3.8a3.46 3.46 0 0 1 -2.66.51 6.38 6.38 0 0 1 -3.75-2.37c-1-1.25-1.92-4.32-1.37-6.1.37-.2.64 0 .93.27a14.18 14.18 0 0 0  .31 3.16 5.83 5.83 0 0 0 4.24 4.24 2.57 2.57 0 0 0 1.72-.12 1.74 1.74 0 0 0 1-2.4c-.13-.27-.29-.5-.55-.99z"/><path d="m243.61 120.65c-4.05.91-7.35 2.84-9.49 6.31a1 1 0 0 1 -1-.59c2.42-3.44 5.49-5.94 9.82-6.76.28.11.47.39.67 1.04z"/><path d="m428.63 127a15.4 15.4 0 0 0 -4.51-4.43 24.64 24.64 0 0 0 -6-2.22l1.87-.65c4.2.77 7.11 3.27 9.52 6.59-.04.39-.37.55-.88.71z"/><path d="m27.51 107.7c.64.16.74.61.89.91 0 .91-.06 1.74 0 2.56a6.06 6.06 0 0 0 3 4.94 3.61 3.61 0 0 0 4.34-.16 1.3 1.3 0 0 1 -1 1.28 4.07 4.07 0 0 1 -3.53-.15 6.44 6.44 0 0 1 -3.48-3.93 9.65 9.65 0 0 1 -.22-5.45z"/><path d="m243.49 163c-.51-.33-.72.46-1.17.26-.06-.31.33-.34.34-.69-.48-.4-1.08 0-1.91-.24a2.48 2.48 0 0 1 -1-.82 39.57 39.57 0 0 0 4.06-.32c1.35-.31 2.24-1.31 3.38-2.09.2.55-.09 1 .21 1.43a9.18 9.18 0 0 0 -3.08 4.75c-.6-.13-.77-.56-1-.88-.1-.47.35-.9.17-1.4z"/><path d="m85.3 115.84a2.08 2.08 0 0 1 -1.2-.43c.9-.42 1.79-.81 2.66-1.25a11.65 11.65 0 0 0 2.39-1.68 12.7 12.7 0 0 0 1.94-2.18 22.44 22.44 0 0 0 1.44-2.54c.45-.82.33-1.88 1.08-2.68.54.55.29 1.07.16 1.55a12.75 12.75 0 0 1 -5.77 7.92 13.19 13.19 0 0 1 -2.7 1.29z"/><path d="m361.83 219c0-.39 0-.78.09-1.16a9.64 9.64 0 0 0 -3.67-9.75 10 10 0 0 0 -10.5-1.35 3.92 3.92 0 0 1 -1.21.48s-.08 0-.13-.08c-.11-.5.25-.68.6-.84a11 11 0 0 1 11.7 1.46 10.18 10.18 0 0 1 3.19 11.11s-.07.07-.1.11z"/><path d="m72.36 66.26c.8-.05.87.47.92 1a7.36 7.36 0 0 0 1.3 3.22 5.33 5.33 0 0 0 6.68 2c .29-.14.59-.42.9 0 .07.45-.32.56-.59.72a5.33 5.33 0 0 1 -4.65.35 7.34 7.34 0 0 1 -4.56-7.29z"/><path d="m473 165.78c-.68-.32-.62-.79-.57-1.3a5.18 5.18 0 0 0 -1.07-3.56 3.92 3.92 0 0 0 -5.4-1.22c-.21.12-.41.26-.59.38a.72.72 0 0 1 -.63-.35 4.44 4.44 0 0 1 5.76-.95 5.88 5.88 0 0 1 2.5 7z"/><path d="m365.75 55.09a7.49 7.49 0 0 1 5.06 1.36 3.67 3.67 0 0 1 1.47 3.74 3.18 3.18 0 0 1 -2.5 2.46.63.63 0 0 1 -.6-.62.74.74 0 0 1  .42-.39c2-.92 2.32-2.67.71-4.25a6.47 6.47 0 0 0 -3.61-1.39c-.47-.11-1.01-.09-.95-.91z"/><path d="m99 164.6a3.2 3.2 0 0 1 -1 4.56 3.49 3.49 0 0 1 -4.68-1.16 5.5 5.5 0 0 1 3.68-8.31 4.75 4.75 0 0 1 3.82.82 5.81 5.81 0 0 0 -4.26-.27 5.13 5.13 0 0 0 -2.92 7.17 3.18 3.18 0 0 0 3.18 1.66 3.11 3.11 0 0 0 2.46-2.59 5.21 5.21 0 0 0 -.28-1.88z"/><path d="m378.38 81.15a1.28 1.28 0 0 1  .35-.8h.29a6.4 6.4 0 0 1 0 9.55 4.79 4.79 0 0 1 -2.3 1.1 1.2 1.2 0 0 1 -1.45-.53 4.73 4.73 0 0 0 3.73-1.52 5.78 5.78 0 0 0 1.24-4.1 5.17 5.17 0 0 0 -1.86-3.7z"/><path d="m293.39 61.93a.64.64 0 0 1 -.25.62 3 3 0 0 1 -2.7-3.92 3.87 3.87 0 0 1 1.39-2.18 7.47 7.47 0 0 1 4.9-1.36c.11.55-.09.76-.49.84-.58.1-1.15.19-1.72.33a4.35 4.35 0 0 0 -2.73 1.81 2.19 2.19 0 0 0  .87 3.43c.24.14.58.1.73.43z"/><path d="m283.25 80.84a.71.71 0 0 1  .42.67c-2.51 4.65-1.23 8 3.56 9.1-.2.55-.66.52-1.07.47a5.21 5.21 0 0 1 -3.53-2.17 6.36 6.36 0 0 1  .62-8.07z"/><path d="m70.62 65.42c-1 3.86-.52 7.42 2.13 10.46s6.14 4 10.1 3.1c-3.47 1.54-8 .21-10.73-3.11-2.56-3.11-3.35-7.99-1.5-10.45z"/><path d="m233.43 158.59a1.76 1.76 0 0 1 -.53.1c-.38-.08-.75-.21-1.07-.3-1.68-2.58-1.64-5.06.11-7.22a1.78 1.78 0 0 1 1.53 0c-.8 1.1-1.63 2.18-1.53 3.62a7.88 7.88 0 0 0 1.49 3.8z"/><path d="m441.32 142.37c-.43.34-.81.21-1.28.19a16.43 16.43 0 0 1 -1.56-4.74c-1.46-1.08-1.83-2.84-2.87-4.08a.64.64 0 0 1  .7-.52 33 33 0 0 1 5.01 9.15z"/><path d="m237.9 181.49c-2 0-3.74.42-4.91 2a4.71 4.71 0 0 0 -.93 3c .08 2.65 1.67 4.22 4.84 4.87-1.64.55-3.52-.35-4.63-2.21a5.45 5.45 0 0 1  .9-6.83c1.43-1.27 3.48-1.71 4.73-.83z"/><path d="m230.88 86.06c.34.72 0 1.1-.1 1.51-.75 2.83-.49 5.44 1.72 7.59a2.76 2.76 0 0 1  .67 1.28 12 12 0 0 0  .41 2c-1.54-1.31-2.29-3.11-3.16-4.79-.86 0-.32.82-.95 1.32.91-3.03-.06-5.97 1.41-8.91z"/><path d="m261.11 151.25a1 1 0 0 1 1.17.07 33.31 33.31 0 0 0 1.33 7.21c-.4.39-.78.28-1.28.2a21.08 21.08 0 0 1 -1.22-7.48z"/><path d="m401.63 151.43a27 27 0 0 1 -1.21 7.11 1 1 0 0 1 -1.33 0 37.36 37.36 0 0 0 1.28-7.21.8.8 0 0 1 1.26.1z"/><path d="m429.18 151.13a5.26 5.26 0 0 1  .73-.13 5.77 5.77 0 0 1  .67.07 5.49 5.49 0 0 1  .31 7.07s-.11 0-.13-.05l-.58-1c .82-3.01.82-3.5-1-5.96z"/><path d="m340.54 203.56c.19.4 0 .62-.35.79-2.15 1-2.67 2.78-2.6 4.93 0 .59.31 1.28-.44 1.68-1.67-3.13.33-7.48 3.39-7.4z"/><path d="m31.94 195.12a3.41 3.41 0 0 1 4.28-2.52 3.66 3.66 0 0 1 2.71 4.12 4.74 4.74 0 0 1 -3 3.65c-.23.1-.48.06-.65-.31.43-.25.88-.49 1.3-.79a3.72 3.72 0 0 0 1.75-3.88 3 3 0 0 0 -2.39-2.31 3.15 3.15 0 0 0 -3.18 1c-.29.32-.36.81-.81 1z"/><path d="m415.39 159c-3.49-.27-7-.19-10.5-.28a7.07 7.07 0 0 1 3.41-1.06 12.18 12.18 0 0 1 7.09 1.34z"/><path d="m257.8 158.74c-3.08 0-6.15.07-9.36.1 1.72-1.65 6.67-1.69 9.36-.1z"/><path d="m46 72.27c4.55.18 7.2-3.65 4.42-7.79.54-.49.83-.12 1.12.31a5.13 5.13 0 0 1 -2.66 7.56 3.43 3.43 0 0 1 -2.88-.08z"/><path d="m65.74 105.25c.53-.15.76-.17 1.05.17a13.57 13.57 0 0 0 4.21 6.83 2.15 2.15 0 0 1 -1.48 0 15.2 15.2 0 0 1 -3.78-7z"/><path d="m462.69 158.95c-.54 0-.64-.29-.78-.54a12 12 0 0 0 -5.77-4.75c-1.84-.79-3.77-1.31-5.65-2-.27-.1-.57-.13-.75-.44.29-.33.63-.12.9 0 1.71.55 3.43 1.09 5.12 1.72a12.58 12.58 0 0 1 6.07 4.37 4.39 4.39 0 0 1  .86 1.64z"/><path d="m103.84 180.9c.12.56-.18.69-.53.81a7.75 7.75 0 0 0 -2.06 1.08c-2.28 1.7-2.73 4-1.21 6.45-.65 0-.87-.43-1.09-.82a4 4 0 0 1 -.4-3 6.19 6.19 0 0 1 5.29-4.52z"/><path d="m337.52 55.09c.05-.07.1-.19.16-.2 3-.44 4.44-2.84 3.37-5.73a5.09 5.09 0 0 0 -3.37-3.16l-1-.29c.31-.46.69-.24 1-.16a5.62 5.62 0 0 1 4 7.07 3.8 3.8 0 0 1 -3.86 2.75.29.29 0 0 1 -.3-.28z"/><path d="m276.48 132a1.7 1.7 0 0 1 -1-.16c-.13-.59.32-.82.62-1.1 1.74-1.55 3.71-1.66 6.09-.95-2.02 1.1-4.19.96-5.71 2.21z"/><path d="m429.3 97.57a1.81 1.81 0 0 1  .7-2.29 5.75 5.75 0 0 0 2.06-3.44c.06-.28.15-.55.31-1.16a9.31 9.31 0 0 1  .47 2.74c-.72 0-.86.62-1.09 1.14a16.6 16.6 0 0 1 -3 4.55c-.17-.71.31-1 .55-1.54z"/><path d="m387.24 131.57a1.82 1.82 0 0 1 -1.13.39c-1.53-1.25-3.69-1-5.46-1.94 2.17-1.27 4.79-.67 6.59 1.55z"/><path d="m105.14 115.13a6.09 6.09 0 0 0 4.16-1.07 5.79 5.79 0 0 0 2.18-3.54c.31-1.47-.25-2.82-.81-4.43 1.65 1.16 2 3.87 1 5.94a5.42 5.42 0 0 1 -6.53 3.1z"/><path d="m213.35 151.27c-4.27 1.6-8.85 2.29-11.85 6-.47-.44-.15-.65 0-.84a12.06 12.06 0 0 1 3.85-2.86 49.48 49.48 0 0 1 7.16-2.51.71.71 0 0 1  .84.21z"/><path d="m17.76 178.54a3.28 3.28 0 0 1 2.63-1.6 2.89 2.89 0 0 1 3 2.57 4.44 4.44 0 0 1 -.41 2.7 27.91 27.91 0 0 1 -3.1 4.21c-.43-.45-.16-.72 0-1 .59-.77 1.2-1.53 1.8-2.3a5.79 5.79 0 0 0 1.14-2.35 2.87 2.87 0 0 0 -1.3-3.16c-1-.6-1.92-.47-3.07.46-.23.18-.42.41-.74.43z"/><path d="m326.1 45.51c-3.48 1.38-4.94 3.16-4.83 5.61.1 2.06 1.07 3.12 3.83 4a2.12 2.12 0 0 1 -1.74 0 3.93 3.93 0 0 1 -2.23-2.2 5.42 5.42 0 0 1 4.97-7.41z"/><path d="m254.71 173.5a.61.61 0 0 1  .42.74c-1.71 1.47-3.73 1.45-5.75 1.14a1.15 1.15 0 0 1 -.27-1.29 7.32 7.32 0 0 0 5.6-.59z"/><path d="m432.06 136.42.65-.42c.6.24.94 4.36.6 6.44a.72.72 0 0 1 -.87 0c-.3-1.96.16-3.98-.38-6.02z"/><path d="m338.11 59.08c1.17-.23 2.43.07 3.64-.27a10.73 10.73 0 0 0 3.42-1.59 10.47 10.47 0 0 0 2.53-2.79.59.59 0 0 1  .08.88 10 10 0 0 1 -9.55 4.1c-.12-.03-.16-.11-.12-.33z"/><path d="m264.87 74.72c3.59.16 7.22 4.08 7.44 7.68-.38 0-.49-.26-.57-.53a9.71 9.71 0 0 0 -6.5-6.93 1.78 1.78 0 0 1 -.37-.22z"/><path d="m230.24 142.43a.94.94 0 0 1 -.86 0 14 14 0 0 1  .38-6.25c.36-.13.51.15.73.39-.24 1.98-.11 3.96-.25 5.86z"/><path d="m87.41 221.19c-.76 2.58-4.73 3.94-6.78 2.3.38-.53.92-.42 1.4-.34a4.25 4.25 0 0 0 4.21-1.44 1.77 1.77 0 0 1 1.17-.52z"/><path d="m122.44 181.21c3.22-.94 7.52 2.53 8.37 6.49-2.57-4.12-2.34-4.7-8.37-6.49z"/><path d="m324.31 59.11c-3.2 1.31-9.08-1.59-9.5-4.7a11.7 11.7 0 0 0 4.19 3.71 12.58 12.58 0 0 0 5.31.99z"/><path d="m125.12 154.65c-.41-3.21-1.16-4-3.93-4.22-.24-.21-.27-.48-.23-.89a3.49 3.49 0 0 1 3.6 1.19 3.35 3.35 0 0 1  .56 3.92z"/><path d="m36.48 78.69a2.92 2.92 0 0 1 2.52 2.8 4.34 4.34 0 0 1 -3 4.43c-.28-.37.06-.5.27-.68a13.51 13.51 0 0 0 1.2-1.07 3.1 3.1 0 0 0 -.16-4.57c-.27-.27-.7-.36-.83-.78a.39.39 0 0 1 0-.13z"/><path d="m390.49 82.14c0-3 3.19-6.62 6.64-7.54-.77 1.06-2 1.21-2.76 1.91a12.78 12.78 0 0 0 -2.28 2.64c-.61.92-.72 2.11-1.6 2.99z"/><path d="m250.32 135.64c-.36.14-.57 0-.92-.19a6.47 6.47 0 0 0 -4.6-5.33c2.87-.01 5.2 2.4 5.52 5.52z"/><path d="m26.11 64.15c1.15-3.88 4.8-6 9.07-5-1 .55-1.88.18-2.73.35a9.92 9.92 0 0 0 -2.63.86 6.58 6.58 0 0 0 -2.1 1.56c-.59.71-1.1 1.49-1.64 2.24z"/><path d="m417.79 130.1c-2.62 1.07-4.1 2.75-4.47 5.23a.93.93 0 0 1 -.83.34c-.24-2.6 2.32-5.48 5.3-5.57z"/><path d="m390.75 158.77c.45-1 .82-1.79 1.17-2.6a15.78 15.78 0 0 0  .67-2.54c.2-.81-.13-1.72.41-2.53.64.87.61 2 0 4.18s-1.17 3.06-2.25 3.49z"/><path d="m190.2 207.67a15 15 0 0 0 -3.21 4.58 13 13 0 0 0 -.6 5.47 9 9 0 0 1 3.81-10.05z"/><path d="m98.79 144.33a3.28 3.28 0 0 1 -4.23-.38 4.9 4.9 0 0 1 -1.19-5.78c.31.33.16.64.09.93a4.77 4.77 0 0 0  .73 3.62c1.09 1.74 2.71 2.06 4.6 1.61z"/><path d="m271.89 158.75c-1.06-.08-1.15-.86-1.4-1.41a9.35 9.35 0 0 1 -1-6.1c.73.66.49 1.56.61 2.35a12.48 12.48 0 0 0  .69 2.68c.31.8.69 1.56 1.1 2.48z"/><path d="m22.34 104.6a2.35 2.35 0 0 1 -1.5-2.15 5.87 5.87 0 0 1 2.34-5.18c-.22 1-1 1.54-1.28 2.33a5.75 5.75 0 0 0 -.31 2.44 19.89 19.89 0 0 0  .75 2.56z"/><path d="m500.53 176.69c-.3 1.27-1.52 1.33-2.16 2a8 8 0 0 0 -1.36 2.36.54.54 0 0 1 -.57-.14 4.8 4.8 0 0 1 4.09-4.22z"/><path d="m339.33 197.91a10.75 10.75 0 0 1 -1.88 1.11c-.56.37-1.13.71-1.7 1.07-.89-.72.08-1.06.26-1.54l-.29-.69c1.06-.18 2.1-.38 3.14-.54.27-.05.41.18.47.59z"/><path d="m104.25 228.77c3.82.86 6.09-.79 7.41-4.35a1.73 1.73 0 0 1 -.17 1.94 5 5 0 0 1 -1.08 1.37c-1.49 1.4-4.2 2.37-6.16 1.04z"/><path d="m166.12 180.29-.44.2a.67.67 0 0 1 -.18 0 .21.21 0 0 1 -.1-.1c-.6-1.94-2.71-2.33-4.1-3.72 2.21-.15 4 1.26 4.82 3.62z"/><path d="m110.68 99.72a7.68 7.68 0 0 1 3.14 4.76c-.22.3-.62.32-.72.05-.64-1.58-1.72-2.9-2.46-4.42a.33.33 0 0 1  .04-.39z"/><path d="m558 229a2.46 2.46 0 0 1 -1.76.49 6.22 6.22 0 0 1 -5.35-3.7c-.15-.38-.39-.78 0-1.16.47 0 .44.41.54.64 1.23 2.87 2.9 3.92 6 3.75h.57z"/><path d="m432.75 95.25c0 4.77-1.39 9-3.3 9.46 2.25-2.83 2.81-6.14 3.3-9.46z"/><path d="m476.14 218.4a10.83 10.83 0 0 0 -3.14-10.1c3.12 1.38 4.41 7.03 3.14 10.1z"/><path d="m350.51 67.52a5 5 0 0 0 3 5.1c.32.15.56.4.35.81a4.61 4.61 0 0 1 -3.35-5.91z"/><path d="m230 96.43c.63 2.88 1.14 5.8 3.16 8.15a.88.88 0 0 1 -.27.12 3 3 0 0 1 -.47-.06 14 14 0 0 1 -2.42-8.21z"/><path d="m190.24 161v6c-1.17-1.23-1.24-3.93 0-6z"/><path d="m279.93 69c .14 2.67-3.34 4.29-6.47 2.93 3.08.72 5.12-.32 6.47-2.93z"/><path d="m254.91 184.89c-1.56-1.81-1.52-3.9-1-6a6.29 6.29 0 0 1 2-3.45c.41.57 0 .8-.25 1.07a7.18 7.18 0 0 0 -1.78 4.67 6.93 6.93 0 0 0  .55 2.55c.16.4.47.76.41 1.23z"/><path d="m308.65 73.36c.5-1.11 1.85-1.24 2.49-2.23a6.94 6.94 0 0 0 1.1-3.38 4.5 4.5 0 0 1 -3.59 5.61z"/><path d="m382.82 68.93a5 5 0 0 0 5.52 3.23 4.24 4.24 0 0 1 -4.65-.81 4 4 0 0 1 -1.27-1.93c-.05-.2.06-.42.4-.49z"/><path d="m128.43 163.27a14.28 14.28 0 0 0 -2.5 2.47c-.73.91-1.38 1.88-2.18 3a1.61 1.61 0 0 1  .08-1.44 14.34 14.34 0 0 1 4-4 .6.6 0 0 1  .57 0z"/><path d="m250.17 183.57c.13-1.18 1-2.07 1-3.28a3.87 3.87 0 0 0 -1.48-3 2.2 2.2 0 0 1 1.85 1.73 4.42 4.42 0 0 1 -1.37 4.55z"/><path d="m261 184.22a4.65 4.65 0 0 1 -3.37-6 9.7 9.7 0 0 0  .88 3.55c.64 1.09 1.76 1.55 2.49 2.45z"/><path d="m229.7 170.44c.86.05.75.55.72 1a5.7 5.7 0 0 1 -3.34 4.76 6.7 6.7 0 0 0 2.62-5.76z"/><path d="m401.54 184.31c3.31-3.09 2.63-2 3.46-5.65.8 2.34-.7 4.9-3.46 5.65z"/><path d="m100.42 104.57c1.16-1.54 3.14-2.23 4.3-1.45-.64.59-1.54.51-2.24.91s-1.18 1.07-2.06.54z"/><path d="m406.59 175.7c2.44 1.39 3.22 6 1.49 8.5a8.17 8.17 0 0 0  .53-4.51 16.63 16.63 0 0 0 -2.02-3.99z"/><path d="m298.15 158.66a20 20 0 0 1  .34-2.55c.44-.4.79-.21 1.18-.13a8.14 8.14 0 0 1 -.31 2.42c-.3.48-.67.43-1.21.26z"/><path d="m78.6 136.59a.62.62 0 0 1  .46-.51 6.82 6.82 0 0 0 3.9-4c .07-.17.15-.37.4-.35s.24.37.16.59a6.5 6.5 0 0 1 -3.57 3.7c-.44.21-.91.35-1.36.53z"/><path d="m364.55 158.61a1.06 1.06 0 0 1 -1 .1 3.81 3.81 0 0 1 -.51-2.63.76.76 0 0 1  .94-.15 3.28 3.28 0 0 1  .37 1.36c.09.43.14.86.2 1.32z"/><path d="m478.39 186.5a37.92 37.92 0 0 0 -.2-6.79c.99 1.54 1.09 4.19.2 6.79z"/><path d="m136.82 178.55c-2.58-2-4.24-1.52-5.12 1.13a2.77 2.77 0 0 1 2.21-2.77 2.54 2.54 0 0 1 2.91 1.64z"/><path d="m27 106.81a4.11 4.11 0 0 1 -4.85-1.55c1.16-.24 1.53.84 2.31 1.07a14.11 14.11 0 0 1 2.54.48z"/><path d="m385.59 140.18a.82.82 0 0 1  .36-.68 4.68 4.68 0 0 1 2.57 1.66c-.09.35-.43.31-.73.46z"/><path d="m33.23 60.52a6.77 6.77 0 0 0 -2.56 1.6 14.68 14.68 0 0 0 -1.36 2.62 4 4 0 0 1 3.92-4.22z"/><path d="m276.36 139.49c.35.25.49.43.48.8l-1.94 1.32a1.35 1.35 0 0 1 -.89-.42 8.16 8.16 0 0 1 2.35-1.7z"/><path d="m288.68 68.12a1.56 1.56 0 0 1 -.26-1 3.57 3.57 0 0 1 2.64-1.2c-.21 1.42-1.78 1.19-2.38 2.2z"/><path d="m352.54 186.48c-1.73-.17-2.76-2.72-2-4.84a5.62 5.62 0 0 0 2 4.84z"/><path d="m523.17 166a4.75 4.75 0 0 0 -2.76 3.56c-.47-.28-.58-.57-.46-1a4.05 4.05 0 0 1 3.22-2.56z"/><path d="m310.08 186.49a5.88 5.88 0 0 0 2.13-4.62c.53 2.31-.46 4.53-2.13 4.62z"/><path d="m424.89 151.07a4 4 0 0 0 -1.17 3.48c-.92-1.64-.5-3.19 1.17-3.48z"/><path d="m351.54 193.32a15.42 15.42 0 0 0 6.87-.51 8.79 8.79 0 0 1 -6.87.51z"/><path d="m311.25 193.26a8.69 8.69 0 0 1 -6.88-.38 15.86 15.86 0 0 0 6.88.38z"/><path d="m54.32 164.44c1-.17 2-.3 3-.54s1.82-.57 2.75-.78a8 8 0 0 1 -5.75 1.32z"/><path d="m529.8 177.55c-1.79-.67-3.1-.07-4.18 1.79a1.88 1.88 0 0 1 1.23-2.08 2.32 2.32 0 0 1 2.95.29z"/><path d="m124.45 190.58a2.81 2.81 0 0 1 -4.35.1 4.36 4.36 0 0 0 4.35-.1z"/><path d="m142.18 168.86a5.51 5.51 0 0 0 -3.1-2.94c2.26.36 3.48 1.53 3.1 2.94z"/><path d="m426.53 105.24a14.19 14.19 0 0 1 2.89-.13c-.72.95-1.42 1.01-2.89.13z"/><path d="m371.46 65.77a3.46 3.46 0 0 1 1.9.68.7.7 0 0 1 -.06.83c-1.38-.41-1.38-.41-1.84-1.51z"/><path d="m442.1 158.37c.65-1.64 1.82-2 3.67-1-.92-.06-1.55-.3-2.16 0a17 17 0 0 0 -1.51 1z"/><path d="m11.89 210c .64-1.29 1.69-1.94 1.7-3.29.72.98-.04 2.46-1.7 3.29z"/><path d="m239.06 154.38a5.46 5.46 0 0 0 -1-3.19c1.33.13 1.75 1.39 1 3.19z"/><path d="m433.11 173.51c.74.2.82.93 1.2 1.36s.93.83 1.45 1.31a3.54 3.54 0 0 1 -2.65-2.67z"/><path d="m264.59 61.25a4.71 4.71 0 0 0 -5.12.35 3.47 3.47 0 0 1 5.09-.32z"/><path d="m219.91 157.49c-1.06-.32-2.09-.63-3.23.37 1.04-1.39 1.94-1.46 3.23-.37z"/><path d="m233.28 105.38c1.23-.38 1.24-.38 2.17.15-.82.63-1.45.29-2.17-.15z"/><path d="m449.93 157.46a4.83 4.83 0 0 1 4.13-.29c-.76 0-1.43 0-2.09 0a14.15 14.15 0 0 0 -2.04.29z"/><path d="m90.88 142.31a5.39 5.39 0 0 1 1-3.95c-.21.63-.44 1.25-.62 1.89s-.21 1.19-.38 2.06z"/><path d="m218.41 228.88a12.11 12.11 0 0 0 3.82 0 4.43 4.43 0 0 1 -3.82 0z"/><path d="m398.48 60.93a3.76 3.76 0 0 1 4.25 0 6.49 6.49 0 0 0 -4.19 0z"/><path d="m311.94 78.78a6.87 6.87 0 0 1 -4.07.62 30.9 30.9 0 0 0 4.07-.62z"/><path d="m466.08 186.28a1.66 1.66 0 0 1 -1.12-1.75 2.25 2.25 0 0 1 1.12 1.75z"/><path d="m212.3 157.29c-.58 0-1.17-.11-1.75-.13s-1.16 0-1.66 0a3.59 3.59 0 0 1 3.39.16z"/><path d="m407.66 201.11a2.92 2.92 0 0 1 -1.7 2c .48-.75 1.21-1.26 1.7-2z"/><path d="m12.21 212.4 2.49-1.1c-.7.78-.96.89-2.49 1.1z"/><path d="m279.16 142a1 1 0 0 1 -1.34.57c0-.5.39-.67.68-.9.28-.1.45.05.66.33z"/><path d="m384.89 142.46a1 1 0 0 1 -1.45-.52.51.51 0 0 1  .53-.42 1.65 1.65 0 0 1  .92.94z"/><path d="m322.49 43c1.11-.54 2.27-.09 3.4-.16-1.14 0-2.28.11-3.43.13z"/><path d="m28 192c .11.92-.37 1.76-.38 2.66-.39-1 .24-1.76.39-2.64z"/><path d="m166.37 153.23a2.38 2.38 0 0 1  .08-2c .22.7-.2 1.33-.08 2z"/><path d="m26.07 64.11c.06.74-.42 1.39-.35 2.13-.31-1.16-.31-1.2.39-2.09z"/><path d="m102.81 157.63a1.42 1.42 0 0 1 1.62-.82c-.52.52-1.21.42-1.62.82z"/><path d="m280.65 152.87a1.25 1.25 0 0 1  .14-1.38z"/><path d="m492.66 190.65a3.34 3.34 0 0 1 -1.75.53 1.93 1.93 0 0 1 1.75-.53z"/><path d="m171.15 191a1.39 1.39 0 0 1 -1.47-.33 1.35 1.35 0 0 1 1.47.33z"/><path d="m496.16 151.26a1.68 1.68 0 0 1  .29 1.58 2.27 2.27 0 0 1 -.29-1.58z"/><path d="m331.38 122.78c.1.51 0 .81-.33 1-.09 0-.23 0-.25-.09-.22-.51-.23-.92.58-.91z"/><path d="m212.28 157.32a2.66 2.66 0 0 1 1.9.82 5.61 5.61 0 0 1 -1.88-.85z"/><path d="m430.93 187.26a3.72 3.72 0 0 1 0-2.36 3.18 3.18 0 0 1 0 2.36z"/><path d="m256.32 202.87a2.52 2.52 0 0 1 -1.22-1.46 4.59 4.59 0 0 1 1.31 1.36z"/><path d="m462.39 173c .34-.23.6-.13.81.23-.07.42-.35.48-.71.41a.45.45 0 0 1 -.1-.64z"/><path d="m26 69.45a1.45 1.45 0 0 1 -.32-1.53 3.09 3.09 0 0 1  .32 1.53z"/><path d="m449.85 133.44c.19-.44.67-.7.75-1.21a.89.89 0 0 1  .48.85l-1.14.43z"/><path d="m230.09 209.64.12 2.28a3.31 3.31 0 0 1 -.11-2.28z"/><path d="m416.3 204.77v.71z"/><path d="m405.75 186.91 1.17-1c-.28.48-.5 1-1.2 1z"/><path d="m256.41 202.78 1.32.86a1.79 1.79 0 0 1 -1.41-.76z"/><path d="m381.69 151.31c.6.35.48.75.58 1.11-.65-.17-.27-.65-.58-1.11z"/><path d="m398.54 61-1.15 1a1.42 1.42 0 0 1 1.09-1.08z"/><path d="m402.38 194.83a2.76 2.76 0 0 1  .15 1.7 4.56 4.56 0 0 1 -.12-1.72z"/><path d="m322.46 43c-.3.41-.78.46-1.34.67a1.69 1.69 0 0 1 1.37-.63z"/><path d="m254.21 199.31.36.85a.74.74 0 0 1 -.36-.85z"/><path d="m78.58 136.59-1.44.08a2.2 2.2 0 0 1 1.46-.08z"/><path d="m348.51 128.57c-.17.16-.32.18-.45-.05.19-.23.34-.28.45.05z"/><path d="m192.56 136.57-1.42.11v-.11h1.43z"/><path d="m254.88 184.91c.38.08.52.34.57.75a.91.91 0 0 1 -.54-.77z"/><path d="m471.06 136.63a.46.46 0 0 1  .62 0z"/><path d="m464.18 192.62.73.34c-.37.16-.51-.06-.73-.34z"/><path d="m401.34 204.66.51.07h-.52z"/><path d="m306.87 158.72a1 1 0 0 1 1.2-.09c-.35.28-.67.19-1.2.09z"/><path d="m361.8 218.93a1.18 1.18 0 0 1 -.49 1c .18-.45.18-.82.52-1z"/><path d="m187.21 220.29c-.25-.13-.42-.29-.34-.62a.63.63 0 0 1  .34.62z"/><path d="m301.18 219.67c.1.2.34.32.27.6-.19-.16-.45-.27-.27-.6z"/><path d="m31.92 195.09v1.32a1.33 1.33 0 0 1 0-1.29z"/><path d="m351.14 128.59c-.19.21-.38.21-.61-.1.25-.19.47-.41.61.1z"/><path d="m336.64 42.89c.21-.16.44-.14.79 0-.33.11-.55.18-.79 0z"/><path d="m418 209.88a.58.58 0 0 1 -.45-.49c.36-.08.35.19.45.49z"/><path d="m314.45 128.51c0 .11-.07.17-.16.13s-.08-.12-.1-.19.06-.06.09-.07.16.02.17.13z"/><path d="m339.57 43-.72-.08c.35-.18.56-.14.72.08z"/><path d="m244.28 210.31a.44.44 0 0 1  .27-.42c.13.29.01.4-.27.42z"/><path d="m216.37 188.6.17-.21c.06.15-.03.18-.17.21z"/><path d="m354.34 79.38a.39.39 0 0 1  .6 0 .36.36 0 0 1 -.6 0z"/><path d="m416.39 178.55a.3.3 0 0 1  .22.35c-.2-.05-.23-.18-.22-.35z"/><path d="m248.81 107.37v-.26c.28.05.03.27 0 .26z"/><path d="m16.18 210.12c.1.26-.11.32-.26.43-.19-.31.01-.38.26-.43z"/><path d="m261.67 204.8-.61-.09s.07 0 .11 0 .15 0 .5.09z"/><path d="m408.63 198.71c0-.11-.08-.22 0-.31.08.11.12.22 0 .31z"/><path d="m530.81 179c-.1-.14-.25-.25-.21-.45.32-.01.34.16.21.45z"/><path d="m311.48 128.53c.24-.31.42-.31.61-.09-.09.43-.28.35-.61.09z"/><path d="m264.56 61.27a.52.52 0 0 1  .61.46c-.35 0-.47-.23-.58-.48z"/><path d="m17.76 178.54c0 .27.15.55 0 .83-.18-.28.07-.55 0-.82z"/><path d="m558 229c .1-.32.39-.22.64-.32-.13.4-.4.32-.65.31z"/><path d="m258 215.45c-.29 0-.52-.11-.41-.42.3-.03.33.25.41.42z"/><path d="m89.35 163.07v-.29c.12.13.16.22 0 .29z"/><path d="m141.31 209.63c.16-.46.91-.14 1-.88a19.38 19.38 0 0 1 -6.2-5.16 1.3 1.3 0 0 1 1.13.57 20.41 20.41 0 0 0 4.26 3.33 10.7 10.7 0 0 0 15.29-4.61 2 2 0 0 1  .57-.91c.54.5.18 1 0 1.41a11.09 11.09 0 0 1 -7.14 5.85 13.25 13.25 0 0 1 -4.66.29 21.58 21.58 0 0 0 -4.24.08z"/><path d="m141.69 194.26c.3 3 1.55 4.93 4.2 5.77a5.31 5.31 0 0 0 5.85-2 3.06 3.06 0 0 0  .14-3.58 3.09 3.09 0 0 0 -3.16-1.43 3 3 0 0 0 -2.39 1.73c-.19.39-.32.81-.54 1.19a3.15 3.15 0 0 1 2.05-3.12 3.5 3.5 0 0 1 3.85.53 3.71 3.71 0 0 1 1.1 4 4.23 4.23 0 0 1 -1.24 2 6.18 6.18 0 0 1 -6.59 1 6 6 0 0 1 -3.58-5.46c.01-.12.13-.24.31-.63z"/><path d="m151.15 189c-2.27-.32-4.5-.54-6.66.69-.08-.73.42-1 .63-1.48 2.07.14 4.11-.26 6.03.79z"/><path d="m158.07 198.36a38.37 38.37 0 0 0 -1.34-4.85 5.81 5.81 0 0 1 1.34 4.85z"/><path d="m141.28 209.61a12.09 12.09 0 0 0 -4.88 3c .36-1.61 2.75-3 4.9-3z"/><path d="m147.43 184.26c1.44.34 2.74-.21 4.16-.62-.67 1.22-2.8 1.56-4.16.62z"/><path d="m139.6 197.84a21.73 21.73 0 0 0 1.11 2.93 3 3 0 0 1 -1.11-2.93z"/><path d="m142.41 203.1a1.15 1.15 0 0 1 -.9-.88c.43.17.81.39.87.91z"/><path d="m142.38 203.13c.5-.05.78.32 1.21.64a1.31 1.31 0 0 1 -1.18-.67z"/><path d="m147.11 204.72c-.15 0-.08 0 0 0-.11.02-.11.03 0 0z"/><path d="m526.4 212.52c-.46 0-.62-.23-.83-.43a9.14 9.14 0 0 0 -7.35-2.63 16.49 16.49 0 0 1 -5.69-.22 11 11 0 0 1 -7.47-6.5 4.17 4.17 0 0 1 -.46-2.56 1.42 1.42 0 0 0 0-.72c-.66-1.92 0-3.64.77-5.35a.29.29 0 0 1  .38-.14c.28.34 0 .64-.13.93a9.69 9.69 0 0 0 2.2 10.72 10.15 10.15 0 0 0 11 2.91 16.16 16.16 0 0 0 6.16-3.87c.3-.27.5-.72 1.3-.71a18.88 18.88 0 0 1 -5.92 4.85c.5.74 1.22.61 1.79.76a8.26 8.26 0 0 1 3.93 2.16c.12.2.4.37.32.8z"/><path d="m521.21 195.68a5.76 5.76 0 0 1 -3.45 4.63 5.91 5.91 0 0 1 -6.47-.83 4.13 4.13 0 0 1 -1.43-4.46 3.61 3.61 0 0 1 4.43-2.41c1.73.4 2.67 1.86 2.44 3.92a7.26 7.26 0 0 0 -.18-1.21 3.06 3.06 0 0 0 -2.44-2.27 3.1 3.1 0 0 0 -3.23 1.25 3 3 0 0 0 -.2 3.33 5.25 5.25 0 0 0 6 2.42 5.54 5.54 0 0 0 3.75-3.43l.41-1.06z"/><path d="m516.86 188.2a1.11 1.11 0 0 1  .45.74s-.09.09-.12.09a12.38 12.38 0 0 0 -6.52.3c1.91-1.33 4.09-1.02 6.19-1.13z"/><path d="m514.63 184.43a3.12 3.12 0 0 1 -4.09-1.19 9.37 9.37 0 0 0 4.09 1.19z"/><path d="m519.83 203.42c.91-1.17 2.13-2.11 2.6-3.6a1.58 1.58 0 0 1  .77-1.15c-.74 2.11-1.48 3.82-3.39 4.73z"/><path d="m519.81 203.4a1.85 1.85 0 0 1 -1.29.73 2 2 0 0 1 1.32-.7z"/><path d="m515.36 204.68h.54-.25a1.48 1.48 0 0 1 -.29 0z"/><path d="m373.89 171a14.8 14.8 0 0 1 4.2.11 15 15 0 0 0 6.54 0 22.09 22.09 0 0 1 4.57-.2c-2.86 2.15-10.99 2.57-15.31.09z"/><path d="m369.69 171a2.47 2.47 0 0 1 1.43 0 3.86 3.86 0 0 1 1.23 2.53 3.18 3.18 0 0 1 -2.82 3.37 5 5 0 0 1 -3-.31c-1.33-.62-2.62-1.3-3.94-1.95-.41-.2-.76-.44-.79-1 .35-.33.64 0 .91.12.93.42 1.85.88 2.77 1.34a7.84 7.84 0 0 0 3.07.89 2.42 2.42 0 0 0 2.53-1.39 2.31 2.31 0 0 0 -.49-2.7c-.26-.25-.53-.52-.9-.9z"/><path d="m386.12 186.36a4 4 0 0 1 -4-3.6 5.49 5.49 0 0 1 4.53-6.33 6.3 6.3 0 0 1 4.72.81c.2.43-.06.6-.25.88a18.18 18.18 0 0 0 -2.23-.76 5.19 5.19 0 0 0 -5.67 2.68 4.4 4.4 0 0 0 1.75 5.74c.37.22.76.38 1.15.58z"/><path d="m369.56 181.1a.67.67 0 0 1 -.27-.6 3.71 3.71 0 0 1 4.21.2c2.25 1.44 3.19 4.15 2.5 7.13a3.76 3.76 0 0 1 -1 2.24c-.43-.58-.15-1 0-1.47a8.31 8.31 0 0 0  .17-3.91c-.46-2.26-2.61-4.28-5.15-3.61a1.63 1.63 0 0 1 -.46.02z"/><path d="m375.82 193.92.65-.89a6.7 6.7 0 0 1 4 3.5.93.93 0 0 1 -.59.8 6.77 6.77 0 0 0 -4.06-3.41z"/><path d="m376.39 191.21c2.47-1.08 5.06-1.13 7.64-1.22.07.42 0 .64-.29.69a4.23 4.23 0 0 1 -.87.05 26 26 0 0 0 -6.48.48z"/><path d="m273.16 170.89a24.35 24.35 0 0 1 5.41.28 14.74 14.74 0 0 0 6.25-.12 18.28 18.28 0 0 1 4-.15c-3.28 2.32-11.35 2.44-15.66-.01z"/><path d="m291.52 171a3.1 3.1 0 0 1 1.35 0 1.71 1.71 0 0 1 -.19.36c-.19.22-.43.4-.62.63a2.29 2.29 0 0 0 -.5 2.69 2.46 2.46 0 0 0 2.53 1.4 8.3 8.3 0 0 0 3.34-1 18.54 18.54 0 0 1 3.58-1.59 1.15 1.15 0 0 1 -.78 1.14c-1.4.7-2.79 1.4-4.2 2.06a4.82 4.82 0 0 1 -2.88.28 3.21 3.21 0 0 1 -2.33-5 11.36 11.36 0 0 1  .7-.97z"/><path d="m271.69 178a .8.8 0 0 1 -.44-.64c.06-.08.09-.19.17-.23a6.22 6.22 0 0 1 8.48 1.95 5.08 5.08 0 0 1 -2.51 7.41.85.85 0 0 1 -.72 0c-.13-.34.17-.37.36-.45a4.47 4.47 0 0 0 2.77-5.04 5 5 0 0 0 -5.1-3.78 9.35 9.35 0 0 0 -3.01.78z"/><path d="m293.29 180.52c-.08.58-.39.57-.77.55-3.16-.12-5 1.59-5.12 4.77a8.32 8.32 0 0 0  .38 3c .12.36.35.74-.12 1-.4 0-.44-.33-.53-.57-1-2.66-1.14-5.24.81-7.57a4.15 4.15 0 0 1 5.35-1.18z"/><path d="m286.1 193.06.68.82c-1.71.73-3.21 1.66-3.9 3.4a.9.9 0 0 1 -.62-.88 6.64 6.64 0 0 1 3.84-3.34z"/><path d="m286.45 191.38c-2.49-1-5.16-.31-7.69-.91 0 0 0-.17-.05-.27a13.59 13.59 0 0 1 7.74 1.18z"/></g></svg>