<svg xmlns="http://www.w3.org/2000/svg" width="57.34" height="24.4" viewBox="0 0 57.34 24.4">
  <metadata><?xpacket begin="﻿" id="W5M0MpCehiHzreSzNTczkc9d"?>
<x:xmpmeta xmlns:x="adobe:ns:meta/" x:xmptk="Adobe XMP Core 5.6-c138 79.159824, 2016/09/14-01:09:01        ">
   <rdf:RDF xmlns:rdf="http://www.w3.org/1999/02/22-rdf-syntax-ns#">
      <rdf:Description rdf:about=""/>
   </rdf:RDF>
</x:xmpmeta>
                                                                                                    
                                                                                                    
                                                                                                    
                                                                                                    
                                                                                                    
                                                                                                    
                                                                                                    
                                                                                                    
                                                                                                    
                                                                                                    
                                                                                                    
                                                                                                    
                                                                                                    
                                                                                                    
                                                                                                    
                                                                                                    
                                                                                                    
                                                                                                    
                                                                                                    
                                                                                                    
                           
<?xpacket end="w"?></metadata>
<defs>
    <style>
      .cls-1 {
        fill: #fff;
        fill-rule: evenodd;
      }
    </style>
  </defs>
  <path id="soundcloud" class="cls-1" d="M1057.56,5440.23a8.372,8.372,0,0,1,2.15-.5,7.1,7.1,0,0,1,7.52,5.66,6.932,6.932,0,0,1-4.82,7.81,7.625,7.625,0,0,1-2.28.33h-13.82c-1.76,0-3.53-.01-5.29-0.01a0.9,0.9,0,0,1-1.08-1.05v-21.61a0.8,0.8,0,0,1,.66-0.9,12.388,12.388,0,0,1,9.29.11,12.007,12.007,0,0,1,7.5,9.05C1057.46,5439.47,1057.5,5439.82,1057.56,5440.23Zm-18.1-.33c0.06,2.34.16,4.69,0.15,7.03-0.01,1.67-.18,3.35-0.28,5.03-0.02.23-.03,0.47-0.05,0.7a0.784,0.784,0,0,1-.79.81,0.754,0.754,0,0,1-.77-0.78c-0.07-1.02-.11-2.05-0.18-3.08-0.29-4.41.06-8.82,0.08-13.23,0.01-1.57.05-3.14,0.09-4.72a0.793,0.793,0,0,1,1.14-.82,0.843,0.843,0,0,1,.44.8c0.05,2.66.11,5.32,0.16,7.98v0.28h0.01Zm-2.36,2.88c0,0.96-.02,1.92,0,2.87,0.06,2.4-.19,4.78-0.29,7.16a0.72,0.72,0,0,1-1.44-.01,106.6,106.6,0,0,1-.19-11.02c0.08-2.92.12-5.84,0.18-8.77v-0.17a0.73,0.73,0,1,1,1.46.01c0.03,1.07.05,2.15,0.07,3.23,0.05,2.23.1,4.47,0.14,6.7h0.07Zm-4.35,1.69c0.08-3.43.16-6.35,0.23-9.27a0.691,0.691,0,0,1,.7-0.78,0.7,0.7,0,0,1,.67.8c0.08,2.89.11,5.77,0.25,8.65a72.194,72.194,0,0,1-.21,8.19c-0.01.23-.02,0.47-0.04,0.71a0.671,0.671,0,0,1-.67.72,0.688,0.688,0,0,1-.7-0.74A74.7,74.7,0,0,1,1032.75,5444.47Zm-0.65-3.14c0.03,1.95.21,4.01,0.14,6.06-0.06,1.83-.22,3.66-0.35,5.49a0.6,0.6,0,0,1-.63.6,0.59,0.59,0,0,1-.62-0.61c-0.07-1.11-.13-2.22-0.2-3.33-0.28-4.24.09-8.48,0.14-12.73,0-.69.03-1.39,0.05-2.09a0.634,0.634,0,1,1,1.26.01C1031.96,5436.9,1032.03,5439.06,1032.1,5441.33Zm-4-.1c0.06-2.22.12-4.45,0.19-6.67,0.01-.56.2-0.82,0.57-0.83,0.39-.01.59,0.25,0.61,0.84q0.135,3.915.25,7.83c0.04,1.24.08,2.48,0.13,3.73,0.06,1.6-.17,3.18-0.25,4.78-0.02.55-.07,1.1-0.11,1.66-0.01.13-.02,0.26-0.04,0.39a0.567,0.567,0,0,1-.57.53,0.561,0.561,0,0,1-.57-0.53c-0.06-.58-0.09-1.16-0.12-1.74-0.07-1.66-.28-3.32-0.23-4.99s0.09-3.33.14-5h0Zm-0.8.56c0.05,1.36.18,3.28,0.16,5.21-0.01,1.57-.2,3.14-0.32,4.71-0.02.39-.05,0.77-0.09,1.16a0.555,0.555,0,0,1-.52.61,0.564,0.564,0,0,1-.56-0.62c-0.09-1.25-.14-2.5-0.25-3.75-0.27-3.18.07-6.36,0.11-9.54,0.02-1.52.09-3.05,0.14-4.57,0.02-.58.18-0.8,0.55-0.79s0.51,0.21.53,0.77C1027.13,5437.06,1027.2,5439.14,1027.3,5441.79Zm-3.84-.31c0.08-1.9.15-3.8,0.22-5.71a0.491,0.491,0,1,1,.97-0.01q0.15,3.315.28,6.63c0.05,1.09.07,2.18,0.14,3.27a23.278,23.278,0,0,1-.12,3.64c-0.11,1.2-.19,2.41-0.29,3.61a0.5,0.5,0,0,1-.51.57c-0.29,0-.44-0.19-0.47-0.59-0.14-1.89-.35-3.77-0.39-5.66-0.05-1.65.09-3.31,0.15-4.97l0.03-.78h-0.01Zm-2.29,1.07c0.07-1.5.14-3,.22-4.5,0.02-.47.17-0.69,0.45-0.69s0.43,0.22.46,0.69c0.15,2.95.33,5.9,0.45,8.86a20.445,20.445,0,0,1-.17,2.58l-0.27,3.18c-0.01.14-.03,0.28-0.05,0.42a0.423,0.423,0,0,1-.84.01c-0.06-.4-0.08-0.8-0.11-1.2-0.12-1.58-.29-3.16-0.34-4.74-0.03-1.15.09-2.29,0.14-3.44l0.06-1.17h0Zm-0.72,4.52c-0.14,1.59-.28,3.13-0.42,4.67-0.03.41-.07,0.82-0.11,1.24a0.4,0.4,0,0,1-.41.44,0.387,0.387,0,0,1-.38-0.43c-0.15-1.93-.36-3.86-0.43-5.8a28.642,28.642,0,0,1,.23-3.32c0.06-.75.13-1.5,0.19-2.26a1.087,1.087,0,0,0,.01-0.18,0.4,0.4,0,0,1,.42-0.44,0.406,0.406,0,0,1,.37.44c0.12,1.29.24,2.57,0.36,3.85C1020.34,5445.89,1020.4,5446.5,1020.45,5447.07Zm-4.03-.37q0.24-2.835.46-5.66a0.361,0.361,0,1,1,.71-0.01c0.18,1.93.36,3.86,0.52,5.8a14.744,14.744,0,0,1-.18,2.47c-0.09,1.16-.22,2.33-0.34,3.49a1.087,1.087,0,0,1-.01.18,0.339,0.339,0,0,1-.34.35,0.347,0.347,0,0,1-.35-0.37c-0.06-.6-0.11-1.2-0.16-1.8-0.1-1.3-.21-2.59-0.32-3.89A5.186,5.186,0,0,1,1016.42,5446.7Zm-1.45,6.41a0.44,0.44,0,0,1-.32-0.52c-0.11-1.13-.21-2.26-0.31-3.39-0.05-.51-0.09-1.02-0.15-1.52a17.7,17.7,0,0,1,.16-3c0.07-1.1.18-2.19,0.29-3.28,0.03-.22-0.06-0.58.32-0.58s0.29,0.35.32,0.58c0.19,1.81.38,3.62,0.56,5.43a9.726,9.726,0,0,1-.15,1.86c-0.12,1.31-.28,2.61-0.41,3.92A0.457,0.457,0,0,1,1014.97,5453.11Zm-2.38-11.28a0.263,0.263,0,0,1,.37.27c0.14,1.13.22,2.26,0.44,3.37a16.7,16.7,0,0,1-.26,5.04c-0.05.44-.12,0.89-0.18,1.33a0.432,0.432,0,0,1-.14.34c-0.27.08-.34-0.08-0.37-0.31-0.12-1.06-.19-2.12-0.37-3.17-0.34-1.86.11-3.67,0.25-5.5,0.03-.33.08-0.66,0.11-0.99A0.543,0.543,0,0,1,1012.59,5441.83Zm-2.01,8.51a0.309,0.309,0,0,1-.24-0.32c-0.13-.94-0.27-1.87-0.37-2.81a7.459,7.459,0,0,1,.17-1.69c0.05-.49.14-0.98,0.2-1.47,0.03-.21.09-0.37,0.37-0.29a11.423,11.423,0,0,1,.13,6.27A0.327,0.327,0,0,1,1010.58,5450.34Z" transform="translate(-1009.97 -5429.13)"/>
</svg>
