<svg viewBox="0 0 73.99 75.62" xmlns="http://www.w3.org/2000/svg"><g fill="#fff"><path d="m3.82 27.92a3.52 3.52 0 0 1  .64.63 16.38 16.38 0 0 0 2.74 2.45 6.13 6.13 0 0 0 2.1 1 25.31 25.31 0 0 0 4.38.63c2.13.2 4.28.28 6.39.61a19.6 19.6 0 0 1 3.42.86 16.33 16.33 0 0 0 2.51 3.45 16.58 16.58 0 0 0 3.42 2.53.35.35 0 0 1 -.41 0 21 21 0 0 0 -5.82-1.46c-1.62-.24-3.27-.3-4.89-.52a26.93 26.93 0 0 1 -7.25-1.77 9.28 9.28 0 0 1 -2.65-1.58s-.08-.09-.18-.06a.78.78 0 0 0  .09.49 18.15 18.15 0 0 0 6.27 8.19 12.49 12.49 0 0 0 5.13 2 2.53 2.53 0 0 1 3.16.38c3.15-.29 6.35-.65 9.64-.77a1.63 1.63 0 0 0  .28 2.02c-3.38 0-6.65-.18-9.93-.41.7.35 1.5.56 1.39 1.61.72.12 1.43.28 1.76 1.09a2.22 2.22 0 0 1 2.34 1 2.51 2.51 0 0 1 2.67.63 2.61 2.61 0 0 1 2.83.31 2.88 2.88 0 0 1 1.36-.35l.61-.53a3.12 3.12 0 0 0 -1.86.11 3.3 3.3 0 0 0 -2.73-.29 3.27 3.27 0 0 0 -2.57-.62 3.18 3.18 0 0 0 -1.73-1h7.83a2.81 2.81 0 0 1  .7.08 5.79 5.79 0 0 0 3 0 1.77 1.77 0 0 1  .54-.03h7.9.16a2.94 2.94 0 0 0 -1.76.92 3.3 3.3 0 0 0 -2.58.62 3.25 3.25 0 0 0 -2.7.28 3.33 3.33 0 0 0 -1.79-.11l.65.54a2.81 2.81 0 0 1 1.19.35 2.59 2.59 0 0 1 2.82-.31 2.48 2.48 0 0 1 2.68-.63 2.2 2.2 0 0 1 2.35-1 1.9 1.9 0 0 1 1.73-1.08c-.08-1 .67-1.29 1.43-1.53-.1-.21-.25-.14-.37-.13-3 .3-6 .4-8.94.45a1 1 0 0 1 -.46 0c .15-.35.51-.57.52-1a3.09 3.09 0 0 0 -.35-1c3.24.12 6.42.46 9.54.77a2.55 2.55 0 0 1 3.15-.4 12.48 12.48 0 0 0 5.49-2.27 18 18 0 0 0 4.62-5.43 20.68 20.68 0 0 0 1.31-2.69 1.55 1.55 0 0 0 -1.11.42 10.14 10.14 0 0 1 -2.56 1.29 24.6 24.6 0 0 1 -5.07 1.21c-2.4.34-4.82.52-7.21.88a17.65 17.65 0 0 0 -4.71 1.25.28.28 0 0 1 -.3 0 16.61 16.61 0 0 0 3.42-2.57 15.63 15.63 0 0 0 2.5-3.43 15.16 15.16 0 0 1 2.38-.61 59.24 59.24 0 0 1 6.65-.71 21.32 21.32 0 0 0 4.25-.61 10.84 10.84 0 0 0 5.6-3.63l.5-.62a1.47 1.47 0 0 1  .14.57 10.25 10.25 0 0 1 -.26 3.08 22.53 22.53 0 0 1 -2.38 6.83 15.4 15.4 0 0 1 -11.3 8c-.48.08-1 .12-1.44.18a2.23 2.23 0 0 1 -1.41.93 1 1 0 0 1 -.08 1 1.85 1.85 0 0 1 -1.09.63 1.52 1.52 0 0 0 -.43.09 1.54 1.54 0 0 1 -1.68 1.57c-.23 0-.47 0-.7 0a2.25 2.25 0 0 1 -2.81.92 1.81 1.81 0 0 1 -1.37 1 2.88 2.88 0 0 1 -1.69-.22 2.52 2.52 0 0 1 -3.06.45 2.76 2.76 0 0 1 -1.61.58 2.38 2.38 0 0 1 -1.12.81c-.14 0-.23.18-.33.29l-1.31 1.28a3.76 3.76 0 0 1 -.31-1.66 4 4 0 0 0 -1.49 2.85 5.1 5.1 0 0 0 1.48 3.58c.1-.4.18-.73.27-1.05a1 1 0 0 1  .4-.57 8.89 8.89 0 0 0 1-.72 6.08 6.08 0 0 0  .89-1 4.13 4.13 0 0 1 -.07 2.44c-.26.81-1 1.2-1.51 1.8a.28.28 0 0 0  .22.29c.44-.28.74-.74 1.18-1.1a3.08 3.08 0 0 1  .18 2.33 3 3 0 0 0  .83.8 8.38 8.38 0 0 1 2.61 3.51 3.18 3.18 0 0 1  .22 1.69 6.7 6.7 0 0 1 -2.19 4 5.65 5.65 0 0 1 -.42.39 1.25 1.25 0 0 0 -.5.79 1.77 1.77 0 0 1 -1.55 1.38 1.79 1.79 0 0 1 -1.81-.88 1.81 1.81 0 0 1  .42-2.39 18.37 18.37 0 0 0 2-1.76s.05 0 .11 0a3.34 3.34 0 0 1  .2 1.8.42.42 0 0 0  .42-.17 6.16 6.16 0 0 0 1.76-2.56 3.63 3.63 0 0 0  .05-1.88 7.54 7.54 0 0 0 -2.33-3.72 1.9 1.9 0 0 0 -.24-.16 3.19 3.19 0 0 1 -1.82 1.16 3.47 3.47 0 0 1 -.08-2.59c-.44-.4-.92-.78-1.33-1.22a5.69 5.69 0 0 1 -1.59-3.34 4.15 4.15 0 0 1  .53-2.39 11.4 11.4 0 0 1 1.35-1.87c0-.05.12-.1.11-.21a2.47 2.47 0 0 1 -1.4-.59 2.57 2.57 0 0 1 -3.1-.42c-1.44.56-2.62.13-3.06-.74-1.11.24-2.15.24-2.81-.92-1.48.08-2.38-.47-2.33-1.51-1.57-.46-1.87-.78-1.61-1.78a1.86 1.86 0 0 1 -1.37-1 14.77 14.77 0 0 1 -5.23-1.17 15.56 15.56 0 0 1 -9.08-10.25 37.16 37.16 0 0 1 -1.09-4.47c-.12-.72-.17-1.44-.21-2.16-.06-.19-.1-.37.12-.45z"/><path d="m52.37 2.67c.09.13 0 .22-.09.31a33.4 33.4 0 0 0 -2.65 3.5c-.31.49-.56 1-.84 1.51a18.67 18.67 0 0 0 -2 5.28 7 7 0 0 0 0 2.82 16.28 16.28 0 0 0 1.2 4.2c.33.66.71 1.29 1.09 1.92a19.51 19.51 0 0 1 1.08 2 9.46 9.46 0 0 1  .59 2.49 12.66 12.66 0 0 1 -.75 6.89 10.29 10.29 0 0 1 -1.81 2.72 14.11 14.11 0 0 1 -7.11 4.43 17 17 0 0 1 -3.72.48 14.33 14.33 0 0 1 -13-7 10.66 10.66 0 0 1 -1.19-4 14.78 14.78 0 0 1  .26-4.75 10 10 0 0 1 1.32-3 17.75 17.75 0 0 0 1.58-3 13.56 13.56 0 0 0  .93-6 10.66 10.66 0 0 0 -.6-2.18 23 23 0 0 0 -3.66-6.74c-.47-.55-1-1.17-1.46-1.8a1.33 1.33 0 0 1  .62.28 30 30 0 0 1 2.94 2.34 26.86 26.86 0 0 1 2.35 2.33 8.15 8.15 0 0 1 1.63 2.41c.38.85.75 1.7 1.06 2.58a10.68 10.68 0 0 1  .6 3.43 9.27 9.27 0 0 1 -.47 3c-.13.41-.2.83-.32 1.24a19.4 19.4 0 0 1 -.86 2.27 17.55 17.55 0 0 0 -1.2 5.11 5.67 5.67 0 0 0 2.21 5.15 5 5 0 0 0  .87.53 10.12 10.12 0 0 0 1.47.72 1.49 1.49 0 0 0 1.82-.47 2.27 2.27 0 0 0  .38-2.13 8 8 0 0 0 -.53-1.36l-.56-1.18a126.58 126.58 0 0 0 2.06-13.08 1.36 1.36 0 0 1  .08.64v4.34a7.7 7.7 0 0 0  .08 1.06 2.51 2.51 0 0 0 1 1.92 2.47 2.47 0 0 0 -.7 2.54c.23 1.16.52 2.3.79 3.46 0 .05 0 .12.14.13l.37-1.57c.15-.63.29-1.27.44-1.9a3.16 3.16 0 0 0 0-1.49 1.71 1.71 0 0 0 -.66-1.1s0-.08 0-.1a2.78 2.78 0 0 0 1-2.18c.09-1.61 0-3.22 0-4.83a1 1 0 0 1  .08-.47c0 .28.08.57.11.85q.52 4.54 1.35 9c .15.8.3 1.6.48 2.39a1.08 1.08 0 0 1 -.11.8 8 8 0 0 0 -.94 2.24 3.13 3.13 0 0 0 0 1.28 1.56 1.56 0 0 0 2 1.26 6.84 6.84 0 0 0 1.47-.6 6 6 0 0 0 3.05-3.19 5.8 5.8 0 0 0  .32-2.92c-.09-.88-.27-1.75-.44-2.62a15.85 15.85 0 0 0 -.94-2.72 16 16 0 0 1 -.9-2.72c-.1-.5-.28-1-.38-1.5a10.17 10.17 0 0 1  .5-5.4c.33-.92.73-1.81 1.13-2.69a8.11 8.11 0 0 1 1.5-2.13c.48-.52 1-1 1.48-1.52s1.53-1.18 2.19-1.84a22.73 22.73 0 0 1 2.28-1.67z"/><path d="m9.64 14.79a1.38 1.38 0 0 1 1 .06 27.49 27.49 0 0 1 8.06 4.64 1.11 1.11 0 0 1  .43.67 1.33 1.33 0 0 1 -.92-.23c-1.35-.76-5.64-2-6-1.85a2.44 2.44 0 0 0 0 1.46 18.67 18.67 0 0 0 1.57 5.15 5.42 5.42 0 0 0  .63 1 20.15 20.15 0 0 0 5.2 4.7c1 .59 1.9 1.2 2.84 1.8a1.43 1.43 0 0 1  .4.3l.26.86a19.12 19.12 0 0 1 -9-4.71 15.17 15.17 0 0 1 -4.5-8.55 19.22 19.22 0 0 1 -.26-4.32 2.15 2.15 0 0 1  .29-.98z"/><path d="m64.36 14.79a1.38 1.38 0 0 0 -1 .06 27.49 27.49 0 0 0 -8.06 4.64 1.11 1.11 0 0 0 -.43.67 1.33 1.33 0 0 0  .92-.23c1.35-.76 5.64-2 6-1.85a2.44 2.44 0 0 1 0 1.46 18.67 18.67 0 0 1 -1.57 5.15 5.42 5.42 0 0 1 -.63 1 20.15 20.15 0 0 1 -5.2 4.7c-1 .59-1.9 1.2-2.84 1.8a1.43 1.43 0 0 0 -.4.3l-.26.86a19.12 19.12 0 0 0 9-4.71 15.17 15.17 0 0 0 4.5-8.55 19.22 19.22 0 0 0  .26-4.32 2.15 2.15 0 0 0 -.29-.98z"/><path d="m22.26 29.36a14.31 14.31 0 0 1 -1.76-4.23 18.48 18.48 0 0 1  .2-8.6 17.76 17.76 0 0 1 2.59-5.65c.47-.7 1-1.38 1.5-2.06a14.56 14.56 0 0 1 1.51 3.63c-.62.93-1.24 1.81-1.81 2.72a13.94 13.94 0 0 0 -2.21 7.33 10 10 0 0 0  .31 2.5 2.33 2.33 0 0 1 0 1 15.43 15.43 0 0 0 -.27 3.17 1.66 1.66 0 0 1 0 .21z"/><path d="m51.65 28.93a15.24 15.24 0 0 0 -.21-2.54 2.46 2.46 0 0 0 -.05-.39 4 4 0 0 1 0-2 11.07 11.07 0 0 0 -.84-6.28 22.35 22.35 0 0 0 -2.45-4.45l-.43-.61a15.8 15.8 0 0 1 1.43-3.66c.14 0 .17.08.22.15a22.05 22.05 0 0 1 4.12 8.64 15.48 15.48 0 0 1 -1.44 10.74l-.23.42z"/><path d="m67.76 21.58a25.64 25.64 0 0 1 -.18 5.58 4.65 4.65 0 0 1 -4 4 37.06 37.06 0 0 1 -4.17.51l-2.52.2a.47.47 0 0 1 -.32 0c0-.28.2-.4.4-.52a24.33 24.33 0 0 0 2.37-1.64 28.12 28.12 0 0 0 4.25-4.14c1.08-1.29 2.26-2.5 3.42-3.72a.63.63 0 0 1  .75-.27z"/><path d="m6.1 21.58a25.64 25.64 0 0 0  .18 5.58 4.65 4.65 0 0 0 4 4 37.06 37.06 0 0 0 4.17.51l2.52.2a.47.47 0 0 0  .32 0c0-.28-.2-.4-.4-.52a24.33 24.33 0 0 1 -2.37-1.64 28.12 28.12 0 0 1 -4.25-4.14c-1.08-1.35-2.27-2.57-3.42-3.78a.63.63 0 0 0 -.75-.21z"/><path d="m6 39.81a3 3 0 0 1 -.8.61 12.57 12.57 0 0 0 -1.76 1.34c-.18.18-.34.36-.5.54 0 .17.17.24.27.32a27.34 27.34 0 0 0 2.34 1.82 12.22 12.22 0 0 0 6.64 2.19c1.51.06 3 .2 4.5.37a.91.91 0 0 1  .34.1c0 .15-.11.19-.19.26a1.77 1.77 0 0 1 -.82.32c-1.43.18-2.85.54-4.3.59-4.29.15-8-1.13-10.74-4.57-.14-.23-.35-.44-.54-.7a1.64 1.64 0 0 1 -.44-.84c.06-.15.17-.2.27-.27a12.2 12.2 0 0 1 5.35-2.09.71.71 0 0 1  .44 0z"/><path d="m70.92 42.28c-.78-1.13-2-1.65-3.1-2.4 1-.44 5.3 1.23 6.16 2.39 0 .07-.07.15-.12.22a12.13 12.13 0 0 1 -9.95 5.74 16.79 16.79 0 0 1 -6.45-.89 1 1 0 0 1 -.48-.25l2.39-.29c1.16-.15 2.33-.1 3.49-.24a12.34 12.34 0 0 0 5.14-1.85c.7-.44 1.36-.94 2-1.44a3.63 3.63 0 0 0  .92-.99z"/><path d="m36.93 0c .11.8.18 1.3.22 1.95.24 3.36.47 6.72.78 10.07v1q0 4.1 0 8.2a3.23 3.23 0 0 1 -.24 1.34 1.36 1.36 0 0 1 -.54.66.91.91 0 0 1 -.4 0 1.43 1.43 0 0 1 -.59-.76 3.59 3.59 0 0 1 -.16-1.27q0-4.32 0-8.64c0-1.1.15-2.18.23-3.27.12-1.75.27-3.51.41-5.26.09-1.34.19-2.68.29-4.02z"/><path d="m41.21 46a4.6 4.6 0 0 1 -3 2.12 5 5 0 0 1 -4.21-.8 3.84 3.84 0 0 1 -1-1 .79.79 0 0 1 -.06-.83 4.1 4.1 0 0 1 2.84-2.35 4.39 4.39 0 0 1 5.43 2.86zm-5.33-1.41c-.59 0-.72.16-.76.72a1.59 1.59 0 0 0  .78 1.61 1.83 1.83 0 0 0 2 0 1.68 1.68 0 0 0  .65-2c-.08-.18-.17-.38-.43-.39.33.9.25 1.49-.24 1.87a1.42 1.42 0 0 1 -1.69 0c-.57-.33-.64-.79-.3-1.83zm2.18 3a3.86 3.86 0 0 0 2.4-1.59 3.84 3.84 0 0 0 -1.34-1 2.36 2.36 0 0 1 -1.05 2.53zm-3.53-2.4a2.57 2.57 0 0 0 -1 .93 3.58 3.58 0 0 0 2.1 1.39c-.86-.79-.86-.79-1.09-2.37zm-.66-.27a5.4 5.4 0 0 1 5.58-.43 4.06 4.06 0 0 0 -5.57.37z"/><path d="m56.78 41.93a6.74 6.74 0 0 1 -1.06-3.59.82.82 0 0 1  .5-.08 9 9 0 0 0  .18 1.65 7 7 0 0 0  .93 2.24 3 3 0 0 0  .65.72 2.89 2.89 0 0 1  .56.57 1.07 1.07 0 0 1 -.49.26l-.4-.35a7.14 7.14 0 0 0 -3.92-1.7 7.55 7.55 0 0 1 -2.07-.45 2.43 2.43 0 0 1 -1.49-1.53 1.12 1.12 0 0 1 0-.69.69.69 0 0 1  .46-.07 2.06 2.06 0 0 0 1.88 1.93c.56.11 1.14.18 1.71.27a7.63 7.63 0 0 1 2.19.68.64.64 0 0 0  .37.14z"/><path d="m15.9 43.79a1.2 1.2 0 0 1 -.49-.28 6.61 6.61 0 0 0 1.82-2.29 8.6 8.6 0 0 0  .61-2.82.75.75 0 0 1  .46 0 6.39 6.39 0 0 1 -1 3.48s.07 0 .08 0a10.11 10.11 0 0 1 3.69-1 4.09 4.09 0 0 0 1.07-.25 1.83 1.83 0 0 0 1.29-1.63.7.7 0 0 1  .48 0 .82.82 0 0 1 0 .56 2.38 2.38 0 0 1 -1.36 1.54 6.18 6.18 0 0 1 -2.05.49 7.22 7.22 0 0 0 -4.5 2.14z"/><path d="m35.92 68.64a2.92 2.92 0 0 1 -.23-1.64c0-.34.1-.67.14-1a .64.64 0 0 1  .22-.42 4.19 4.19 0 0 1  .49-.38 5.67 5.67 0 0 0 1.46-1.06 4.79 4.79 0 0 1  .13 2 2 2 0 0 1 -.54 1 7.68 7.68 0 0 1 -1.2 1.17 1.8 1.8 0 0 1 -.47.33z"/><path d="m20.3 25.79a.43.43 0 0 1  .12.3s-.05.06-.07.06a11.64 11.64 0 0 1 -2.3-.08 2.62 2.62 0 0 1 -2.35-2.35.9.9 0 0 0 -.05-.15 2.13 2.13 0 0 1 -1.62.61c-.1 0-.11-.09-.13-.15a.68.68 0 0 1 0-.12c.07-.09.17-.05.25-.05a1.66 1.66 0 0 0 1.61-1.22 1.81 1.81 0 0 0 -1.51-2.17 3.25 3.25 0 0 0 -1.35.09c-.12-.08-.12-.17-.07-.32a3 3 0 0 1 2.13.1 2.4 2.4 0 0 1 1.25 1.72 2.43 2.43 0 0 1 2-.87 1.35 1.35 0 0 1  .39.49 6.21 6.21 0 0 0 -.67 0 1.84 1.84 0 0 0 -1.56 1.27 1.89 1.89 0 0 0  .46 2 2.73 2.73 0 0 0 1.61.76 6.34 6.34 0 0 0 1.15.09z"/><path d="m35.95 71.86a2.54 2.54 0 0 1  .32-3 15.24 15.24 0 0 0 1.67-1.55 2.34 2.34 0 0 1  .24 1.73 4.48 4.48 0 0 1 -2.23 2.82z"/><path d="m61.18 20.22c0 .15 0 .23-.08.31a3.62 3.62 0 0 0 -1.26-.06 1.88 1.88 0 0 0 -1.57 1.82 1.66 1.66 0 0 0 1.39 1.56h.34c0 .13 0 .21-.1.3a2 2 0 0 1 -1.48-.61.78.78 0 0 0 -.12.38 2.45 2.45 0 0 1 -1.67 2 4.58 4.58 0 0 1 -1.57.26h-1.67a.3.3 0 0 1 0-.27 3.42 3.42 0 0 1 1.08-.1 5.82 5.82 0 0 0 1.75-.24 2.08 2.08 0 0 0 1.59-2.09 1.86 1.86 0 0 0 -2.13-1.79h-.24c.05-.24.25-.35.36-.51a2.41 2.41 0 0 1 2 .87 2.35 2.35 0 0 1 1.44-1.8 3 3 0 0 1 1.94-.03z"/><path d="m31 20.33a.6.6 0 0 1  .05-.34.16.16 0 0 1  .17 0 4.11 4.11 0 0 1 2.08 5.91 5.5 5.5 0 0 1 -1.47 1.58l-.48.35a7.84 7.84 0 0 1 2 .1.33.33 0 0 1 -.07.39 6 6 0 0 0 -4.38.78.7.7 0 0 1 0-.5l1.22-.6a8.75 8.75 0 0 0 2.13-1.49 3.65 3.65 0 0 0 -1-6.07z"/><path d="m45.14 29.12a5.93 5.93 0 0 0 -4.54-.78.47.47 0 0 1 -.12-.4 6.26 6.26 0 0 1 2.12-.09 1.11 1.11 0 0 0 -.39-.35 4.83 4.83 0 0 1 -2-2.84 4.09 4.09 0 0 1 2.67-4.66.42.42 0 0 1  .12.32c0 .11-.16.13-.25.17a3.71 3.71 0 0 0 -2 2.39 3.42 3.42 0 0 0  .55 3 6.43 6.43 0 0 0 1.91 1.69c.6.37 1.25.66 1.9 1z"/><path d="m36.11 58.64a2.15 2.15 0 0 1  .32-2.71 10.61 10.61 0 0 0 1.66-1.69h.1a3.24 3.24 0 0 1 -.62 3.17z"/><path d="m31.18 42.35a1.86 1.86 0 0 1 -.57.06 4.47 4.47 0 0 0 -4.83-1.71 3.81 3.81 0 0 0 -2.94 3.71.61.61 0 0 1 -.15 0l-.18-.09c-.45-.8 1-3.15 2.38-3.82a4.93 4.93 0 0 1 6.29 1.85z"/><path d="m43.42 42.43a1.83 1.83 0 0 1 -.54-.07c.51-1.47 3-2.59 5-2.29a4.38 4.38 0 0 1 3.67 4.13c-.06.14-.2.15-.32.18s-.06-.13-.07-.2a3.85 3.85 0 0 0 -3.16-3.55 4.44 4.44 0 0 0 -4.43 1.62l-.11.13z"/><path d="m23 19.47a2.36 2.36 0 0 1  .18-.74l.32-.22a5.52 5.52 0 0 0 2.5-4.7c0-.2 0-.42.2-.53a5.31 5.31 0 0 1 -3.2 6.19z"/><path d="m48.95 45.2a.88.88 0 0 1 -.46 0c-.1-.18.06-.34 0-.48s.26-.15.28-.25c.11-.33-.13-.39-.3-.48a2.48 2.48 0 0 0 -4.18-1.45.84.84 0 0 1 -.46-.07 2.77 2.77 0 0 1 3.47-.85 3.12 3.12 0 0 1 1.65 3.58z"/><path d="m41.06 32.79c.18 0 .27-.16.41-.24a2.66 2.66 0 0 1 1.68-.42 1 1 0 0 1 -.63.39 3.3 3.3 0 0 0 -1.9 1.14 1.7 1.7 0 0 1 -.23.19.32.32 0 0 1 -.28-.16 3.83 3.83 0 0 1  .82-1.44.84.84 0 0 0  .17-1.11.9.9 0 0 0 -1.1-.4h-.1c-.07-.1 0-.17 0-.24a1.28 1.28 0 0 1  .12-.22c.82-.14 1.31.3 1.48 1.35a4 4 0 0 1 2.73-.71c0 .29-.2.31-.4.31a3.38 3.38 0 0 0 -2.19.83c-.24.21-.52.39-.6.73-.07 0-.09 0-.11.08.07.01.13-.01.13-.08z"/><path d="m25.09 45.2a3.13 3.13 0 0 1 1.73-3.67 2.76 2.76 0 0 1 3.36.87c-.05.1-.15.06-.23.07h-.22a2.48 2.48 0 0 0 -4.17 1.45c-.16.09-.42.07-.44.35s.23.28.41.33l.06.49a.71.71 0 0 1 -.5.11z"/><path d="m33.13 32.89a3.81 3.81 0 0 0 -2.19-1.56 3.64 3.64 0 0 0 -.83-.1c-.2 0-.34 0-.38-.3a3.91 3.91 0 0 1 2.76.69c.19-1 .48-1.3 1.29-1.38a.53.53 0 0 1  .21.41c-.1.07-.21 0-.3 0a .91.91 0 0 0 -.81.59.78.78 0 0 0  .19.93 3.39 3.39 0 0 1  .82 1.34.43.43 0 0 1 -.26.25.29.29 0 0 1 -.11 0 3.79 3.79 0 0 1 -.28-.28 2.82 2.82 0 0 0 -1.66-.94 3.19 3.19 0 0 1 -.75-.35 2.34 2.34 0 0 1 1.87.44c.14.1.25.26.45.25z"/><path d="m25.79 44.29c2.46-.22 4.92-.38 7.48-.43l-.55.75c-2.32-.02-4.63-.07-6.93-.32z"/><path d="m41.28 44.61-.58-.75c2.56.06 5 .21 7.48.43-2.28.25-4.57.29-6.9.32z"/><path d="m50.7 19.28a5.63 5.63 0 0 1 -2.35-2.28 4.78 4.78 0 0 1 -.57-3.52.61.61 0 0 1  .3.52 5.46 5.46 0 0 0 2.21 4.3c.32.27.32.63.41.98z"/><path d="m28.8 42.94a55.86 55.86 0 0 1 6.71-.45 8.4 8.4 0 0 0 -1.48.78 42.52 42.52 0 0 1 -5.23-.33z"/><path d="m45.15 42.93a42.57 42.57 0 0 1 -5.13.33 6.45 6.45 0 0 0 -1.55-.77 54.71 54.71 0 0 1 6.68.44z"/><path d="m60.56 38.53c-.13.06-.2 0-.28 0a .5.5 0 0 0 -.59.35.52.52 0 0 0  .29.62.93.93 0 0 0  .65 0 1.94 1.94 0 0 0 1.37-1.79c0-.25 0-.5 0-.75a.78.78 0 0 1  .45-.16 2.48 2.48 0 0 1 -1.77 3.12 1.18 1.18 0 0 1 -1.13-.36.77.77 0 0 1 0-1.08.65.65 0 0 1 1.01.05z"/><path d="m13.42 38.53c.45-.35.87-.32 1.14.08a.81.81 0 0 1 -.36 1.19 1.4 1.4 0 0 1 -1.24 0 2.72 2.72 0 0 1 -1.41-2.9 1.11 1.11 0 0 1  .51.16v.74a1.92 1.92 0 0 0 1.31 1.67 1 1 0 0 0  .65 0 .53.53 0 0 0  .33-.64.5.5 0 0 0 -.59-.33c-.11 0-.22.1-.34 0z"/><path d="m66.12 40.92c.06-.39.46-.26.56-.43a5.18 5.18 0 0 1 3.32 2.33 1 1 0 0 1 -.38.32 5 5 0 0 0 -3.5-2.22z"/><path d="m4.41 43.15a1 1 0 0 1 -.41-.36 11.34 11.34 0 0 1 1.44-1.48 8.17 8.17 0 0 1 1.92-.86 1.76 1.76 0 0 1  .39.52 4.69 4.69 0 0 0 -3.34 2.18z"/><path d="m33 47.32.77.62a28 28 0 0 1 -4.89-.25 40.09 40.09 0 0 1 4.12-.37z"/><path d="m40.17 48 .77-.62a34.6 34.6 0 0 1 4.1.3 22.42 22.42 0 0 1 -4.87.32z"/><path d="m51.76 31a .31.31 0 0 1 0-.28 1.35 1.35 0 0 0 1.43-1 1.79 1.79 0 0 0 -.45-2c0-.18.08-.29.12-.43a2.1 2.1 0 0 1  .8 2.48 1.7 1.7 0 0 1 -1.9 1.23z"/><path d="m49.88 21.54a.62.62 0 0 1 -.23-.41l.16-.06a.71.71 0 0 0  .28-1.28 1.39 1.39 0 0 0 -.77-.41l-.64-.12a.52.52 0 0 1 -.16-.45 3.07 3.07 0 0 1 1.74.48 1.31 1.31 0 0 1  .56 1.35 1.14 1.14 0 0 1 -.94.9z"/><path d="m25.49 18.82a.65.65 0 0 1 -.17.44c-.23 0-.48.09-.72.15a1.3 1.3 0 0 0 -.75.51.68.68 0 0 0  .29 1.08c.08 0 .17 0 .23.12a.7.7 0 0 1 -.23.36 1.14 1.14 0 0 1 -.77-1.77 1.58 1.58 0 0 1 1-.74 3.54 3.54 0 0 1 1.12-.15z"/><path d="m22.2 30.74a.24.24 0 0 1 0 .26.46.46 0 0 1 -.11 0 1.29 1.29 0 0 1 -.89-.19 2.17 2.17 0 0 1 -.35-3.42.69.69 0 0 1  .21.41 1.73 1.73 0 0 0 1.14 2.94z"/><path d="m39 19a .23.23 0 0 1 -.07-.22s0 0 .07 0a1.17 1.17 0 0 0 1.26-1.41 1.67 1.67 0 0 0 -1.41-1.49c-.13 0-.32 0-.28-.24a.85.85 0 0 1  .59 0 1.94 1.94 0 0 1 1.41 2.25 1.33 1.33 0 0 1 -1.57 1.11z"/><path d="m34.92 18.83a.19.19 0 0 1 0 .2 1.16 1.16 0 0 1 -1.27-.59 1.8 1.8 0 0 1 0-1.86 1.83 1.83 0 0 1 1.53-1 .33.33 0 0 1  .12 0 .19.19 0 0 1 0 .18c-1.22.31-1.57 1-1.56 1.8s.39 1.11 1.18 1.27z"/><path d="m14.59 25.29a3.38 3.38 0 0 1 2.77 3 .76.76 0 0 1 -.43-.46 3.56 3.56 0 0 0 -.61-1.17 2.81 2.81 0 0 0 -1.23-.9.72.72 0 0 1 -.5-.47z"/><path d="m39.25 20.45a.32.32 0 0 1 -.09-.31 3.15 3.15 0 0 0 3.36-1.58.67.67 0 0 1  .13.36 3.4 3.4 0 0 1 -3.4 1.53z"/><path d="m31.39 19a .55.55 0 0 1  .06-.39c.1 0 .13 0 .17.1a3.08 3.08 0 0 0 3.08 1.46c.1.1.08.19 0 .32a3.49 3.49 0 0 1 -3.31-1.49z"/><path d="m20.74 44a7.94 7.94 0 0 0 -2.13.78 1.13 1.13 0 0 1 -.48-.16 1.94 1.94 0 0 1 2.61-.62z"/><path d="m53.31 44a1.92 1.92 0 0 1 2.54.55c0 .11-.14.09-.22.12l-.25.07a14 14 0 0 0 -2.07-.74z"/><path d="m33.44 19a2.22 2.22 0 0 1 -1.12-2.13 2.4 2.4 0 0 1 2.76-2.22c.13 0 .31 0 .3.21s-.14.05-.21 0a2.24 2.24 0 0 0 -1.89 3.91c.06.06.16.09.15.2z"/><path d="m59.2 25.37a.71.71 0 0 1 -.39.44 3 3 0 0 0 -1.61 1.79 1 1 0 0 1 -.48.55 3.27 3.27 0 0 1 2.48-2.78z"/><path d="m64.58 45.9a1.7 1.7 0 0 1 -.21.09h-.21a2 2 0 0 1 2.45-2 2.22 2.22 0 0 0 -2.03 1.91z"/><path d="m7.47 44a2.05 2.05 0 0 1 2.45 2 .56.56 0 0 1 -.46-.06 2.17 2.17 0 0 0 -1.99-1.94z"/><path d="m40.71 19c0-.14.16-.2.25-.3a2.28 2.28 0 0 0  .31-2.7 2.25 2.25 0 0 0 -2.37-1.09c-.1 0-.2.06-.29 0s .06-.2.16-.21a2.41 2.41 0 0 1 2.1 4.19.17.17 0 0 1 -.16.05z"/><path d="m56.93 24.19c0 .3-.28.4-.49.51a1.71 1.71 0 0 1 -2.39-1 .65.65 0 0 1  .25-.34c.08.05.07.13.09.2a1.49 1.49 0 0 0 2.25.84c.1-.06.17-.17.31-.16z"/><path d="m17.08 24.2c1.38.68 2.08.47 2.65-.83a.64.64 0 0 1  .23.42 1.66 1.66 0 0 1 -1.43 1.06 1.42 1.42 0 0 1 -1.45-.65z"/><path d="m12.94 21.11c-.08-.07-.07-.15 0-.24a1.56 1.56 0 0 1 2.2.43 1.32 1.32 0 0 1 -.59 1.92 1.54 1.54 0 0 0  .57-.83 1.24 1.24 0 0 0 -.2-1c-.46-.58-1.04-.66-1.98-.28z"/><path d="m32.66 24.23c-.25 1.94-2.08 3.35-3.71 2.91 0-.21.14-.19.27-.18a3.88 3.88 0 0 0 1-.12 3.07 3.07 0 0 0 2.21-2c .09-.19.16-.4.23-.61z"/><path d="m29.4 25.22c-.08-.17 0-.27 0-.4a1.74 1.74 0 0 0 1.05-2.21 1.32 1.32 0 0 1  .25 1.29 1.78 1.78 0 0 1 -1.3 1.32z"/><path d="m44.59 24.79.07.4a1.25 1.25 0 0 1 -.79-.38 1.65 1.65 0 0 1 -.24-2.28 1.72 1.72 0 0 0  .96 2.26z"/><path d="m59.46 23.29c0-.08-.09-.11-.15-.15a1.4 1.4 0 0 1 -.26-2 1.54 1.54 0 0 1 2-.34.19.19 0 0 1 0 .2.11.11 0 0 1 -.13 0 1.36 1.36 0 0 0 -1.11-.1 1.25 1.25 0 0 0 -.52 2c .08.1.29.14.19.34z"/><path d="m44 27a3 3 0 0 1 -2.64-2.82 6.61 6.61 0 0 0  .55 1.29 3.23 3.23 0 0 0 1 1c .3.21.74.29 1.09.53z"/><path d="m23.56 22.43c0 .59-.62.62-.88 1a1.21 1.21 0 0 1 -.1-.55 1.49 1.49 0 0 1  .98-.45z"/><path d="m51.18 23.17c-.39-.14-.71-.28-.74-.72a1.25 1.25 0 0 1  .69.19c.11.16.04.36.05.53z"/><path d="m36.75 41.64a.93.93 0 0 1  .53 0 .38.38 0 0 1 0 .35 1.07 1.07 0 0 1 -.54 0 .39.39 0 0 1  .01-.35z"/><path d="m9.56 37a1.08 1.08 0 0 1 -.23-1.25c.14.43.11.84.23 1.25z"/><path d="m39.83 17a1.38 1.38 0 0 0 -1.11.09c.28-.43.65-.45 1.11-.09z"/><path d="m35.17 16.93a1.76 1.76 0 0 0 -.94.06.62.62 0 0 1  .94-.06z"/><path d="m53.34 38.56c.28.15.31.36.13.8-.12-.12-.06-.26-.08-.39s-.1-.23-.05-.41z"/><path d="m20.58 39.41c-.16-.47-.16-.54.06-.79a1.87 1.87 0 0 1 -.06.79z"/><path d="m64.76 35.59a.67.67 0 0 1 -.16.77l.07-.78z"/><path d="m45 27.17a.46.46 0 0 1 -.39 0c0-.12 0-.2.13-.21s.31-.03.26.21z"/><path d="m43.81 43.46c-.23.25-.23.25-.44.05.12-.13.25-.09.44-.05z"/><path d="m30.28 43.47a.39.39 0 0 1  .37 0c .05.16 0 .19-.16.2s-.22-.05-.21-.2z"/><path d="m42.38 43.56a.62.62 0 0 1  .59 0 .53.53 0 0 1 -.59 0z"/><path d="m31.65 43.56a.71.71 0 0 1 -.56 0 .45.45 0 0 1  .56 0z"/><path d="m38.85 17.3a.46.46 0 0 1  .09.47.34.34 0 0 1 -.09-.47z"/><path d="m33.44 19.06c.19.06.43 0 .47.32-.12-.15-.38-.12-.46-.33z"/><path d="m40.26 19.22c-.06.17-.23.12-.35.16a.42.42 0 0 1  .35-.15z"/><path d="m40.71 19a .21.21 0 0 1 -.27.18.26.26 0 0 1  .26-.18z"/><path d="m61.57 46.32c0-.07.1-.09.16 0s-.1.06-.16 0z"/><path d="m33.9 19.37c.06 0 .12-.08.19 0z"/><path d="m8.83 35.59s0-.06 0-.08 0 0 .06 0-.05.06-.06.08z"/><path d="m49.53 53s-.07 0-.09-.05l.08.06z"/><path d="m59.46 23.29.09-.06h-.1z"/><path d="m39.59 22.88v-.08z"/><path d="m40.27 19.23c0-.09.1-.1.19-.08 0 .11-.1.11-.18.08z"/><path d="m24.58 52.88s0 0 0 0z"/><path d="m56.94 24.2v-.06c0 .06 0 .07 0 .05z"/><path d="m6.06 39.81s0 0 0 0z"/><path d="m52.38 2.67.01.02-.02-.02z"/><path d="m13.42 38.53h.07z"/></g></svg>