<svg xmlns="http://www.w3.org/2000/svg" width="42.156" height="31.44" viewBox="0 0 42.156 31.44">
  <metadata><?xpacket begin="﻿" id="W5M0MpCehiHzreSzNTczkc9d"?>
<x:xmpmeta xmlns:x="adobe:ns:meta/" x:xmptk="Adobe XMP Core 5.6-c138 79.159824, 2016/09/14-01:09:01        ">
   <rdf:RDF xmlns:rdf="http://www.w3.org/1999/02/22-rdf-syntax-ns#">
      <rdf:Description rdf:about=""/>
   </rdf:RDF>
</x:xmpmeta>
                                                                                                    
                                                                                                    
                                                                                                    
                                                                                                    
                                                                                                    
                                                                                                    
                                                                                                    
                                                                                                    
                                                                                                    
                                                                                                    
                                                                                                    
                                                                                                    
                                                                                                    
                                                                                                    
                                                                                                    
                                                                                                    
                                                                                                    
                                                                                                    
                                                                                                    
                                                                                                    
                           
<?xpacket end="w"?></metadata>
<defs>
    <style>
      .cls-1 {
        fill: #fff;
        fill-rule: evenodd;
      }
    </style>
  </defs>
  <path id="twitter" class="cls-1" d="M894.735,5436.05c-1.257-2.08-2.235-4.23-1.79-6.74a6.715,6.715,0,0,1,1.909-3.71,24.032,24.032,0,0,0,6.394,6.58,20.291,20.291,0,0,0,8.192,3.46,2.892,2.892,0,0,0,.5-1.89c1.269-5.93,8.644-8.64,13.308-4.67a4.6,4.6,0,0,0,5.036.86c0.524-.17,1.057-0.32,1.753-0.53-0.211,1.69-1.512,2.38-2.414,3.46,1.017,0.51,1.972-.35,3.124,0a7.611,7.611,0,0,1-3.072,2.85,3.3,3.3,0,0,0-1.6,2.47c-2.4,11.47-11.2,18.98-23.168,18.83a23.888,23.888,0,0,1-13.58-4.58,1.238,1.238,0,0,1-.736-1.15,18.585,18.585,0,0,0,11.126-1.33c-2.98-1.43-5.393-3.19-5.881-6.51,0.843-.44,1.445.2,2.216-0.23-2.908-1.97-4.5-4.52-3.813-8.09,1.046-.13,1.676.68,2.523,0.89a0.267,0.267,0,0,0,0-.04Z" transform="translate(-888.594 -5425.59)"/>
</svg>
