<svg xmlns="http://www.w3.org/2000/svg" width="47.313" height="26.37" viewBox="0 0 47.313 26.37">
  <metadata><?xpacket begin="﻿" id="W5M0MpCehiHzreSzNTczkc9d"?>
<x:xmpmeta xmlns:x="adobe:ns:meta/" x:xmptk="Adobe XMP Core 5.6-c138 79.159824, 2016/09/14-01:09:01        ">
   <rdf:RDF xmlns:rdf="http://www.w3.org/1999/02/22-rdf-syntax-ns#">
      <rdf:Description rdf:about=""/>
   </rdf:RDF>
</x:xmpmeta>
                                                                                                    
                                                                                                    
                                                                                                    
                                                                                                    
                                                                                                    
                                                                                                    
                                                                                                    
                                                                                                    
                                                                                                    
                                                                                                    
                                                                                                    
                                                                                                    
                                                                                                    
                                                                                                    
                                                                                                    
                                                                                                    
                                                                                                    
                                                                                                    
                                                                                                    
                                                                                                    
                           
<?xpacket end="w"?></metadata>
<defs>
    <style>
      .cls-1 {
        fill: #fff;
        fill-rule: evenodd;
      }
    </style>
  </defs>
  <path id="vk" class="cls-1" d="M785.761,5429.76a2.316,2.316,0,0,1,1.735-1.47,7.155,7.155,0,0,1,.926-0.05c2.283-.01,4.568.02,6.851-0.02,1.877-.03,2.232.89,2.257,2.26,0.048,2.65.021,5.29,0.015,7.94a4.339,4.339,0,0,0,.246,1.49,1.846,1.846,0,0,0,.47.74,0.922,0.922,0,0,0,1.317.09,8.577,8.577,0,0,0,1.489-1.54,30.033,30.033,0,0,0,3.576-5.78c0.487-.99.918-2.02,1.34-3.04a1.869,1.869,0,0,1,1.93-1.28c2.412,0.02,4.825.01,7.238,0.02a3.978,3.978,0,0,1,1.188.13,1.119,1.119,0,0,1,.89,1.56,12.311,12.311,0,0,1-1.757,3.55c-1.429,2.12-3.043,4.1-4.561,6.15-0.281.38-.564,0.76-0.823,1.15a2.048,2.048,0,0,0,.334,3.03c1.117,1.09,2.264,2.15,3.372,3.25a18.654,18.654,0,0,1,2.989,3.63,2.518,2.518,0,0,1,.461,1.66,1.444,1.444,0,0,1-1.54,1.34c-2.4,0-4.8.01-7.2,0a5.439,5.439,0,0,1-3.978-1.92c-1-1.06-2-2.13-3-3.19a4.564,4.564,0,0,0-.861-0.7,1.465,1.465,0,0,0-2.342.67,6.749,6.749,0,0,0-.626,2.46c-0.032.4-.062,0.81-0.122,1.21a1.448,1.448,0,0,1-1.469,1.4,18.093,18.093,0,0,1-3.208.04,16.76,16.76,0,0,1-7.226-2.03,17.866,17.866,0,0,1-4.082-3.12,43.293,43.293,0,0,1-5.851-7.84,96.149,96.149,0,0,1-5.444-10.43,4.2,4.2,0,0,1-.215-0.53,0.971,0.971,0,0,1,.846-1.4,3.956,3.956,0,0,1,.77-0.05c2.078-.01,4.155.01,6.232-0.02a2.073,2.073,0,0,1,2.089,1.33c0.631,1.42,1.249,2.85,2.007,4.21a28.038,28.038,0,0,0,3.774,5.6,2.431,2.431,0,0,0,1.075.73,0.86,0.86,0,0,0,.994-0.32,2.985,2.985,0,0,0,.576-1.51,24.446,24.446,0,0,0-.016-6.85,2.561,2.561,0,0,0-2.136-2.31A0.773,0.773,0,0,1,785.761,5429.76Z" transform="translate(-770 -5428.22)"/>
</svg>
