<svg xmlns="http://www.w3.org/2000/svg" width="35.656" height="34.88" viewBox="0 0 35.656 34.88">
  <metadata><?xpacket begin="﻿" id="W5M0MpCehiHzreSzNTczkc9d"?>
<x:xmpmeta xmlns:x="adobe:ns:meta/" x:xmptk="Adobe XMP Core 5.6-c138 79.159824, 2016/09/14-01:09:01        ">
   <rdf:RDF xmlns:rdf="http://www.w3.org/1999/02/22-rdf-syntax-ns#">
      <rdf:Description rdf:about=""/>
   </rdf:RDF>
</x:xmpmeta>
                                                                                                    
                                                                                                    
                                                                                                    
                                                                                                    
                                                                                                    
                                                                                                    
                                                                                                    
                                                                                                    
                                                                                                    
                                                                                                    
                                                                                                    
                                                                                                    
                                                                                                    
                                                                                                    
                                                                                                    
                                                                                                    
                                                                                                    
                                                                                                    
                                                                                                    
                                                                                                    
                           
<?xpacket end="w"?></metadata>
<defs>
    <style>
      .cls-1 {
        fill: #fff;
        fill-rule: evenodd;
      }
    </style>
  </defs>
  <path id="youtube" class="cls-1" d="M970.131,5424.07c3.219,0.15,7.62-.35,11.988.29,2.836,0.42,4.955,2.38,4.987,5.15,0.087,7.78.427,15.58-.242,23.35-0.36,4.18-1.915,5.54-6.22,5.89-4.9.4-9.817-.06-14.728,0.04a38.2,38.2,0,0,1-7.994-.32,14.107,14.107,0,0,1-3.14-.93,4.616,4.616,0,0,1-2.948-3.99,98.235,98.235,0,0,1-.163-9.99c0.025-4.64-.275-9.29.191-13.93a5.954,5.954,0,0,1,6.084-5.54C961.618,5424,965.294,5424.07,970.131,5424.07Zm-5.63,24.85c0.584-.18.862-0.23,1.118-0.34,3.677-1.58,7.093-3.64,10.581-5.56a3.6,3.6,0,0,0,1.753-2.46c-4.49-2.24-8.707-4.9-13.619-6.99C964.309,5438.87,963.943,5443.8,964.5,5448.92Z" transform="translate(-951.625 -5424.03)"/>
</svg>
